AtkinsonHyperlegibleNext-BoldItalic.sfdir
StartChar: exclam
Encoding: 33 33 263
Width: 308
GlyphClass: 1
Flags: W
LayerCount: 2
Fore
SplineSet
128 495 m 1,0,-1
 165 668 l 1,1,-1
 318 668 l 1,2,-1
 281 495 l 1,3,-1
 198 236 l 1,4,-1
 103 236 l 1,5,-1
 128 495 l 1,0,-1
53 15.5 m 128,-1,7
 26 43 26 43 26 81 c 256,8,9
 26 119 26 119 53 146 c 128,-1,10
 80 173 80 173 118 173 c 256,11,12
 156 173 156 173 183 146 c 128,-1,13
 210 119 210 119 210 81 c 256,14,15
 210 43 210 43 183 15.5 c 128,-1,16
 156 -12 156 -12 118 -12 c 256,17,6
 80 -12 80 -12 53 15.5 c 128,-1,7
EndSplineSet
EndChar
StartChar: quotedbl
Encoding: 34 34 293
Width: 393
GlyphClass: 1
Flags: W
LayerCount: 2
Fore
SplineSet
310 668 m 1,0,-1
 442 668 l 1,1,-1
 379 436 l 1,2,-1
 274 436 l 1,3,-1
 310 668 l 1,0,-1
129 668 m 1,4,-1
 261 668 l 1,5,-1
 199 436 l 1,6,-1
 93 436 l 1,7,-1
 129 668 l 1,4,-1
EndSplineSet
EndChar
StartChar: numbersign
Encoding: 35 35 270
Width: 767
GlyphClass: 1
Flags: W
LayerCount: 2
Fore
SplineSet
130 136 m 1,0,-1
 5 136 l 1,1,-1
 50 264 l 1,2,-1
 176 264 l 1,3,-1
 226 404 l 1,4,-1
 102 404 l 1,5,-1
 147 533 l 1,6,-1
 273 533 l 1,7,-1
 321 668 l 1,8,-1
 454 668 l 1,9,-1
 405 533 l 1,10,-1
 539 533 l 1,11,-1
 588 668 l 1,12,-1
 721 668 l 1,13,-1
 673 533 l 1,14,-1
 798 533 l 1,15,-1
 753 404 l 1,16,-1
 627 404 l 1,17,-1
 577 264 l 1,18,-1
 702 264 l 1,19,-1
 656 136 l 1,20,-1
 530 136 l 1,21,-1
 483 0 l 1,22,-1
 348 0 l 1,23,-1
 396 136 l 1,24,-1
 265 136 l 1,25,-1
 217 0 l 1,26,-1
 83 0 l 1,27,-1
 130 136 l 1,0,-1
443 264 m 1,28,-1
 493 404 l 1,29,-1
 359 404 l 1,30,-1
 310 264 l 1,31,-1
 443 264 l 1,28,-1
EndSplineSet
EndChar
StartChar: dollar
Encoding: 36 36 313
Width: 610
GlyphClass: 1
Flags: W
LayerCount: 2
Fore
SplineSet
88 49.5 m 128,-1,1
 35 91 35 91 16 159 c 1,2,-1
 149 206 l 1,3,4
 155 170 155 170 179.5 146.5 c 128,-1,5
 204 123 204 123 242 112 c 1,6,-1
 279 291 l 1,7,-1
 246 302 l 2,8,9
 173 327 173 327 130.5 366.5 c 128,-1,10
 88 406 88 406 88 467 c 0,11,12
 88 532 88 532 126 580 c 128,-1,13
 164 628 164 628 226.5 653 c 128,-1,14
 289 678 289 678 361 680 c 1,15,-1
 378 758 l 1,16,-1
 448 758 l 1,17,-1
 430 675 l 1,18,19
 497 664 497 664 546 628.5 c 128,-1,20
 595 593 595 593 614 535 c 1,21,-1
 484 488 l 1,22,23
 468 537 468 537 404 556 c 1,24,-1
 371 397 l 1,25,-1
 390 391 l 2,26,27
 446 372 446 372 485 351.5 c 128,-1,28
 524 331 524 331 549.5 298.5 c 128,-1,29
 575 266 575 266 575 218 c 0,30,31
 575 151 575 151 536.5 98.5 c 128,-1,32
 498 46 498 46 431.5 17 c 128,-1,33
 365 -12 365 -12 285 -12 c 1,34,-1
 268 -90 l 1,35,-1
 198 -90 l 1,36,-1
 216 -6 l 1,37,0
 141 8 141 8 88 49.5 c 128,-1,1
395.5 127 m 128,-1,39
 431 150 431 150 431 187 c 0,40,41
 431 213 431 213 413 231 c 128,-1,42
 395 249 395 249 353 265 c 2,43,-1
 344 269 l 1,44,-1
 309 104 l 1,45,38
 360 104 360 104 395.5 127 c 128,-1,39
262 542.5 m 128,-1,47
 232 523 232 523 232 490 c 0,48,49
 232 443 232 443 299 421 c 1,50,-1
 306 418 l 1,51,-1
 337 564 l 1,52,46
 292 562 292 562 262 542.5 c 128,-1,47
EndSplineSet
EndChar
StartChar: percent
Encoding: 37 37 341
Width: 1024
GlyphClass: 1
Flags: W
LayerCount: 2
Fore
SplineSet
766 668 m 1,0,-1
 895 668 l 1,1,-1
 292 0 l 1,2,-1
 164 0 l 1,3,-1
 766 668 l 1,0,-1
180.5 315.5 m 128,-1,5
 136 342 136 342 110 387 c 128,-1,6
 84 432 84 432 84 485 c 256,7,8
 84 538 84 538 110 582.5 c 128,-1,9
 136 627 136 627 180.5 653.5 c 128,-1,10
 225 680 225 680 278 680 c 0,11,12
 330 680 330 680 374.5 653.5 c 128,-1,13
 419 627 419 627 445 582.5 c 128,-1,14
 471 538 471 538 471 485 c 256,15,16
 471 432 471 432 445 387 c 128,-1,17
 419 342 419 342 374.5 315.5 c 128,-1,18
 330 289 330 289 278 289 c 0,19,4
 225 289 225 289 180.5 315.5 c 128,-1,5
335 425.5 m 128,-1,21
 359 450 359 450 359 485 c 0,22,23
 359 519 359 519 335 543.5 c 128,-1,24
 311 568 311 568 278 568 c 0,25,26
 244 568 244 568 220 543.5 c 128,-1,27
 196 519 196 519 196 485 c 0,28,29
 196 450 196 450 220 425.5 c 128,-1,30
 244 401 244 401 278 401 c 0,31,20
 311 401 311 401 335 425.5 c 128,-1,21
685 14.5 m 128,-1,33
 641 41 641 41 615 86 c 128,-1,34
 589 131 589 131 589 184 c 256,35,36
 589 237 589 237 615 281.5 c 128,-1,37
 641 326 641 326 685 352.5 c 128,-1,38
 729 379 729 379 782 379 c 256,39,40
 835 379 835 379 879.5 352.5 c 128,-1,41
 924 326 924 326 950 281.5 c 128,-1,42
 976 237 976 237 976 184 c 256,43,44
 976 131 976 131 950 86 c 128,-1,45
 924 41 924 41 879.5 14.5 c 128,-1,46
 835 -12 835 -12 782 -12 c 256,47,32
 729 -12 729 -12 685 14.5 c 128,-1,33
840 124.5 m 128,-1,49
 864 149 864 149 864 184 c 0,50,51
 864 218 864 218 840 242.5 c 128,-1,52
 816 267 816 267 782 267 c 0,53,54
 749 267 749 267 725 242.5 c 128,-1,55
 701 218 701 218 701 184 c 0,56,57
 701 149 701 149 725 124.5 c 128,-1,58
 749 100 749 100 782 100 c 0,59,48
 816 100 816 100 840 124.5 c 128,-1,49
EndSplineSet
EndChar
StartChar: ampersand
Encoding: 38 38 298
Width: 725
GlyphClass: 1
Flags: W
LayerCount: 2
Fore
SplineSet
147 8.5 m 128,-1,1
 93 30 93 30 61.5 70 c 128,-1,2
 30 110 30 110 30 165 c 0,3,4
 30 247 30 247 89.5 305.5 c 128,-1,5
 149 364 149 364 240 391 c 1,6,7
 204 461 204 461 204 517 c 0,8,9
 204 574 204 574 233.5 616 c 128,-1,10
 263 658 263 658 311.5 679.5 c 128,-1,11
 360 701 360 701 416 701 c 0,12,13
 465 701 465 701 506.5 682 c 128,-1,14
 548 663 548 663 572.5 628 c 128,-1,15
 597 593 597 593 597 547 c 0,16,17
 597 480 597 480 551.5 429.5 c 128,-1,18
 506 379 506 379 429 350 c 1,19,-1
 511 226 l 1,20,21
 560 290 560 290 584 364 c 1,22,-1
 710 364 l 1,23,24
 692 298 692 298 657 238 c 128,-1,25
 622 178 622 178 574 129 c 1,26,-1
 660 0 l 1,27,-1
 504 0 l 1,28,-1
 471 48 l 1,29,30
 375 -13 375 -13 266 -13 c 0,31,0
 201 -13 201 -13 147 8.5 c 128,-1,1
408 140 m 1,33,-1
 296 300 l 1,34,35
 244 284 244 284 211.5 255.5 c 128,-1,36
 179 227 179 227 179 184 c 0,37,38
 179 147 179 147 209 125.5 c 128,-1,39
 239 104 239 104 286 104 c 0,40,32
 353 104 353 104 408 140 c 1,33,-1
446 476 m 128,-1,42
 475 503 475 503 475 538 c 0,43,44
 475 564 475 564 456.5 579.5 c 128,-1,45
 438 595 438 595 409 595 c 0,46,47
 376 595 376 595 354 576.5 c 128,-1,48
 332 558 332 558 332 526 c 0,49,50
 332 508 332 508 342 487 c 128,-1,51
 352 466 352 466 374 434 c 1,52,41
 417 449 417 449 446 476 c 128,-1,42
EndSplineSet
EndChar
StartChar: quotesingle
Encoding: 39 39 294
Width: 212
GlyphClass: 1
Flags: W
LayerCount: 2
Fore
SplineSet
129 668 m 1,0,-1
 261 668 l 1,1,-1
 199 436 l 1,2,-1
 93 436 l 1,3,-1
 129 668 l 1,0,-1
EndSplineSet
EndChar
StartChar: parenleft
Encoding: 40 40 277
Width: 336
GlyphClass: 1
Flags: W
LayerCount: 2
Fore
SplineSet
41 131 m 0,1,2
 41 283 41 283 100.5 430.5 c 128,-1,3
 160 578 160 578 273 708 c 1,4,-1
 425 708 l 1,5,6
 304 585 304 585 238.5 432.5 c 128,-1,7
 173 280 173 280 173 123 c 0,8,9
 173 -27 173 -27 226 -162 c 1,10,-1
 93 -162 l 1,11,0
 41 -24 41 -24 41 131 c 0,1,2
EndSplineSet
EndChar
StartChar: parenright
Encoding: 41 41 278
Width: 336
GlyphClass: 1
Flags: W
LayerCount: 2
Fore
SplineSet
108.5 114.5 m 128,-1,1
 174 267 174 267 174 424 c 0,2,3
 174 576 174 576 120 709 c 1,4,-1
 254 709 l 1,5,6
 305 574 305 574 305 416 c 0,7,8
 305 264 305 264 246 116 c 128,-1,9
 187 -32 187 -32 73 -161 c 1,10,-1
 -78 -161 l 1,11,0
 43 -38 43 -38 108.5 114.5 c 128,-1,1
EndSplineSet
EndChar
StartChar: asterisk
Encoding: 42 42 269
Width: 487
GlyphClass: 1
Flags: W
LayerCount: 2
Fore
SplineSet
128 377 m 1,0,-1
 221 470 l 1,1,-1
 112 520 l 1,2,-1
 155 598 l 1,3,-1
 263 548 l 1,4,-1
 289 668 l 1,5,-1
 374 668 l 1,6,-1
 346 539 l 1,7,-1
 470 565 l 1,8,-1
 481 481 l 1,9,-1
 355 456 l 1,10,-1
 407 348 l 1,11,-1
 330 306 l 1,12,-1
 279 412 l 1,13,-1
 186 319 l 1,14,-1
 128 377 l 1,0,-1
EndSplineSet
EndChar
StartChar: plus
Encoding: 43 43 320
Width: 594
GlyphClass: 1
Flags: W
LayerCount: 2
Fore
SplineSet
224 188 m 1,0,-1
 29 188 l 1,1,-1
 56 308 l 1,2,-1
 250 308 l 1,3,-1
 290 496 l 1,4,-1
 410 496 l 1,5,-1
 371 308 l 1,6,-1
 565 308 l 1,7,-1
 539 188 l 1,8,-1
 344 188 l 1,9,-1
 304 0 l 1,10,-1
 184 0 l 1,11,-1
 224 188 l 1,0,-1
EndSplineSet
EndChar
StartChar: comma
Encoding: 44 44 259
Width: 272
GlyphClass: 1
Flags: W
LayerCount: 2
Fore
SplineSet
25.5 26.5 m 128,-1,1
 9 50 9 50 9 81 c 0,2,3
 9 119 9 119 36 146 c 128,-1,4
 63 173 63 173 101 173 c 0,5,6
 140 173 140 173 166.5 147 c 128,-1,7
 193 121 193 121 193 85 c 0,8,9
 193 69 193 69 188 54 c 128,-1,10
 183 39 183 39 171 19 c 2,11,-1
 67 -144 l 1,12,-1
 -18 -144 l 1,13,-1
 67 -7 l 1,14,0
 42 3 42 3 25.5 26.5 c 128,-1,1
EndSplineSet
EndChar
StartChar: period
Encoding: 46 46 258
Width: 274
GlyphClass: 1
Flags: W
LayerCount: 2
Fore
SplineSet
36 15.5 m 128,-1,1
 9 43 9 43 9 81 c 256,2,3
 9 119 9 119 36 146.5 c 128,-1,4
 63 174 63 174 102 174 c 0,5,6
 140 174 140 174 167 146.5 c 128,-1,7
 194 119 194 119 194 81 c 256,8,9
 194 43 194 43 167 15.5 c 128,-1,10
 140 -12 140 -12 102 -12 c 0,11,0
 63 -12 63 -12 36 15.5 c 128,-1,1
EndSplineSet
EndChar
StartChar: zero
Encoding: 48 48 229
Width: 657
GlyphClass: 1
Flags: W
LayerCount: 2
Fore
SplineSet
121 57.5 m 128,-1,1
 57 127 57 127 57 249 c 0,2,3
 57 346 57 346 91.5 445.5 c 128,-1,4
 126 545 126 545 200.5 612.5 c 128,-1,5
 275 680 275 680 388 680 c 0,6,7
 511 680 511 680 574 610.5 c 128,-1,8
 637 541 637 541 637 422 c 0,9,10
 637 326 637 326 602.5 226 c 128,-1,11
 568 126 568 126 493.5 57 c 128,-1,12
 419 -12 419 -12 307 -12 c 0,13,0
 185 -12 185 -12 121 57.5 c 128,-1,1
395 129 m 1,15,-1
 244 458 l 1,16,17
 220 410 220 410 208 351 c 128,-1,18
 196 292 196 292 196 244 c 0,19,20
 196 95 196 95 310 95 c 0,21,14
 358 95 358 95 395 129 c 1,15,-1
485.5 320 m 128,-1,23
 497 377 497 377 497 424 c 0,24,25
 497 491 497 491 470.5 532 c 128,-1,26
 444 573 444 573 386 573 c 0,27,28
 339 573 339 573 302 541 c 1,29,-1
 452 215 l 1,30,22
 474 263 474 263 485.5 320 c 128,-1,23
EndSplineSet
Substitution2: "'tnum' Tabular Numbers in Latin lookup 10 subtable" zero.tf
AlternateSubs2: "'aalt' Access All Alternates in Latin lookup 0 subtable" zero.tf
EndChar
StartChar: one
Encoding: 49 49 230
Width: 442
GlyphClass: 5
Flags: W
LayerCount: 2
Fore
SplineSet
244 457 m 1,0,-1
 87 457 l 1,1,-1
 112 571 l 1,2,3
 184 571 184 571 217 576.5 c 128,-1,4
 250 582 250 582 272 601.5 c 128,-1,5
 294 621 294 621 323 668 c 1,6,-1
 429 668 l 1,7,-1
 287 0 l 1,8,-1
 147 0 l 1,9,-1
 244 457 l 1,0,-1
EndSplineSet
Substitution2: "'tnum' Tabular Numbers in Latin lookup 10 subtable" one.tf
Substitution2: "'sups' Superscript in Latin lookup 6 subtable" uni00B9
AlternateSubs2: "'aalt' Access All Alternates in Latin lookup 0 subtable" uni00B9 one.tf
EndChar
StartChar: two
Encoding: 50 50 231
Width: 580
GlyphClass: 5
Flags: W
LayerCount: 2
Fore
SplineSet
321.5 325.5 m 128,-1,1
 436 417 436 417 436 497 c 0,2,3
 436 533 436 533 411 553.5 c 128,-1,4
 386 574 386 574 344 574 c 0,5,6
 259 574 259 574 222 486 c 1,7,-1
 95 538 l 1,8,9
 131 611 131 611 198.5 645.5 c 128,-1,10
 266 680 266 680 348 680 c 0,11,12
 449 680 449 680 514 634 c 128,-1,13
 579 588 579 588 579 505 c 0,14,15
 579 423 579 423 522 351.5 c 128,-1,16
 465 280 465 280 385.5 227 c 128,-1,17
 306 174 306 174 199 118 c 1,18,-1
 509 118 l 1,19,-1
 485 0 l 1,20,-1
 -23 0 l 1,21,-1
 1 118 l 1,22,0
 207 234 207 234 321.5 325.5 c 128,-1,1
EndSplineSet
Substitution2: "'tnum' Tabular Numbers in Latin lookup 10 subtable" two.tf
Substitution2: "'sups' Superscript in Latin lookup 6 subtable" uni00B2
AlternateSubs2: "'aalt' Access All Alternates in Latin lookup 0 subtable" uni00B2 two.tf
EndChar
StartChar: three
Encoding: 51 51 232
Width: 600
GlyphClass: 5
Flags: W
LayerCount: 2
Fore
SplineSet
107 28 m 128,-1,1
 40 68 40 68 21 146 c 1,2,-1
 152 188 l 1,3,4
 160 140 160 140 193.5 117 c 128,-1,5
 227 94 227 94 275 94 c 0,6,7
 326 94 326 94 358 124 c 128,-1,8
 390 154 390 154 390 200 c 0,9,10
 390 244 390 244 351.5 269.5 c 128,-1,11
 313 295 313 295 249 295 c 2,12,-1
 227 295 l 1,13,-1
 247 396 l 1,14,-1
 316 396 l 2,15,16
 373 396 373 396 408 423.5 c 128,-1,17
 443 451 443 451 443 495 c 0,18,19
 443 531 443 531 413 552.5 c 128,-1,20
 383 574 383 574 341 574 c 0,21,22
 296 574 296 574 265 552.5 c 128,-1,23
 234 531 234 531 219 489 c 1,24,-1
 91 538 l 1,25,26
 128 612 128 612 197 646 c 128,-1,27
 266 680 266 680 347 680 c 0,28,29
 409 680 409 680 464 661.5 c 128,-1,30
 519 643 519 643 553.5 605.5 c 128,-1,31
 588 568 588 568 588 513 c 0,32,33
 588 449 588 449 548.5 400.5 c 128,-1,34
 509 352 509 352 442 336 c 1,35,36
 487 317 487 317 510.5 281 c 128,-1,37
 534 245 534 245 534 201 c 0,38,39
 534 137 534 137 497.5 88.5 c 128,-1,40
 461 40 461 40 400 14 c 128,-1,41
 339 -12 339 -12 266 -12 c 0,42,0
 174 -12 174 -12 107 28 c 128,-1,1
EndSplineSet
Substitution2: "'tnum' Tabular Numbers in Latin lookup 10 subtable" three.tf
Substitution2: "'sups' Superscript in Latin lookup 6 subtable" uni00B3
AlternateSubs2: "'aalt' Access All Alternates in Latin lookup 0 subtable" uni00B3 three.tf
EndChar
StartChar: four
Encoding: 52 52 233
Width: 624
GlyphClass: 5
Flags: W
LayerCount: 2
Fore
SplineSet
329 145 m 1,0,-1
 3 145 l 1,1,-1
 26 251 l 1,2,-1
 426 668 l 1,3,-1
 582 668 l 1,4,-1
 497 270 l 1,5,-1
 593 270 l 1,6,-1
 567 145 l 1,7,-1
 470 145 l 1,8,-1
 440 0 l 1,9,-1
 298 0 l 1,10,-1
 329 145 l 1,0,-1
355 270 m 1,11,-1
 401 482 l 1,12,-1
 194 270 l 1,13,-1
 355 270 l 1,11,-1
EndSplineSet
Substitution2: "'tnum' Tabular Numbers in Latin lookup 10 subtable" four.tf
AlternateSubs2: "'aalt' Access All Alternates in Latin lookup 0 subtable" four.tf
EndChar
StartChar: five
Encoding: 53 53 234
Width: 607
GlyphClass: 1
Flags: W
LayerCount: 2
Fore
SplineSet
118 29 m 128,-1,1
 54 70 54 70 33 145 c 1,2,-1
 158 186 l 1,3,4
 164 142 164 142 194 118 c 128,-1,5
 224 94 224 94 271 94 c 0,6,7
 314 94 314 94 345.5 116 c 128,-1,8
 377 138 377 138 393.5 172.5 c 128,-1,9
 410 207 410 207 410 244 c 0,10,11
 410 294 410 294 381 320.5 c 128,-1,12
 352 347 352 347 308 347 c 0,13,14
 273 347 273 347 240.5 329.5 c 128,-1,15
 208 312 208 312 185 280 c 1,16,-1
 69 326 l 1,17,-1
 183 668 l 1,18,-1
 620 668 l 1,19,-1
 595 551 l 1,20,-1
 275 551 l 1,21,-1
 230 417 l 1,22,23
 255 435 255 435 288.5 444 c 128,-1,24
 322 453 322 453 357 453 c 0,25,26
 413 453 413 453 458.5 428.5 c 128,-1,27
 504 404 504 404 530 358.5 c 128,-1,28
 556 313 556 313 556 254 c 0,29,30
 556 176 556 176 519 115.5 c 128,-1,31
 482 55 482 55 417 21.5 c 128,-1,32
 352 -12 352 -12 271 -12 c 0,33,0
 182 -12 182 -12 118 29 c 128,-1,1
EndSplineSet
Substitution2: "'tnum' Tabular Numbers in Latin lookup 10 subtable" five.tf
AlternateSubs2: "'aalt' Access All Alternates in Latin lookup 0 subtable" five.tf
EndChar
StartChar: six
Encoding: 54 54 235
Width: 627
GlyphClass: 1
Flags: W
LayerCount: 2
Fore
SplineSet
123.5 51.5 m 128,-1,1
 58 115 58 115 58 235 c 0,2,3
 58 331 58 331 95.5 434.5 c 128,-1,4
 133 538 133 538 209 609 c 128,-1,5
 285 680 285 680 394 680 c 0,6,7
 465 680 465 680 520 653.5 c 128,-1,8
 575 627 575 627 600 567 c 1,9,-1
 472 524 l 1,10,11
 461 548 461 548 438.5 561 c 128,-1,12
 416 574 416 574 388 574 c 0,13,14
 333 574 333 574 292 531 c 128,-1,15
 251 488 251 488 232 407 c 1,16,17
 257 427 257 427 292 439 c 128,-1,18
 327 451 327 451 368 451 c 0,19,20
 425 451 425 451 471.5 426 c 128,-1,21
 518 401 518 401 545 356 c 128,-1,22
 572 311 572 311 572 254 c 0,23,24
 572 186 572 186 537.5 125 c 128,-1,25
 503 64 503 64 440 26 c 128,-1,26
 377 -12 377 -12 296 -12 c 0,27,0
 189 -12 189 -12 123.5 51.5 c 128,-1,1
364.5 116 m 128,-1,29
 393 137 393 137 409 170.5 c 128,-1,30
 425 204 425 204 425 242 c 0,31,32
 425 291 425 291 395.5 317 c 128,-1,33
 366 343 366 343 324 343 c 0,34,35
 283 343 283 343 254 320.5 c 128,-1,36
 225 298 225 298 210.5 263.5 c 128,-1,37
 196 229 196 229 196 195 c 0,38,39
 196 145 196 145 226 120 c 128,-1,40
 256 95 256 95 298 95 c 0,41,28
 336 95 336 95 364.5 116 c 128,-1,29
EndSplineSet
Substitution2: "'tnum' Tabular Numbers in Latin lookup 10 subtable" six.tf
AlternateSubs2: "'aalt' Access All Alternates in Latin lookup 0 subtable" six.tf
EndChar
StartChar: eight
Encoding: 56 56 237
Width: 624
GlyphClass: 1
Flags: W
LayerCount: 2
Fore
SplineSet
166.5 9.5 m 128,-1,1
 106 32 106 32 68.5 76.5 c 128,-1,2
 31 121 31 121 31 185 c 0,3,4
 31 323 31 323 186 392 c 1,5,6
 169 428 169 428 169 467 c 0,7,8
 169 522 169 522 197 571 c 128,-1,9
 225 620 225 620 274 650 c 128,-1,10
 323 680 323 680 382 680 c 0,11,12
 429 680 429 680 468.5 659.5 c 128,-1,13
 508 639 508 639 531 600.5 c 128,-1,14
 554 562 554 562 554 512 c 0,15,16
 554 472 554 472 537.5 431.5 c 128,-1,17
 521 391 521 391 490 359 c 1,18,19
 573 299 573 299 573 216 c 0,20,21
 573 147 573 147 536 95 c 128,-1,22
 499 43 499 43 436 15 c 128,-1,23
 373 -13 373 -13 296 -13 c 0,24,0
 227 -13 227 -13 166.5 9.5 c 128,-1,1
388.5 134 m 128,-1,26
 426 163 426 163 426 209 c 0,27,28
 426 254 426 254 389.5 276 c 128,-1,29
 353 298 353 298 305 298 c 0,30,31
 253 298 253 298 215.5 269 c 128,-1,32
 178 240 178 240 178 194 c 0,33,34
 178 149 178 149 214.5 127 c 128,-1,35
 251 105 251 105 299 105 c 0,36,25
 351 105 351 105 388.5 134 c 128,-1,26
412.5 438.5 m 128,-1,38
 437 464 437 464 437 497 c 0,39,40
 437 525 437 525 418 544 c 128,-1,41
 399 563 399 563 370 563 c 0,42,43
 334 563 334 563 310 537.5 c 128,-1,44
 286 512 286 512 286 480 c 0,45,46
 286 452 286 452 304.5 432.5 c 128,-1,47
 323 413 323 413 353 413 c 0,48,37
 388 413 388 413 412.5 438.5 c 128,-1,38
EndSplineSet
Substitution2: "'tnum' Tabular Numbers in Latin lookup 10 subtable" eight.tf
AlternateSubs2: "'aalt' Access All Alternates in Latin lookup 0 subtable" eight.tf
EndChar
StartChar: nine
Encoding: 57 57 238
Width: 570
GlyphClass: 1
Flags: W
LayerCount: 2
Fore
SplineSet
174.5 230 m 128,-1,1
 128 259 128 259 102 306.5 c 128,-1,2
 76 354 76 354 76 411 c 0,3,4
 76 480 76 480 113 541 c 128,-1,5
 150 602 150 602 212.5 639.5 c 128,-1,6
 275 677 275 677 347 677 c 0,7,8
 409 677 409 677 458.5 648.5 c 128,-1,9
 508 620 508 620 536 570.5 c 128,-1,10
 564 521 564 521 564 461 c 0,11,12
 564 404 564 404 539.5 353.5 c 128,-1,13
 515 303 515 303 468 243 c 2,14,-1
 276 0 l 1,15,-1
 117 0 l 1,16,-1
 280 198 l 1,17,0
 221 201 221 201 174.5 230 c 128,-1,1
371 336 m 128,-1,19
 401 353 401 353 419 382.5 c 128,-1,20
 437 412 437 412 437 447 c 0,21,22
 437 493 437 493 407 521.5 c 128,-1,23
 377 550 377 550 334 550 c 0,24,25
 300 550 300 550 270 533 c 128,-1,26
 240 516 240 516 222 486.5 c 128,-1,27
 204 457 204 457 204 422 c 0,28,29
 204 377 204 377 234 348 c 128,-1,30
 264 319 264 319 307 319 c 0,31,18
 341 319 341 319 371 336 c 128,-1,19
EndSplineSet
Substitution2: "'tnum' Tabular Numbers in Latin lookup 10 subtable" nine.tf
AlternateSubs2: "'aalt' Access All Alternates in Latin lookup 0 subtable" nine.tf
EndChar
StartChar: less
Encoding: 60 60 327
Width: 570
GlyphClass: 1
Flags: W
LayerCount: 2
Fore
SplineSet
30 202 m 1,0,-1
 50 296 l 1,1,-1
 585 508 l 1,2,-1
 554 365 l 1,3,-1
 199 242 l 1,4,-1
 502 117 l 1,5,-1
 475 -10 l 1,6,-1
 30 202 l 1,0,-1
EndSplineSet
EndChar
StartChar: equal
Encoding: 61 61 324
Width: 611
GlyphClass: 1
Flags: W
LayerCount: 2
Fore
SplineSet
84 406 m 1,0,-1
 594 406 l 1,1,-1
 568 286 l 1,2,-1
 59 286 l 1,3,-1
 84 406 l 1,0,-1
45 220 m 1,4,-1
 555 220 l 1,5,-1
 529 100 l 1,6,-1
 20 100 l 1,7,-1
 45 220 l 1,4,-1
EndSplineSet
EndChar
StartChar: greater
Encoding: 62 62 326
Width: 570
GlyphClass: 1
Flags: W
LayerCount: 2
Fore
SplineSet
16 132 m 1,0,-1
 371 257 l 1,1,-1
 68 380 l 1,2,-1
 95 508 l 1,3,-1
 540 296 l 1,4,-1
 520 202 l 1,5,-1
 -15 -10 l 1,6,-1
 16 132 l 1,0,-1
EndSplineSet
EndChar
StartChar: question
Encoding: 63 63 265
Width: 549
GlyphClass: 1
Flags: W
LayerCount: 2
Fore
SplineSet
214 354 m 128,-1,1
 246 394 246 394 319 416 c 0,2,3
 378 434 378 434 405.5 454 c 128,-1,4
 433 474 433 474 433 503 c 256,5,6
 433 532 433 532 403 549.5 c 128,-1,7
 373 567 373 567 330 567 c 0,8,9
 286 567 286 567 251 547 c 128,-1,10
 216 527 216 527 195 488 c 1,11,-1
 70 535 l 1,12,13
 95 606 95 606 169 643 c 128,-1,14
 243 680 243 680 333 680 c 0,15,16
 396 680 396 680 453 660.5 c 128,-1,17
 510 641 510 641 545.5 603.5 c 128,-1,18
 581 566 581 566 581 514 c 0,19,20
 581 445 581 445 540 402 c 128,-1,21
 499 359 499 359 415 327 c 0,22,23
 356 305 356 305 334.5 286.5 c 128,-1,24
 313 268 313 268 308 244 c 2,25,-1
 303 226 l 1,26,-1
 160 226 l 1,27,-1
 164 244 l 2,28,0
 182 314 182 314 214 354 c 128,-1,1
136.5 15.5 m 128,-1,30
 109 43 109 43 109 81 c 256,31,32
 109 119 109 119 136.5 146 c 128,-1,33
 164 173 164 173 202 173 c 256,34,35
 240 173 240 173 267 146 c 128,-1,36
 294 119 294 119 294 81 c 256,37,38
 294 43 294 43 267 15.5 c 128,-1,39
 240 -12 240 -12 202 -12 c 256,40,29
 164 -12 164 -12 136.5 15.5 c 128,-1,30
EndSplineSet
EndChar
StartChar: at
Encoding: 64 64 297
Width: 781
GlyphClass: 1
Flags: W
LayerCount: 2
Fore
SplineSet
192 -60.5 m 128,-1,1
 117 -20 117 -20 74 52 c 128,-1,2
 31 124 31 124 31 213 c 0,3,4
 31 319 31 319 85 410 c 128,-1,5
 139 501 139 501 231.5 555 c 128,-1,6
 324 609 324 609 435 609 c 0,7,8
 527 609 527 609 601 571 c 128,-1,9
 675 533 675 533 717.5 466.5 c 128,-1,10
 760 400 760 400 760 319 c 0,11,12
 760 267 760 267 737.5 209.5 c 128,-1,13
 715 152 715 152 670.5 112.5 c 128,-1,14
 626 73 626 73 563 73 c 0,15,16
 526 73 526 73 497.5 91 c 128,-1,17
 469 109 469 109 457 137 c 1,18,19
 429 103 429 103 399 89 c 128,-1,20
 369 75 369 75 335 75 c 0,21,22
 277 75 277 75 240.5 116 c 128,-1,23
 204 157 204 157 204 218 c 0,24,25
 204 274 204 274 230 325 c 128,-1,26
 256 376 256 376 306 407 c 128,-1,27
 356 438 356 438 423 438 c 0,28,29
 494 438 494 438 564 404 c 1,30,-1
 526 228 l 2,31,32
 524 219 524 219 524 203 c 0,33,34
 524 151 524 151 576 151 c 0,35,36
 611 151 611 151 635.5 178.5 c 128,-1,37
 660 206 660 206 672 244.5 c 128,-1,38
 684 283 684 283 684 315 c 0,39,40
 684 377 684 377 650 428 c 128,-1,41
 616 479 616 479 558 508.5 c 128,-1,42
 500 538 500 538 430 538 c 0,43,44
 341 538 341 538 267.5 493.5 c 128,-1,45
 194 449 194 449 152.5 375.5 c 128,-1,46
 111 302 111 302 111 219 c 0,47,48
 111 147 111 147 145.5 90 c 128,-1,49
 180 33 180 33 239 1.5 c 128,-1,50
 298 -30 298 -30 368 -30 c 0,51,52
 426 -30 426 -30 479 -8 c 1,53,-1
 464 -86 l 1,54,55
 413 -101 413 -101 359 -101 c 0,56,0
 267 -101 267 -101 192 -60.5 c 128,-1,1
410.5 184.5 m 128,-1,58
 434 208 434 208 442 242 c 2,59,-1
 463 347 l 1,60,61
 439 355 439 355 411 355 c 0,62,63
 361 355 361 355 333 318 c 128,-1,64
 305 281 305 281 305 232 c 0,65,66
 305 201 305 201 319.5 181 c 128,-1,67
 334 161 334 161 359 161 c 0,68,57
 387 161 387 161 410.5 184.5 c 128,-1,58
EndSplineSet
EndChar
StartChar: A
Encoding: 65 65 2
Width: 680
GlyphClass: 2
Flags: W
AnchorPoint: "Anchor-2" 623 10 basechar 0
AnchorPoint: "Anchor-1" 429 668 basechar 0
AnchorPoint: "Anchor-0" 287 0 basechar 0
LayerCount: 2
Fore
SplineSet
348 668 m 1,0,-1
 510 668 l 1,1,-1
 621 0 l 1,2,-1
 464 0 l 1,3,-1
 448 123 l 1,4,-1
 184 123 l 1,5,-1
 117 0 l 1,6,-1
 -47 0 l 1,7,-1
 348 668 l 1,0,-1
433 244 m 1,8,-1
 399 512 l 1,9,-1
 251 244 l 1,10,-1
 433 244 l 1,8,-1
EndSplineSet
Substitution2: "Single Substitution lookup 15 subtable" ordfeminine
AlternateSubs2: "'aalt' Access All Alternates in Latin lookup 0 subtable" ordfeminine
EndChar
StartChar: B
Encoding: 66 66 13
Width: 643
GlyphClass: 2
Flags: W
AnchorPoint: "Anchor-1" 421 668 basechar 0
AnchorPoint: "Anchor-0" 279 0 basechar 0
LayerCount: 2
Fore
SplineSet
148 668 m 1,0,-1
 403 668 l 2,1,2
 513 668 513 668 578 625.5 c 128,-1,3
 643 583 643 583 643 507 c 0,4,5
 643 447 643 447 609.5 403.5 c 128,-1,6
 576 360 576 360 518 340 c 1,7,8
 557 321 557 321 582 287.5 c 128,-1,9
 607 254 607 254 607 209 c 0,10,11
 607 146 607 146 577 98.5 c 128,-1,12
 547 51 547 51 493.5 25.5 c 128,-1,13
 440 0 440 0 371 0 c 2,14,-1
 6 0 l 1,15,-1
 148 668 l 1,0,-1
428 147.5 m 128,-1,17
 456 172 456 172 456 214 c 0,18,19
 456 248 456 248 430 267 c 128,-1,20
 404 286 404 286 356 286 c 2,21,-1
 215 286 l 1,22,-1
 181 123 l 1,23,-1
 349 123 l 2,24,16
 400 123 400 123 428 147.5 c 128,-1,17
463 423 m 128,-1,26
 488 445 488 445 488 483 c 0,27,28
 488 512 488 512 465 529.5 c 128,-1,29
 442 547 442 547 398 547 c 2,30,-1
 271 547 l 1,31,-1
 240 401 l 1,32,-1
 393 401 l 2,33,25
 438 401 438 401 463 423 c 128,-1,26
EndSplineSet
EndChar
StartChar: C
Encoding: 67 67 14
Width: 660
GlyphClass: 2
Flags: W
AnchorPoint: "Anchor-1" 444 668 basechar 0
AnchorPoint: "Anchor-0" 347 0 basechar 0
LayerCount: 2
Fore
SplineSet
187.5 23 m 128,-1,1
 120 58 120 58 84 122 c 128,-1,2
 48 186 48 186 48 272 c 0,3,4
 48 380 48 380 94 473.5 c 128,-1,5
 140 567 140 567 224.5 623.5 c 128,-1,6
 309 680 309 680 420 680 c 0,7,8
 512 680 512 680 581.5 640 c 128,-1,9
 651 600 651 600 682 521 c 1,10,-1
 552 476 l 1,11,12
 535 514 535 514 499 536 c 128,-1,13
 463 558 463 558 417 558 c 0,14,15
 348 558 348 558 299.5 514 c 128,-1,16
 251 470 251 470 227.5 405.5 c 128,-1,17
 204 341 204 341 204 281 c 0,18,19
 204 205 204 205 244 157.5 c 128,-1,20
 284 110 284 110 360 110 c 0,21,22
 455 110 455 110 503 188 c 1,23,-1
 633 137 l 1,24,25
 583 61 583 61 508.5 24.5 c 128,-1,26
 434 -12 434 -12 347 -12 c 0,27,0
 255 -12 255 -12 187.5 23 c 128,-1,1
EndSplineSet
EndChar
StartChar: D
Encoding: 68 68 19
Width: 689
GlyphClass: 2
Flags: W
AnchorPoint: "Anchor-1" 426 668 basechar 0
AnchorPoint: "Anchor-0" 298 0 basechar 0
LayerCount: 2
Fore
SplineSet
148 668 m 1,0,-1
 307 668 l 2,1,2
 480 668 480 668 578 598.5 c 128,-1,3
 676 529 676 529 676 394 c 0,4,5
 676 300 676 300 641.5 210.5 c 128,-1,6
 607 121 607 121 523 60.5 c 128,-1,7
 439 0 439 0 301 0 c 2,8,-1
 6 0 l 1,9,-1
 148 668 l 1,0,-1
429 160 m 128,-1,11
 476 195 476 195 500 252 c 128,-1,12
 524 309 524 309 524 375 c 0,13,14
 524 545 524 545 309 545 c 2,15,-1
 270 545 l 1,16,-1
 181 125 l 1,17,-1
 314 125 l 2,18,10
 382 125 382 125 429 160 c 128,-1,11
EndSplineSet
EndChar
StartChar: F
Encoding: 70 70 32
Width: 566
GlyphClass: 2
Flags: W
AnchorPoint: "Anchor-1" 371 668 basechar 0
AnchorPoint: "Anchor-0" 229 0 basechar 0
LayerCount: 2
Fore
SplineSet
148 668 m 1,0,-1
 620 668 l 1,1,-1
 592 538 l 1,2,-1
 268 538 l 1,3,-1
 236 383 l 1,4,-1
 555 383 l 1,5,-1
 527 253 l 1,6,-1
 208 253 l 1,7,-1
 154 0 l 1,8,-1
 6 0 l 1,9,-1
 148 668 l 1,0,-1
EndSplineSet
EndChar
StartChar: G
Encoding: 71 71 33
Width: 719
GlyphClass: 2
Flags: W
AnchorPoint: "Anchor-1" 447 668 basechar 0
AnchorPoint: "Anchor-0" 302 0 basechar 0
LayerCount: 2
Fore
SplineSet
176 23 m 128,-1,1
 113 58 113 58 80 121.5 c 128,-1,2
 47 185 47 185 47 269 c 0,3,4
 47 377 47 377 92.5 471 c 128,-1,5
 138 565 138 565 223 622.5 c 128,-1,6
 308 680 308 680 423 680 c 0,7,8
 522 680 522 680 593 638 c 128,-1,9
 664 596 664 596 689 530 c 1,10,-1
 555 485 l 1,11,12
 544 515 544 515 508 536.5 c 128,-1,13
 472 558 472 558 420 558 c 0,14,15
 348 558 348 558 299 513.5 c 128,-1,16
 250 469 250 469 226.5 404 c 128,-1,17
 203 339 203 339 203 278 c 0,18,19
 203 201 203 201 243 155.5 c 128,-1,20
 283 110 283 110 359 110 c 0,21,22
 416 110 416 110 462.5 138 c 128,-1,23
 509 166 509 166 523 234 c 2,24,-1
 527 252 l 1,25,-1
 369 252 l 1,26,-1
 395 373 l 1,27,-1
 700 373 l 1,28,-1
 620 0 l 1,29,-1
 522 0 l 1,30,-1
 518 69 l 1,31,32
 438 -12 438 -12 326 -12 c 0,33,0
 239 -12 239 -12 176 23 c 128,-1,1
EndSplineSet
EndChar
StartChar: H
Encoding: 72 72 37
Width: 702
GlyphClass: 2
Flags: W
AnchorPoint: "Anchor-1" 439 668 basechar 0
AnchorPoint: "Anchor-0" 297 0 basechar 0
LayerCount: 2
Fore
SplineSet
148 668 m 1,0,-1
 296 668 l 1,1,-1
 241 408 l 1,2,-1
 528 408 l 1,3,-1
 583 668 l 1,4,-1
 731 668 l 1,5,-1
 589 0 l 1,6,-1
 441 0 l 1,7,-1
 500 279 l 1,8,-1
 213 279 l 1,9,-1
 154 0 l 1,10,-1
 6 0 l 1,11,-1
 148 668 l 1,0,-1
EndSplineSet
EndChar
StartChar: I
Encoding: 73 73 39
Width: 427
GlyphClass: 2
Flags: W
AnchorPoint: "Anchor-2" 330 10 basechar 0
AnchorPoint: "Anchor-1" 303 668 basechar 0
AnchorPoint: "Anchor-0" 161 0 basechar 0
LayerCount: 2
Fore
SplineSet
17 109 m 1,0,-1
 110 109 l 1,1,-1
 205 559 l 1,2,-1
 112 559 l 1,3,-1
 136 668 l 1,4,-1
 470 668 l 1,5,-1
 446 559 l 1,6,-1
 353 559 l 1,7,-1
 258 109 l 1,8,-1
 351 109 l 1,9,-1
 328 0 l 1,10,-1
 -6 0 l 1,11,-1
 17 109 l 1,0,-1
EndSplineSet
EndChar
StartChar: J
Encoding: 74 74 48
Width: 563
GlyphClass: 2
Flags: W
AnchorPoint: "Anchor-1" 518 668 basechar 0
AnchorPoint: "Anchor-0" 223 0 basechar 0
LayerCount: 2
Fore
SplineSet
68 37 m 128,-1,1
 6 86 6 86 -4 178 c 1,2,-1
 138 226 l 1,3,4
 138 171 138 171 161 138.5 c 128,-1,5
 184 106 184 106 233 106 c 0,6,7
 283 106 283 106 311.5 139.5 c 128,-1,8
 340 173 340 173 353 238 c 2,9,-1
 444 668 l 1,10,-1
 592 668 l 1,11,-1
 498 223 l 2,12,13
 473 108 473 108 403.5 48 c 128,-1,14
 334 -12 334 -12 227 -12 c 0,15,0
 130 -12 130 -12 68 37 c 128,-1,1
EndSplineSet
Substitution2: "Single Substitution lookup 14 subtable" uni004A0301
AlternateSubs2: "'aalt' Access All Alternates in Latin lookup 0 subtable" uni004A0301
EndChar
StartChar: K
Encoding: 75 75 50
Width: 665
GlyphClass: 2
Flags: W
AnchorPoint: "Anchor-1" 427 668 basechar 0
AnchorPoint: "Anchor-0" 285 0 basechar 0
LayerCount: 2
Fore
SplineSet
148 668 m 1,0,-1
 296 668 l 1,1,-1
 238 392 l 1,2,-1
 537 668 l 1,3,-1
 728 668 l 1,4,-1
 399 373 l 1,5,-1
 601 0 l 1,6,-1
 437 0 l 1,7,-1
 292 277 l 1,8,-1
 195 191 l 1,9,-1
 154 0 l 1,10,-1
 6 0 l 1,11,-1
 148 668 l 1,0,-1
EndSplineSet
EndChar
StartChar: L
Encoding: 76 76 52
Width: 552
GlyphClass: 2
Flags: W
AnchorPoint: "Anchor-3" 302 459 basechar 0
AnchorPoint: "Anchor-1" 368 668 basechar 0
AnchorPoint: "Anchor-0" 226 0 basechar 0
LayerCount: 2
Fore
SplineSet
148 668 m 1,0,-1
 296 668 l 1,1,-1
 182 130 l 1,2,-1
 509 130 l 1,3,-1
 481 0 l 1,4,-1
 6 0 l 1,5,-1
 148 668 l 1,0,-1
EndSplineSet
EndChar
StartChar: N
Encoding: 78 78 57
Width: 718
GlyphClass: 2
Flags: W
AnchorPoint: "Anchor-1" 449 668 basechar 0
AnchorPoint: "Anchor-0" 307 0 basechar 0
LayerCount: 2
Fore
SplineSet
148 668 m 1,0,-1
 326 668 l 1,1,-1
 500 175 l 1,2,-1
 605 668 l 1,3,-1
 748 668 l 1,4,-1
 606 0 l 1,5,-1
 427 0 l 1,6,-1
 254 492 l 1,7,-1
 149 0 l 1,8,-1
 6 0 l 1,9,-1
 148 668 l 1,0,-1
EndSplineSet
EndChar
StartChar: O
Encoding: 79 79 62
Width: 746
GlyphClass: 2
Flags: W
AnchorPoint: "Anchor-3" 819 668 basechar 0
AnchorPoint: "Anchor-2" 623 10 basechar 0
AnchorPoint: "Anchor-1" 451 668 basechar 0
AnchorPoint: "Anchor-0" 320 0 basechar 0
LayerCount: 2
Fore
SplineSet
196 24 m 128,-1,1
 126 60 126 60 87.5 126.5 c 128,-1,2
 49 193 49 193 49 281 c 0,3,4
 49 386 49 386 96 477.5 c 128,-1,5
 143 569 143 569 228.5 624.5 c 128,-1,6
 314 680 314 680 426 680 c 0,7,8
 517 680 517 680 586.5 644 c 128,-1,9
 656 608 656 608 694.5 541.5 c 128,-1,10
 733 475 733 475 733 387 c 0,11,12
 733 282 733 282 686.5 190.5 c 128,-1,13
 640 99 640 99 554 43.5 c 128,-1,14
 468 -12 468 -12 357 -12 c 0,15,0
 266 -12 266 -12 196 24 c 128,-1,1
481 153.5 m 128,-1,17
 529 197 529 197 552.5 260.5 c 128,-1,18
 576 324 576 324 576 384 c 0,19,20
 576 462 576 462 535 510 c 128,-1,21
 494 558 494 558 420 558 c 0,22,23
 349 558 349 558 301 514.5 c 128,-1,24
 253 471 253 471 229.5 407.5 c 128,-1,25
 206 344 206 344 206 284 c 0,26,27
 206 206 206 206 247 158 c 128,-1,28
 288 110 288 110 362 110 c 0,29,16
 433 110 433 110 481 153.5 c 128,-1,17
EndSplineSet
Substitution2: "Single Substitution lookup 15 subtable" ordmasculine
AlternateSubs2: "'aalt' Access All Alternates in Latin lookup 0 subtable" ordmasculine
EndChar
StartChar: P
Encoding: 80 80 71
Width: 630
GlyphClass: 2
Flags: W
AnchorPoint: "Anchor-1" 414 668 basechar 0
AnchorPoint: "Anchor-0" 272 0 basechar 0
LayerCount: 2
Fore
SplineSet
148 668 m 1,0,-1
 407 668 l 2,1,2
 517 668 517 668 585 617 c 128,-1,3
 653 566 653 566 653 478 c 0,4,5
 653 404 653 404 619 349.5 c 128,-1,6
 585 295 585 295 524.5 265.5 c 128,-1,7
 464 236 464 236 386 236 c 2,8,-1
 205 236 l 1,9,-1
 154 0 l 1,10,-1
 6 0 l 1,11,-1
 148 668 l 1,0,-1
465 387.5 m 128,-1,13
 496 414 496 414 496 465 c 0,14,15
 496 502 496 502 469.5 522 c 128,-1,16
 443 542 443 542 397 542 c 2,17,-1
 270 542 l 1,18,-1
 231 361 l 1,19,-1
 375 361 l 2,20,12
 434 361 434 361 465 387.5 c 128,-1,13
EndSplineSet
EndChar
StartChar: Q
Encoding: 81 81 73
Width: 758
GlyphClass: 1
Flags: W
LayerCount: 2
Fore
SplineSet
196 24 m 128,-1,1
 126 60 126 60 87.5 126.5 c 128,-1,2
 49 193 49 193 49 281 c 0,3,4
 49 386 49 386 96 477.5 c 128,-1,5
 143 569 143 569 228.5 624.5 c 128,-1,6
 314 680 314 680 426 680 c 0,7,8
 517 680 517 680 586.5 644 c 128,-1,9
 656 608 656 608 694.5 541.5 c 128,-1,10
 733 475 733 475 733 387 c 0,11,12
 733 311 733 311 708 241 c 128,-1,13
 683 171 683 171 637 116 c 1,14,-1
 714 22 l 1,15,-1
 626 -53 l 1,16,-1
 548 40 l 1,17,18
 463 -12 463 -12 357 -12 c 0,19,0
 266 -12 266 -12 196 24 c 128,-1,1
465 142 m 1,21,-1
 343 291 l 1,22,-1
 431 367 l 1,23,-1
 541 233 l 1,24,25
 558 268 558 268 567 308 c 128,-1,26
 576 348 576 348 576 384 c 0,27,28
 576 462 576 462 535 510 c 128,-1,29
 494 558 494 558 420 558 c 0,30,31
 349 558 349 558 301 514.5 c 128,-1,32
 253 471 253 471 229.5 407.5 c 128,-1,33
 206 344 206 344 206 284 c 0,34,35
 206 206 206 206 247 158 c 128,-1,36
 288 110 288 110 362 110 c 0,37,20
 420 110 420 110 465 142 c 1,21,-1
EndSplineSet
EndChar
StartChar: R
Encoding: 82 82 74
Width: 651
GlyphClass: 2
Flags: W
AnchorPoint: "Anchor-1" 400 668 basechar 0
AnchorPoint: "Anchor-0" 282 0 basechar 0
LayerCount: 2
Fore
SplineSet
148 668 m 1,0,-1
 422 668 l 2,1,2
 527 668 527 668 591 620.5 c 128,-1,3
 655 573 655 573 655 489 c 0,4,5
 655 394 655 394 597.5 332 c 128,-1,6
 540 270 540 270 443 259 c 1,7,-1
 586 0 l 1,8,-1
 424 0 l 1,9,-1
 290 254 l 1,10,-1
 208 254 l 1,11,-1
 154 0 l 1,12,-1
 6 0 l 1,13,-1
 148 668 l 1,0,-1
470.5 403.5 m 128,-1,15
 499 427 499 427 499 472 c 0,16,17
 499 506 499 506 474.5 524 c 128,-1,18
 450 542 450 542 409 542 c 2,19,-1
 269 542 l 1,20,-1
 235 380 l 1,21,-1
 392 380 l 2,22,14
 442 380 442 380 470.5 403.5 c 128,-1,15
EndSplineSet
EndChar
StartChar: S
Encoding: 83 83 77
Width: 611
GlyphClass: 2
Flags: W
AnchorPoint: "Anchor-1" 393 668 basechar 0
AnchorPoint: "Anchor-0" 289 0 basechar 0
LayerCount: 2
Fore
SplineSet
113.5 31.5 m 128,-1,1
 39 75 39 75 16 160 c 1,2,-1
 153 204 l 1,3,4
 162 158 162 158 205.5 133 c 128,-1,5
 249 108 249 108 307 108 c 0,6,7
 358 108 358 108 392.5 129 c 128,-1,8
 427 150 427 150 427 192 c 0,9,10
 427 218 427 218 403 236 c 128,-1,11
 379 254 379 254 324 272 c 2,12,-1
 247 298 l 2,13,14
 176 322 176 322 132.5 364 c 128,-1,15
 89 406 89 406 89 467 c 0,16,17
 89 532 89 532 128 580.5 c 128,-1,18
 167 629 167 629 231 654.5 c 128,-1,19
 295 680 295 680 369 680 c 0,20,21
 457 680 457 680 524.5 642.5 c 128,-1,22
 592 605 592 605 615 533 c 1,23,-1
 482 487 l 1,24,25
 468 524 468 524 431 542.5 c 128,-1,26
 394 561 394 561 346 561 c 0,27,28
 300 561 300 561 268.5 542.5 c 128,-1,29
 237 524 237 524 237 488 c 0,30,31
 237 444 237 444 306 421 c 2,32,-1
 391 393 l 2,33,34
 475 364 475 364 525.5 324 c 128,-1,35
 576 284 576 284 576 216 c 256,36,37
 576 148 576 148 537 96 c 128,-1,38
 498 44 498 44 432.5 16 c 128,-1,39
 367 -12 367 -12 289 -12 c 0,40,0
 188 -12 188 -12 113.5 31.5 c 128,-1,1
EndSplineSet
EndChar
StartChar: T
Encoding: 84 84 83
Width: 609
GlyphClass: 2
Flags: W
AnchorPoint: "Anchor-1" 394 668 basechar 0
AnchorPoint: "Anchor-0" 252 0 basechar 0
LayerCount: 2
Fore
SplineSet
292 538 m 1,0,-1
 76 538 l 1,1,-1
 104 668 l 1,2,-1
 684 668 l 1,3,-1
 656 538 l 1,4,-1
 440 538 l 1,5,-1
 326 0 l 1,6,-1
 178 0 l 1,7,-1
 292 538 l 1,0,-1
EndSplineSet
EndChar
StartChar: U
Encoding: 85 85 87
Width: 686
GlyphClass: 2
Flags: W
AnchorPoint: "Anchor-3" 744 668 basechar 0
AnchorPoint: "Anchor-2" 519 10 basechar 0
AnchorPoint: "Anchor-1" 431 668 basechar 0
AnchorPoint: "Anchor-0" 290 0 basechar 0
LayerCount: 2
Fore
SplineSet
133.5 36.5 m 128,-1,1
 58 85 58 85 58 206 c 0,2,3
 58 254 58 254 71 310 c 2,4,-1
 147 668 l 1,5,-1
 295 668 l 1,6,-1
 214 279 l 2,7,8
 207 247 207 247 207 217 c 0,9,10
 207 162 207 162 239 136 c 128,-1,11
 271 110 271 110 338 110 c 0,12,13
 401 110 401 110 433.5 148 c 128,-1,14
 466 186 466 186 483 264 c 2,15,-1
 569 668 l 1,16,-1
 717 668 l 1,17,-1
 630 260 l 2,18,19
 600 120 600 120 530.5 54 c 128,-1,20
 461 -12 461 -12 332 -12 c 0,21,0
 209 -12 209 -12 133.5 36.5 c 128,-1,1
EndSplineSet
EndChar
StartChar: V
Encoding: 86 86 96
Width: 646
GlyphClass: 2
Flags: W
AnchorPoint: "Anchor-1" 411 668 basechar 0
AnchorPoint: "Anchor-0" 269 0 basechar 0
LayerCount: 2
Fore
SplineSet
99 668 m 1,0,-1
 247 668 l 1,1,-1
 300 165 l 1,2,-1
 567 668 l 1,3,-1
 725 668 l 1,4,-1
 354 0 l 1,5,-1
 184 0 l 1,6,-1
 99 668 l 1,0,-1
EndSplineSet
EndChar
StartChar: W
Encoding: 87 87 97
Width: 887
GlyphClass: 2
Flags: W
AnchorPoint: "Anchor-1" 533 668 basechar 0
AnchorPoint: "Anchor-0" 392 0 basechar 0
LayerCount: 2
Fore
SplineSet
104 668 m 1,0,-1
 247 668 l 1,1,-1
 244 191 l 1,2,-1
 453 668 l 1,3,-1
 604 668 l 1,4,-1
 611 191 l 1,5,-1
 810 668 l 1,6,-1
 961 668 l 1,7,-1
 657 0 l 1,8,-1
 500 0 l 1,9,-1
 492 478 l 1,10,-1
 283 0 l 1,11,-1
 125 0 l 1,12,-1
 104 668 l 1,0,-1
EndSplineSet
EndChar
StartChar: X
Encoding: 88 88 102
Width: 687
GlyphClass: 2
Flags: W
AnchorPoint: "Anchor-1" 433 668 basechar 0
AnchorPoint: "Anchor-0" 291 0 basechar 0
LayerCount: 2
Fore
SplineSet
275 344 m 1,0,-1
 113 668 l 1,1,-1
 285 668 l 1,2,-1
 385 466 l 1,3,-1
 572 668 l 1,4,-1
 752 668 l 1,5,-1
 453 341 l 1,6,-1
 624 0 l 1,7,-1
 452 0 l 1,8,-1
 341 222 l 1,9,-1
 138 0 l 1,10,-1
 -43 0 l 1,11,-1
 275 344 l 1,0,-1
EndSplineSet
EndChar
StartChar: Y
Encoding: 89 89 103
Width: 653
GlyphClass: 2
Flags: W
AnchorPoint: "Anchor-1" 411 668 basechar 0
AnchorPoint: "Anchor-0" 274 0 basechar 0
LayerCount: 2
Fore
SplineSet
255 263 m 1,0,-1
 89 668 l 1,1,-1
 256 668 l 1,2,-1
 352 404 l 1,3,-1
 562 668 l 1,4,-1
 742 668 l 1,5,-1
 403 264 l 1,6,-1
 348 0 l 1,7,-1
 200 0 l 1,8,-1
 255 263 l 1,0,-1
EndSplineSet
EndChar
StartChar: Z
Encoding: 90 90 108
Width: 619
GlyphClass: 2
Flags: W
AnchorPoint: "Anchor-1" 399 668 basechar 0
AnchorPoint: "Anchor-0" 257 0 basechar 0
LayerCount: 2
Fore
SplineSet
6 115 m 1,0,-1
 431 538 l 1,1,-1
 110 538 l 1,2,-1
 138 668 l 1,3,-1
 659 668 l 1,4,-1
 635 553 l 1,5,-1
 212 130 l 1,6,-1
 560 130 l 1,7,-1
 532 0 l 1,8,-1
 -19 0 l 1,9,-1
 6 115 l 1,0,-1
EndSplineSet
EndChar
StartChar: bracketleft
Encoding: 91 91 281
Width: 341
GlyphClass: 1
Flags: W
LayerCount: 2
Fore
SplineSet
157 708 m 1,0,-1
 406 708 l 1,1,-1
 382 599 l 1,2,-1
 256 599 l 1,3,-1
 118 -53 l 1,4,-1
 244 -53 l 1,5,-1
 222 -162 l 1,6,-1
 -27 -162 l 1,7,-1
 157 708 l 1,0,-1
EndSplineSet
EndChar
StartChar: backslash
Encoding: 92 92 272
Width: 437
GlyphClass: 1
Flags: W
LayerCount: 2
Fore
SplineSet
213 -90 m 1,0,-1
 118 708 l 1,1,-1
 251 708 l 1,2,-1
 345 -90 l 1,3,-1
 213 -90 l 1,0,-1
EndSplineSet
EndChar
StartChar: bracketright
Encoding: 93 93 282
Width: 341
GlyphClass: 1
Flags: W
LayerCount: 2
Fore
SplineSet
-30 -53 m 1,0,-1
 96 -53 l 1,1,-1
 234 599 l 1,2,-1
 107 599 l 1,3,-1
 130 708 l 1,4,-1
 378 708 l 1,5,-1
 194 -162 l 1,6,-1
 -54 -162 l 1,7,-1
 -30 -53 l 1,0,-1
EndSplineSet
EndChar
StartChar: asciicircum
Encoding: 94 94 334
Width: 583
GlyphClass: 1
Flags: W
LayerCount: 2
Fore
SplineSet
327 668 m 1,0,-1
 434 668 l 1,1,-1
 543 311 l 1,2,-1
 414 311 l 1,3,-1
 354 517 l 1,4,-1
 205 311 l 1,5,-1
 66 311 l 1,6,-1
 327 668 l 1,0,-1
EndSplineSet
EndChar
StartChar: a
Encoding: 97 97 112
Width: 553
GlyphClass: 2
Flags: W
AnchorPoint: "Anchor-2" 460 10 basechar 0
AnchorPoint: "Anchor-1" 315 496 basechar 0
AnchorPoint: "Anchor-0" 221 0 basechar 0
LayerCount: 2
Fore
SplineSet
44 23 m 128,-1,1
 -1 58 -1 58 -1 119 c 0,2,3
 -1 215 -1 215 90 261.5 c 128,-1,4
 181 308 181 308 372 307 c 1,5,-1
 375 320 l 2,6,7
 378 334 378 334 378 344 c 0,8,9
 378 377 378 377 354.5 394.5 c 128,-1,10
 331 412 331 412 291 412 c 0,11,12
 256 412 256 412 229.5 397 c 128,-1,13
 203 382 203 382 193 353 c 1,14,-1
 72 395 l 1,15,16
 104 454 104 454 165 481.5 c 128,-1,17
 226 509 226 509 297 509 c 0,18,19
 396 509 396 509 452 467 c 128,-1,20
 508 425 508 425 508 344 c 0,21,22
 508 319 508 319 502 289 c 2,23,-1
 481 187 l 2,24,25
 469 133 469 133 463 82.5 c 128,-1,26
 457 32 457 32 458 0 c 1,27,-1
 327 0 l 1,28,-1
 323 60 l 1,29,30
 258 -12 258 -12 154 -12 c 0,31,0
 89 -12 89 -12 44 23 c 128,-1,1
301 115 m 128,-1,33
 336 144 336 144 350 207 c 2,34,-1
 353 221 l 1,35,36
 248 221 248 221 198.5 201.5 c 128,-1,37
 149 182 149 182 149 141 c 0,38,39
 149 115 149 115 169 100.5 c 128,-1,40
 189 86 189 86 218 86 c 0,41,32
 266 86 266 86 301 115 c 128,-1,33
EndSplineSet
Substitution2: "Single Substitution lookup 15 subtable" ordfeminine
AlternateSubs2: "'aalt' Access All Alternates in Latin lookup 0 subtable" ordfeminine
EndChar
StartChar: b
Encoding: 98 98 123
Width: 597
GlyphClass: 2
Flags: W
AnchorPoint: "Anchor-1" 352 496 basechar 0
AnchorPoint: "Anchor-0" 247 0 basechar 0
LayerCount: 2
Fore
SplineSet
217.5 12.5 m 128,-1,1
 176 37 176 37 163 79 c 1,2,-1
 125 0 l 1,3,-1
 3 0 l 1,4,-1
 154 708 l 1,5,-1
 295 708 l 1,6,-1
 237 436 l 1,7,8
 266 471 266 471 307.5 490 c 128,-1,9
 349 509 349 509 394 509 c 256,10,11
 439 509 439 509 480 486.5 c 128,-1,12
 521 464 521 464 546.5 417.5 c 128,-1,13
 572 371 572 371 572 304 c 0,14,15
 572 232 572 232 542 159 c 128,-1,16
 512 86 512 86 452.5 37 c 128,-1,17
 393 -12 393 -12 310 -12 c 0,18,0
 259 -12 259 -12 217.5 12.5 c 128,-1,1
359.5 130.5 m 128,-1,20
 392 162 392 162 408 206 c 128,-1,21
 424 250 424 250 424 287 c 0,22,23
 424 338 424 338 399 368 c 128,-1,24
 374 398 374 398 329 398 c 0,25,26
 283 398 283 398 251 366 c 128,-1,27
 219 334 219 334 203.5 289 c 128,-1,28
 188 244 188 244 188 207 c 0,29,30
 188 155 188 155 213 127 c 128,-1,31
 238 99 238 99 280 99 c 0,32,19
 327 99 327 99 359.5 130.5 c 128,-1,20
EndSplineSet
EndChar
StartChar: c
Encoding: 99 99 124
Width: 511
GlyphClass: 2
Flags: W
AnchorPoint: "Anchor-1" 327 496 basechar 0
AnchorPoint: "Anchor-0" 239 0 basechar 0
LayerCount: 2
Fore
SplineSet
87.5 45.5 m 128,-1,1
 27 103 27 103 27 201 c 0,2,3
 27 284 27 284 62 354.5 c 128,-1,4
 97 425 97 425 160.5 467 c 128,-1,5
 224 509 224 509 308 509 c 0,6,7
 383 509 383 509 438.5 475.5 c 128,-1,8
 494 442 494 442 517 379 c 1,9,-1
 397 338 l 1,10,11
 388 368 388 368 365.5 383 c 128,-1,12
 343 398 343 398 310 398 c 0,13,14
 262 398 262 398 230.5 367 c 128,-1,15
 199 336 199 336 184.5 292 c 128,-1,16
 170 248 170 248 170 208 c 0,17,18
 170 157 170 157 194.5 128 c 128,-1,19
 219 99 219 99 268 99 c 0,20,21
 333 99 333 99 363 149 c 1,22,-1
 478 101 l 1,23,24
 436 39 436 39 380.5 13.5 c 128,-1,25
 325 -12 325 -12 254 -12 c 0,26,0
 148 -12 148 -12 87.5 45.5 c 128,-1,1
EndSplineSet
EndChar
StartChar: d
Encoding: 100 100 129
Width: 596
GlyphClass: 2
Flags: W
AnchorPoint: "Anchor-3" 619 496 basechar 0
AnchorPoint: "Anchor-1" 413 796 basechar 0
AnchorPoint: "Anchor-0" 244 0 basechar 0
LayerCount: 2
Fore
SplineSet
117 10.5 m 128,-1,1
 76 33 76 33 50.5 79.5 c 128,-1,2
 25 126 25 126 25 193 c 0,3,4
 25 264 25 264 55 337.5 c 128,-1,5
 85 411 85 411 144.5 460 c 128,-1,6
 204 509 204 509 287 509 c 0,7,8
 338 509 338 509 379 485.5 c 128,-1,9
 420 462 420 462 435 422 c 1,10,-1
 497 708 l 1,11,-1
 638 708 l 1,12,-1
 529 195 l 2,13,14
 506 83 506 83 504 0 c 1,15,-1
 370 0 l 1,16,-1
 365 63 l 1,17,18
 335 27 335 27 291.5 7.5 c 128,-1,19
 248 -12 248 -12 204 -12 c 0,20,0
 158 -12 158 -12 117 10.5 c 128,-1,1
345 130.5 m 128,-1,22
 377 162 377 162 393 207 c 128,-1,23
 409 252 409 252 409 290 c 0,24,25
 409 342 409 342 384.5 370 c 128,-1,26
 360 398 360 398 318 398 c 0,27,28
 271 398 271 398 238.5 367 c 128,-1,29
 206 336 206 336 190 292 c 128,-1,30
 174 248 174 248 174 210 c 0,31,32
 174 159 174 159 199 129 c 128,-1,33
 224 99 224 99 267 99 c 0,34,21
 313 99 313 99 345 130.5 c 128,-1,22
EndSplineSet
EndChar
StartChar: e
Encoding: 101 101 133
Width: 564
GlyphClass: 2
Flags: W
AnchorPoint: "Anchor-2" 442 10 basechar 0
AnchorPoint: "Anchor-1" 338 496 basechar 0
AnchorPoint: "Anchor-0" 233 0 basechar 0
LayerCount: 2
Fore
SplineSet
143 16 m 128,-1,1
 89 44 89 44 59 94.5 c 128,-1,2
 29 145 29 145 29 211 c 0,3,4
 29 292 29 292 66.5 360.5 c 128,-1,5
 104 429 104 429 170.5 469 c 128,-1,6
 237 509 237 509 319 509 c 0,7,8
 386 509 386 509 437 480.5 c 128,-1,9
 488 452 488 452 516 401.5 c 128,-1,10
 544 351 544 351 544 286 c 0,11,12
 544 250 544 250 535 211 c 1,13,-1
 163 211 l 1,14,15
 165 157 165 157 196.5 128 c 128,-1,16
 228 99 228 99 281 99 c 0,17,18
 351 99 351 99 381 138 c 1,19,-1
 495 91 l 1,20,21
 453 40 453 40 394 14 c 128,-1,22
 335 -12 335 -12 269 -12 c 0,23,0
 197 -12 197 -12 143 16 c 128,-1,1
393.5 375 m 128,-1,25
 364 402 364 402 315 402 c 0,26,27
 262 402 262 402 228 373 c 128,-1,28
 194 344 194 344 177 299 c 1,29,-1
 421 299 l 1,30,24
 423 348 423 348 393.5 375 c 128,-1,25
EndSplineSet
EndChar
StartChar: f
Encoding: 102 102 142
Width: 367
GlyphClass: 2
Flags: W
AnchorPoint: "Anchor-1" 296 796 basechar 0
AnchorPoint: "Anchor-0" 127 0 basechar 0
LayerCount: 2
Fore
SplineSet
124 388 m 1,0,-1
 41 388 l 1,1,-1
 65 496 l 1,2,-1
 146 496 l 1,3,-1
 166 587 l 2,4,5
 178 642 178 642 200 670 c 128,-1,6
 222 698 222 698 254.5 708 c 128,-1,7
 287 718 287 718 337 718 c 2,8,-1
 441 718 l 1,9,-1
 417 606 l 1,10,-1
 375 606 l 2,11,12
 337 606 337 606 322.5 597 c 128,-1,13
 308 588 308 588 302 559 c 2,14,-1
 287 496 l 1,15,-1
 395 496 l 1,16,-1
 371 388 l 1,17,-1
 265 388 l 1,18,-1
 182 0 l 1,19,-1
 41 0 l 1,20,-1
 124 388 l 1,0,-1
EndSplineSet
EndChar
StartChar: g
Encoding: 103 103 143
Width: 596
GlyphClass: 2
Flags: W
AnchorPoint: "Anchor-1" 348 496 basechar 0
AnchorPoint: "Anchor-0" 194 -251 basechar 0
LayerCount: 2
Fore
SplineSet
93.5 -167.5 m 128,-1,1
 35 -134 35 -134 20 -83 c 1,2,-1
 135 -39 l 1,3,4
 146 -64 146 -64 173.5 -78.5 c 128,-1,5
 201 -93 201 -93 238 -93 c 0,6,7
 330 -93 330 -93 349 -1 c 2,8,-1
 367 88 l 1,9,10
 306 17 306 17 209 17 c 0,11,12
 157 17 157 17 116.5 43.5 c 128,-1,13
 76 70 76 70 53.5 116 c 128,-1,14
 31 162 31 162 31 220 c 0,15,16
 31 295 31 295 63 361.5 c 128,-1,17
 95 428 95 428 153 469 c 128,-1,18
 211 510 211 510 285 510 c 0,19,20
 335 510 335 510 375.5 487 c 128,-1,21
 416 464 416 464 437 420 c 1,22,-1
 474 496 l 1,23,-1
 595 496 l 1,24,-1
 491 8 l 2,25,26
 446 -201 446 -201 236 -201 c 0,27,0
 152 -201 152 -201 93.5 -167.5 c 128,-1,1
355.5 153.5 m 128,-1,29
 385 180 385 180 399 218.5 c 128,-1,30
 413 257 413 257 413 293 c 0,31,32
 413 341 413 341 387 369.5 c 128,-1,33
 361 398 361 398 314 398 c 256,34,35
 267 398 267 398 236.5 371.5 c 128,-1,36
 206 345 206 345 192.5 306.5 c 128,-1,37
 179 268 179 268 179 233 c 0,38,39
 179 184 179 184 206.5 155.5 c 128,-1,40
 234 127 234 127 282 127 c 0,41,28
 326 127 326 127 355.5 153.5 c 128,-1,29
EndSplineSet
EndChar
StartChar: h
Encoding: 104 104 147
Width: 573
GlyphClass: 2
Flags: W
AnchorPoint: "Anchor-1" 404 796 basechar 0
AnchorPoint: "Anchor-0" 235 0 basechar 0
LayerCount: 2
Fore
SplineSet
154 708 m 1,0,-1
 295 708 l 1,1,-1
 237 429 l 1,2,3
 260 463 260 463 302 486 c 128,-1,4
 344 509 344 509 396 509 c 0,5,6
 464 509 464 509 501 472.5 c 128,-1,7
 538 436 538 436 538 369 c 0,8,9
 538 340 538 340 530 302 c 2,10,-1
 466 0 l 1,11,-1
 325 0 l 1,12,-1
 385 281 l 2,13,14
 390 301 390 301 390 325 c 0,15,16
 390 398 390 398 324 398 c 0,17,18
 275 398 275 398 244.5 362.5 c 128,-1,19
 214 327 214 327 200 256 c 2,20,-1
 145 0 l 1,21,-1
 4 0 l 1,22,-1
 154 708 l 1,0,-1
EndSplineSet
EndChar
StartChar: k
Encoding: 107 107 161
Width: 558
GlyphClass: 2
Flags: W
AnchorPoint: "Anchor-1" 398 796 basechar 0
AnchorPoint: "Anchor-0" 229 0 basechar 0
LayerCount: 2
Fore
SplineSet
154 708 m 1,0,-1
 295 708 l 1,1,-1
 209 302 l 1,2,-1
 414 496 l 1,3,-1
 589 496 l 1,4,-1
 346 278 l 1,5,-1
 500 0 l 1,6,-1
 343 0 l 1,7,-1
 243 188 l 1,8,-1
 172 124 l 1,9,-1
 145 0 l 1,10,-1
 4 0 l 1,11,-1
 154 708 l 1,0,-1
EndSplineSet
EndChar
StartChar: l
Encoding: 108 108 163
Width: 320
GlyphClass: 2
Flags: W
AnchorPoint: "Anchor-3" 273 497 basechar 0
AnchorPoint: "Anchor-1" 268 796 basechar 0
AnchorPoint: "Anchor-0" 100 0 basechar 0
LayerCount: 2
Fore
SplineSet
62.5 21.5 m 128,-1,1
 25 43 25 43 25 94 c 0,2,3
 25 113 25 113 32 150 c 2,4,-1
 151 708 l 1,5,-1
 292 708 l 1,6,-1
 178 179 l 2,7,8
 175 164 175 164 175 153 c 0,9,10
 175 131 175 131 189 123.5 c 128,-1,11
 203 116 203 116 237 116 c 2,12,-1
 273 116 l 1,13,-1
 248 0 l 1,14,-1
 190 0 l 2,15,0
 100 0 100 0 62.5 21.5 c 128,-1,1
EndSplineSet
EndChar
StartChar: m
Encoding: 109 109 167
Width: 884
GlyphClass: 2
Flags: W
AnchorPoint: "Anchor-1" 494 496 basechar 0
AnchorPoint: "Anchor-0" 388 0 basechar 0
LayerCount: 2
Fore
SplineSet
109 496 m 1,0,-1
 231 496 l 1,1,-1
 236 429 l 1,2,3
 259 464 259 464 300.5 486.5 c 128,-1,4
 342 509 342 509 393 509 c 0,5,6
 446 509 446 509 480.5 486.5 c 128,-1,7
 515 464 515 464 527 420 c 1,8,9
 564 466 564 466 609.5 487.5 c 128,-1,10
 655 509 655 509 710 509 c 0,11,12
 776 509 776 509 812.5 472.5 c 128,-1,13
 849 436 849 436 849 368 c 0,14,15
 849 340 849 340 841 302 c 2,16,-1
 777 0 l 1,17,-1
 635 0 l 1,18,-1
 695 281 l 2,19,20
 701 307 701 307 701 327 c 0,21,22
 701 361 701 361 685.5 379.5 c 128,-1,23
 670 398 670 398 638 398 c 0,24,25
 545 398 545 398 515 256 c 2,26,-1
 461 0 l 1,27,-1
 319 0 l 1,28,-1
 379 281 l 2,29,30
 384 308 384 308 384 325 c 0,31,32
 384 359 384 359 368.5 378.5 c 128,-1,33
 353 398 353 398 321 398 c 0,34,35
 229 398 229 398 200 256 c 2,36,-1
 145 0 l 1,37,-1
 4 0 l 1,38,-1
 109 496 l 1,0,-1
EndSplineSet
EndChar
StartChar: n
Encoding: 110 110 168
Width: 573
GlyphClass: 2
Flags: W
AnchorPoint: "Anchor-1" 341 496 basechar 0
AnchorPoint: "Anchor-0" 236 0 basechar 0
LayerCount: 2
Fore
SplineSet
109 496 m 1,0,-1
 231 496 l 1,1,-1
 236 429 l 1,2,3
 260 463 260 463 302 486 c 128,-1,4
 344 509 344 509 396 509 c 0,5,6
 463 509 463 509 500.5 472.5 c 128,-1,7
 538 436 538 436 538 368 c 0,8,9
 538 340 538 340 530 302 c 2,10,-1
 466 0 l 1,11,-1
 324 0 l 1,12,-1
 384 281 l 2,13,14
 390 305 390 305 390 327 c 0,15,16
 390 398 390 398 325 398 c 0,17,18
 276 398 276 398 245.5 362 c 128,-1,19
 215 326 215 326 200 256 c 2,20,-1
 145 0 l 1,21,-1
 4 0 l 1,22,-1
 109 496 l 1,0,-1
EndSplineSet
EndChar
StartChar: o
Encoding: 111 111 173
Width: 576
GlyphClass: 2
Flags: W
AnchorPoint: "Anchor-3" 605 496 basechar 0
AnchorPoint: "Anchor-2" 466 10 basechar 0
AnchorPoint: "Anchor-1" 335 496 basechar 0
AnchorPoint: "Anchor-0" 235 0 basechar 0
LayerCount: 2
Fore
SplineSet
140.5 14.5 m 128,-1,1
 88 41 88 41 58.5 91 c 128,-1,2
 29 141 29 141 29 209 c 0,3,4
 29 290 29 290 64.5 358.5 c 128,-1,5
 100 427 100 427 165.5 468 c 128,-1,6
 231 509 231 509 316 509 c 0,7,8
 384 509 384 509 436.5 482.5 c 128,-1,9
 489 456 489 456 518.5 406 c 128,-1,10
 548 356 548 356 548 288 c 0,11,12
 548 207 548 207 512.5 138.5 c 128,-1,13
 477 70 477 70 411.5 29 c 128,-1,14
 346 -12 346 -12 260 -12 c 0,15,0
 193 -12 193 -12 140.5 14.5 c 128,-1,1
344 129.5 m 128,-1,17
 375 160 375 160 389.5 203.5 c 128,-1,18
 404 247 404 247 404 287 c 0,19,20
 404 338 404 338 381.5 368 c 128,-1,21
 359 398 359 398 311 398 c 256,22,23
 263 398 263 398 232 367.5 c 128,-1,24
 201 337 201 337 186.5 293.5 c 128,-1,25
 172 250 172 250 172 210 c 0,26,27
 172 160 172 160 195 129.5 c 128,-1,28
 218 99 218 99 265 99 c 0,29,16
 313 99 313 99 344 129.5 c 128,-1,17
EndSplineSet
Substitution2: "Single Substitution lookup 15 subtable" ordmasculine
AlternateSubs2: "'aalt' Access All Alternates in Latin lookup 0 subtable" ordmasculine
EndChar
StartChar: q
Encoding: 113 113 184
Width: 599
GlyphClass: 2
Flags: W
AnchorPoint: "Anchor-1" 352 496 basechar 0
AnchorPoint: "Anchor-0" 246 0 basechar 0
LayerCount: 2
Fore
SplineSet
380 -142 m 128,-1,1
 340 -110 340 -110 340 -52 c 0,2,3
 340 -32 340 -32 347 1 c 2,4,-1
 359 56 l 1,5,6
 326 22 326 22 286.5 5 c 128,-1,7
 247 -12 247 -12 204 -12 c 0,8,9
 158 -12 158 -12 117 10.5 c 128,-1,10
 76 33 76 33 50.5 79.5 c 128,-1,11
 25 126 25 126 25 193 c 0,12,13
 25 264 25 264 55 337.5 c 128,-1,14
 85 411 85 411 144 460 c 128,-1,15
 203 509 203 509 285 509 c 0,16,17
 337 509 337 509 378.5 486 c 128,-1,18
 420 463 420 463 436 422 c 1,19,-1
 472 496 l 1,20,-1
 593 496 l 1,21,-1
 495 30 l 2,22,23
 490 8 490 8 490 -5 c 0,24,25
 490 -27 490 -27 504 -38 c 128,-1,26
 518 -49 518 -49 553 -49 c 0,27,28
 570 -49 570 -49 603 -44 c 1,29,-1
 577 -166 l 1,30,31
 565 -169 565 -169 544 -171.5 c 128,-1,32
 523 -174 523 -174 504 -174 c 0,33,0
 420 -174 420 -174 380 -142 c 128,-1,1
345 130.5 m 128,-1,35
 377 162 377 162 393 207 c 128,-1,36
 409 252 409 252 409 290 c 0,37,38
 409 342 409 342 384.5 370 c 128,-1,39
 360 398 360 398 318 398 c 0,40,41
 271 398 271 398 238.5 367 c 128,-1,42
 206 336 206 336 190 292 c 128,-1,43
 174 248 174 248 174 210 c 0,44,45
 174 159 174 159 199 129 c 128,-1,46
 224 99 224 99 267 99 c 0,47,34
 313 99 313 99 345 130.5 c 128,-1,35
EndSplineSet
EndChar
StartChar: r
Encoding: 114 114 185
Width: 377
GlyphClass: 2
Flags: W
AnchorPoint: "Anchor-1" 256 496 basechar 0
AnchorPoint: "Anchor-0" 133 0 basechar 0
LayerCount: 2
Fore
SplineSet
109 496 m 1,0,-1
 220 496 l 1,1,-1
 225 405 l 1,2,3
 256 458 256 458 307 484.5 c 128,-1,4
 358 511 358 511 416 509 c 1,5,-1
 386 370 l 1,6,7
 377 371 377 371 360 371 c 0,8,9
 295 371 295 371 252 336 c 128,-1,10
 209 301 209 301 194 232 c 2,11,-1
 145 0 l 1,12,-1
 3 0 l 1,13,-1
 109 496 l 1,0,-1
EndSplineSet
EndChar
StartChar: s
Encoding: 115 115 188
Width: 510
GlyphClass: 2
Flags: W
AnchorPoint: "Anchor-1" 301 496 basechar 0
AnchorPoint: "Anchor-0" 224 0 basechar 0
LayerCount: 2
Fore
SplineSet
93.5 20 m 128,-1,1
 25 53 25 53 1 118 c 1,2,-1
 122 159 l 1,3,4
 130 126 130 126 165 108.5 c 128,-1,5
 200 91 200 91 244 91 c 0,6,7
 279 91 279 91 306.5 103.5 c 128,-1,8
 334 116 334 116 334 142 c 0,9,10
 334 158 334 158 317.5 170 c 128,-1,11
 301 182 301 182 264 194 c 2,12,-1
 188 216 l 2,13,14
 59 257 59 257 59 349 c 0,15,16
 59 426 59 426 124 467.5 c 128,-1,17
 189 509 189 509 282 509 c 0,18,19
 357 509 357 509 416 480 c 128,-1,20
 475 451 475 451 496 393 c 1,21,-1
 376 351 l 1,22,23
 359 406 359 406 273 406 c 0,24,25
 241 406 241 406 218 396 c 128,-1,26
 195 386 195 386 195 362 c 0,27,28
 195 347 195 347 208 336 c 128,-1,29
 221 325 221 325 250 315 c 2,30,-1
 326 293 l 2,31,32
 402 269 402 269 436.5 238.5 c 128,-1,33
 471 208 471 208 471 161 c 0,34,35
 471 105 471 105 440 66 c 128,-1,36
 409 27 409 27 357 7 c 128,-1,37
 305 -13 305 -13 242 -13 c 0,38,0
 162 -13 162 -13 93.5 20 c 128,-1,1
EndSplineSet
EndChar
StartChar: t
Encoding: 116 116 194
Width: 377
GlyphClass: 2
Flags: W
AnchorPoint: "Anchor-3" 322 552 basechar 0
AnchorPoint: "Anchor-1" 236 496 basechar 0
AnchorPoint: "Anchor-0" 170 0 basechar 0
LayerCount: 2
Fore
SplineSet
139.5 9.5 m 128,-1,1
 101 19 101 19 83.5 40 c 128,-1,2
 66 61 66 61 66 97 c 0,3,4
 66 116 66 116 73 153 c 2,5,-1
 123 388 l 1,6,-1
 41 388 l 1,7,-1
 65 496 l 1,8,-1
 147 496 l 1,9,-1
 173 620 l 1,10,-1
 314 620 l 1,11,-1
 288 496 l 1,12,-1
 395 496 l 1,13,-1
 372 388 l 1,14,-1
 265 388 l 1,15,-1
 220 179 l 2,16,17
 217 166 217 166 217 155 c 0,18,19
 217 134 217 134 232 125 c 128,-1,20
 247 116 247 116 284 116 c 2,21,-1
 314 116 l 1,22,-1
 289 0 l 1,23,-1
 245 0 l 2,24,0
 178 0 178 0 139.5 9.5 c 128,-1,1
EndSplineSet
EndChar
StartChar: u
Encoding: 117 117 198
Width: 568
GlyphClass: 2
Flags: W
AnchorPoint: "Anchor-3" 594 496 basechar 0
AnchorPoint: "Anchor-2" 461 10 basechar 0
AnchorPoint: "Anchor-1" 335 496 basechar 0
AnchorPoint: "Anchor-0" 229 0 basechar 0
LayerCount: 2
Fore
SplineSet
72.5 24.5 m 128,-1,1
 36 61 36 61 36 129 c 0,2,3
 36 158 36 158 44 196 c 2,4,-1
 107 496 l 1,5,-1
 248 496 l 1,6,-1
 190 217 l 2,7,8
 184 192 184 192 184 170 c 0,9,10
 184 99 184 99 249 99 c 0,11,12
 296 99 296 99 325 135 c 128,-1,13
 354 171 354 171 369 242 c 2,14,-1
 423 496 l 1,15,-1
 564 496 l 1,16,-1
 459 0 l 1,17,-1
 338 0 l 1,18,-1
 332 67 l 1,19,20
 309 32 309 32 268.5 10 c 128,-1,21
 228 -12 228 -12 176 -12 c 0,22,0
 109 -12 109 -12 72.5 24.5 c 128,-1,1
EndSplineSet
EndChar
StartChar: v
Encoding: 118 118 207
Width: 532
GlyphClass: 2
Flags: W
AnchorPoint: "Anchor-1" 318 496 basechar 0
AnchorPoint: "Anchor-0" 212 0 basechar 0
LayerCount: 2
Fore
SplineSet
63 496 m 1,0,-1
 204 496 l 1,1,-1
 242 149 l 1,2,-1
 426 496 l 1,3,-1
 575 496 l 1,4,-1
 291 0 l 1,5,-1
 134 0 l 1,6,-1
 63 496 l 1,0,-1
EndSplineSet
EndChar
StartChar: w
Encoding: 119 119 208
Width: 741
GlyphClass: 2
Flags: W
AnchorPoint: "Anchor-1" 420 496 basechar 0
AnchorPoint: "Anchor-0" 319 0 basechar 0
LayerCount: 2
Fore
SplineSet
68 496 m 1,0,-1
 204 496 l 1,1,-1
 211 153 l 1,2,-1
 354 496 l 1,3,-1
 487 496 l 1,4,-1
 485 153 l 1,5,-1
 637 496 l 1,6,-1
 779 496 l 1,7,-1
 547 0 l 1,8,-1
 395 0 l 1,9,-1
 394 364 l 1,10,-1
 240 0 l 1,11,-1
 88 0 l 1,12,-1
 68 496 l 1,0,-1
EndSplineSet
EndChar
StartChar: x
Encoding: 120 120 213
Width: 542
GlyphClass: 2
Flags: W
AnchorPoint: "Anchor-1" 325 496 basechar 0
AnchorPoint: "Anchor-0" 219 0 basechar 0
LayerCount: 2
Fore
SplineSet
197 260 m 1,0,-1
 77 496 l 1,1,-1
 221 496 l 1,2,-1
 289 363 l 1,3,-1
 408 496 l 1,4,-1
 571 496 l 1,5,-1
 351 258 l 1,6,-1
 479 0 l 1,7,-1
 336 0 l 1,8,-1
 259 153 l 1,9,-1
 120 0 l 1,10,-1
 -43 0 l 1,11,-1
 197 260 l 1,0,-1
EndSplineSet
EndChar
StartChar: y
Encoding: 121 121 214
Width: 524
GlyphClass: 2
Flags: W
AnchorPoint: "Anchor-1" 310 496 basechar 0
AnchorPoint: "Anchor-0" 209 0 basechar 0
LayerCount: 2
Fore
SplineSet
-6 -58 m 1,0,-1
 31 -58 l 2,1,2
 77 -58 77 -58 97 -48.5 c 128,-1,3
 117 -39 117 -39 130 -14 c 2,4,-1
 144 13 l 1,5,-1
 63 496 l 1,6,-1
 211 496 l 1,7,-1
 245 175 l 1,8,-1
 413 496 l 1,9,-1
 567 496 l 1,10,-1
 261 -24 l 2,11,12
 228 -79 228 -79 202.5 -107.5 c 128,-1,13
 177 -136 177 -136 145 -149 c 128,-1,14
 113 -162 113 -162 65 -162 c 2,15,-1
 -29 -162 l 1,16,-1
 -6 -58 l 1,0,-1
EndSplineSet
EndChar
StartChar: braceleft
Encoding: 123 123 279
Width: 382
GlyphClass: 1
Flags: W
LayerCount: 2
Fore
SplineSet
103 -132.5 m 128,-1,1
 59 -103 59 -103 59 -40 c 0,2,3
 59 -20 59 -20 66 15 c 2,4,-1
 91 130 l 2,5,6
 94 145 94 145 94 158 c 0,7,8
 94 184 94 184 77.5 198 c 128,-1,9
 61 212 61 212 20 215 c 1,10,-1
 43 333 l 1,11,12
 83 335 83 335 104.5 346 c 128,-1,13
 126 357 126 357 136 375.5 c 128,-1,14
 146 394 146 394 153 426 c 2,15,-1
 184 568 l 2,16,17
 196 626 196 626 221 656.5 c 128,-1,18
 246 687 246 687 280 697.5 c 128,-1,19
 314 708 314 708 363 708 c 2,20,-1
 445 708 l 1,21,-1
 422 596 l 1,22,-1
 388 596 l 2,23,24
 352 596 352 596 337 588.5 c 128,-1,25
 322 581 322 581 316 553 c 2,26,-1
 279 381 l 2,27,28
 266 324 266 324 237 299 c 128,-1,29
 208 274 208 274 164 265 c 1,30,-1
 163 260 l 1,31,32
 195 248 195 248 213 226.5 c 128,-1,33
 231 205 231 205 231 168 c 0,34,35
 231 152 231 152 226 127 c 2,36,-1
 198 3 l 2,37,38
 196 -7 196 -7 196 -12 c 0,39,40
 196 -32 196 -32 211.5 -41 c 128,-1,41
 227 -50 227 -50 259 -50 c 2,42,-1
 285 -50 l 1,43,-1
 261 -162 l 1,44,-1
 239 -162 l 2,45,0
 147 -162 147 -162 103 -132.5 c 128,-1,1
EndSplineSet
EndChar
StartChar: bar
Encoding: 124 124 305
Width: 255
GlyphClass: 1
Flags: W
LayerCount: 2
Fore
SplineSet
184 838 m 1,0,-1
 320 838 l 1,1,-1
 108 -162 l 1,2,-1
 -28 -162 l 1,3,-1
 184 838 l 1,0,-1
EndSplineSet
EndChar
StartChar: braceright
Encoding: 125 125 280
Width: 382
GlyphClass: 1
Flags: W
LayerCount: 2
Fore
SplineSet
-30 -50 m 1,0,-1
 5 -50 l 2,1,2
 40 -50 40 -50 55 -42 c 128,-1,3
 70 -34 70 -34 76 -7 c 2,4,-1
 114 165 l 2,5,6
 127 222 127 222 156 247 c 128,-1,7
 185 272 185 272 228 281 c 1,8,-1
 229 286 l 1,9,10
 198 298 198 298 180 319.5 c 128,-1,11
 162 341 162 341 162 378 c 0,12,13
 162 394 162 394 167 419 c 2,14,-1
 194 543 l 1,15,-1
 196 559 l 2,16,17
 196 579 196 579 181 587.5 c 128,-1,18
 166 596 166 596 134 596 c 2,19,-1
 108 596 l 1,20,-1
 131 708 l 1,21,-1
 154 708 l 2,22,23
 245 708 245 708 289 679 c 128,-1,24
 333 650 333 650 333 587 c 0,25,26
 333 560 333 560 326 531 c 2,27,-1
 302 416 l 2,28,29
 298 396 298 396 298 387 c 0,30,31
 298 362 298 362 315 348 c 128,-1,32
 332 334 332 334 372 331 c 1,33,-1
 349 213 l 1,34,35
 309 211 309 211 287.5 200 c 128,-1,36
 266 189 266 189 256 170.5 c 128,-1,37
 246 152 246 152 239 120 c 2,38,-1
 208 -22 l 2,39,40
 196 -80 196 -80 171 -110.5 c 128,-1,41
 146 -141 146 -141 112 -151.5 c 128,-1,42
 78 -162 78 -162 29 -162 c 2,43,-1
 -53 -162 l 1,44,-1
 -30 -50 l 1,0,-1
EndSplineSet
EndChar
StartChar: asciitilde
Encoding: 126 126 333
Width: 536
GlyphClass: 1
Flags: W
LayerCount: 2
Fore
SplineSet
85 306 m 128,-1,1
 121 348 121 348 182 348 c 0,2,3
 212 348 212 348 233 339 c 128,-1,4
 254 330 254 330 281 312 c 0,5,6
 303 298 303 298 317.5 291.5 c 128,-1,7
 332 285 332 285 349 285 c 0,8,9
 375 285 375 285 392.5 305 c 128,-1,10
 410 325 410 325 419 371 c 1,11,-1
 514 335 l 1,12,13
 492 253 492 253 455.5 211.5 c 128,-1,14
 419 170 419 170 358 170 c 0,15,16
 329 170 329 170 307.5 179 c 128,-1,17
 286 188 286 188 260 205 c 0,18,19
 238 219 238 219 223.5 225.5 c 128,-1,20
 209 232 209 232 192 232 c 0,21,22
 166 232 166 232 148.5 212 c 128,-1,23
 131 192 131 192 122 146 c 1,24,-1
 27 183 l 1,25,0
 49 264 49 264 85 306 c 128,-1,1
EndSplineSet
EndChar
StartChar: exclamdown
Encoding: 161 161 264
Width: 307
GlyphClass: 1
Flags: W
LayerCount: 2
Fore
SplineSet
27 3 m 1,0,-1
 110 263 l 1,1,-1
 205 263 l 1,2,-1
 179 3 l 1,3,-1
 142 -170 l 1,4,-1
 -10 -170 l 1,5,-1
 27 3 l 1,0,-1
125 352 m 128,-1,7
 98 379 98 379 97 417 c 0,8,9
 97 455 97 455 124 482.5 c 128,-1,10
 151 510 151 510 189 510 c 0,11,12
 228 510 228 510 254.5 482 c 128,-1,13
 281 454 281 454 281 415 c 0,14,15
 281 378 281 378 254 351.5 c 128,-1,16
 227 325 227 325 190 325 c 0,17,6
 152 325 152 325 125 352 c 128,-1,7
EndSplineSet
EndChar
StartChar: cent
Encoding: 162 162 311
Width: 511
GlyphClass: 1
Flags: W
LayerCount: 2
Fore
SplineSet
71.5 62 m 128,-1,1
 27 116 27 116 27 202 c 0,2,3
 27 282 27 282 60.5 351.5 c 128,-1,4
 94 421 94 421 156.5 463.5 c 128,-1,5
 219 506 219 506 302 508 c 1,6,-1
 318 586 l 1,7,-1
 387 586 l 1,8,-1
 369 502 l 1,9,10
 421 492 421 492 459.5 461 c 128,-1,11
 498 430 498 430 517 379 c 1,12,-1
 396 340 l 1,13,14
 383 379 383 379 345 391 c 1,15,-1
 283 99 l 1,16,17
 335 103 335 103 368 147 c 1,18,-1
 478 103 l 1,19,20
 441 49 441 49 384 19.5 c 128,-1,21
 327 -10 327 -10 260 -13 c 1,22,-1
 243 -90 l 1,23,-1
 174 -90 l 1,24,-1
 192 -7 l 1,25,0
 116 8 116 8 71.5 62 c 128,-1,1
217 352 m 128,-1,27
 193 321 193 321 181.5 281.5 c 128,-1,28
 170 242 170 242 170 207 c 0,29,30
 170 135 170 135 217 111 c 1,31,-1
 277 393 l 1,32,26
 241 383 241 383 217 352 c 128,-1,27
EndSplineSet
EndChar
StartChar: sterling
Encoding: 163 163 316
Width: 635
GlyphClass: 1
Flags: W
LayerCount: 2
Fore
SplineSet
148.5 171 m 128,-1,1
 192 213 192 213 192 276 c 0,2,3
 192 290 192 290 191 299 c 1,4,-1
 74 299 l 1,5,-1
 90 369 l 1,6,-1
 176 369 l 1,7,8
 153 443 153 443 153 490 c 0,9,10
 153 550 153 550 185 592.5 c 128,-1,11
 217 635 217 635 272 657 c 128,-1,12
 327 679 327 679 396 679 c 0,13,14
 483 679 483 679 549.5 641.5 c 128,-1,15
 616 604 616 604 639 533 c 1,16,-1
 511 491 l 1,17,18
 503 527 503 527 472 546.5 c 128,-1,19
 441 566 441 566 398 566 c 0,20,21
 352 566 352 566 324 542 c 128,-1,22
 296 518 296 518 296 476 c 0,23,24
 296 456 296 456 301.5 435 c 128,-1,25
 307 414 307 414 322 369 c 1,26,-1
 484 369 l 1,27,-1
 469 299 l 1,28,-1
 337 299 l 1,29,30
 339 293 339 293 339 278 c 0,31,32
 339 187 339 187 207 112 c 1,33,34
 240 129 240 129 284 129 c 0,35,36
 311 129 311 129 361 117 c 0,37,38
 403 106 403 106 429 106 c 0,39,40
 479 106 479 106 536 135 c 1,41,-1
 553 22 l 1,42,43
 513 4 513 4 475 -4 c 128,-1,44
 437 -12 437 -12 393 -12 c 0,45,46
 369 -12 369 -12 346.5 -7.5 c 128,-1,47
 324 -3 324 -3 294 6 c 0,48,49
 262 15 262 15 242 19.5 c 128,-1,50
 222 24 222 24 199 24 c 0,51,52
 131 24 131 24 59 -12 c 1,53,-1
 30 95 l 1,54,0
 105 129 105 129 148.5 171 c 128,-1,1
EndSplineSet
EndChar
StartChar: currency
Encoding: 164 164 312
Width: 594
GlyphClass: 1
Flags: W
LayerCount: 2
Fore
SplineSet
69 128 m 1,0,-1
 136 194 l 1,1,2
 94 252 94 252 94 321 c 256,3,4
 94 390 94 390 136 448 c 1,5,-1
 69 514 l 1,6,-1
 118 564 l 1,7,-1
 185 497 l 1,8,9
 243 539 243 539 313 539 c 0,10,11
 382 539 382 539 440 497 c 1,12,-1
 507 564 l 1,13,-1
 556 514 l 1,14,-1
 490 448 l 1,15,16
 531 390 531 390 531 321 c 256,17,18
 531 252 531 252 490 194 c 1,19,-1
 556 128 l 1,20,-1
 507 78 l 1,21,-1
 440 145 l 1,22,23
 382 103 382 103 313 103 c 0,24,25
 243 103 243 103 185 145 c 1,26,-1
 118 78 l 1,27,-1
 69 128 l 1,0,-1
387.5 247 m 128,-1,29
 418 278 418 278 418 321 c 0,30,31
 418 365 418 365 387.5 395.5 c 128,-1,32
 357 426 357 426 313 426 c 256,33,34
 269 426 269 426 238 395.5 c 128,-1,35
 207 365 207 365 207 321 c 256,36,37
 207 277 207 277 238 246.5 c 128,-1,38
 269 216 269 216 313 216 c 256,39,28
 357 216 357 216 387.5 247 c 128,-1,29
EndSplineSet
EndChar
StartChar: yen
Encoding: 165 165 317
Width: 651
GlyphClass: 1
Flags: W
LayerCount: 2
Fore
SplineSet
216 77 m 1,0,-1
 84 77 l 1,1,-1
 98 147 l 1,2,-1
 231 147 l 1,3,-1
 245 214 l 1,4,-1
 113 214 l 1,5,-1
 127 284 l 1,6,-1
 245 284 l 1,7,-1
 89 668 l 1,8,-1
 254 668 l 1,9,-1
 351 400 l 1,10,-1
 564 668 l 1,11,-1
 740 668 l 1,12,-1
 421 284 l 1,13,-1
 540 284 l 1,14,-1
 525 214 l 1,15,-1
 391 214 l 1,16,-1
 377 147 l 1,17,-1
 511 147 l 1,18,-1
 496 77 l 1,19,-1
 362 77 l 1,20,-1
 345 0 l 1,21,-1
 200 0 l 1,22,-1
 216 77 l 1,0,-1
EndSplineSet
EndChar
StartChar: brokenbar
Encoding: 166 166 306
Width: 255
GlyphClass: 1
Flags: W
LayerCount: 2
Fore
SplineSet
56 233 m 1,0,-1
 192 233 l 1,1,-1
 108 -162 l 1,2,-1
 -28 -162 l 1,3,-1
 56 233 l 1,0,-1
184 838 m 1,4,-1
 320 838 l 1,5,-1
 236 443 l 1,6,-1
 100 443 l 1,7,-1
 184 838 l 1,4,-1
EndSplineSet
EndChar
StartChar: section
Encoding: 167 167 300
Width: 556
GlyphClass: 1
Flags: W
LayerCount: 2
Fore
SplineSet
91 -139 m 128,-1,1
 39 -105 39 -105 22 -36 c 1,2,-1
 145 5 l 1,3,4
 149 -30 149 -30 172 -46.5 c 128,-1,5
 195 -63 195 -63 231 -63 c 0,6,7
 264 -63 264 -63 285 -48.5 c 128,-1,8
 306 -34 306 -34 306 -12 c 0,9,10
 306 5 306 5 291 23 c 128,-1,11
 276 41 276 41 243 63 c 2,12,-1
 149 127 l 2,13,14
 93 164 93 164 66 199.5 c 128,-1,15
 39 235 39 235 39 280 c 0,16,17
 39 376 39 376 148 430 c 1,18,19
 123 465 123 465 123 505 c 0,20,21
 123 556 123 556 154 596 c 128,-1,22
 185 636 185 636 236.5 658.5 c 128,-1,23
 288 681 288 681 349 681 c 0,24,25
 428 681 428 681 479.5 647 c 128,-1,26
 531 613 531 613 548 544 c 1,27,-1
 425 503 l 1,28,29
 421 538 421 538 398 554.5 c 128,-1,30
 375 571 375 571 340 571 c 0,31,32
 306 571 306 571 285 557 c 128,-1,33
 264 543 264 543 264 521 c 0,34,35
 264 504 264 504 279 485.5 c 128,-1,36
 294 467 294 467 327 445 c 2,37,-1
 422 381 l 2,38,39
 477 344 477 344 504 308.5 c 128,-1,40
 531 273 531 273 531 228 c 0,41,42
 531 132 531 132 423 78 c 1,43,44
 447 44 447 44 447 3 c 0,45,46
 447 -48 447 -48 416 -88.5 c 128,-1,47
 385 -129 385 -129 333.5 -151 c 128,-1,48
 282 -173 282 -173 222 -173 c 0,49,0
 143 -173 143 -173 91 -139 c 128,-1,1
391 210 m 0,51,52
 391 243 391 243 339 279 c 2,53,-1
 226 356 l 1,54,55
 179 333 179 333 179 298 c 0,56,57
 179 280 179 280 192.5 263.5 c 128,-1,58
 206 247 206 247 232 229 c 2,59,-1
 345 152 l 1,60,50
 391 176 391 176 391 210 c 0,51,52
EndSplineSet
EndChar
StartChar: copyright
Encoding: 169 169 301
Width: 798
GlyphClass: 1
Flags: W
LayerCount: 2
Fore
SplineSet
243 33.5 m 128,-1,1
 163 80 163 80 116.5 160 c 128,-1,2
 70 240 70 240 70 334 c 256,3,4
 70 428 70 428 116.5 508 c 128,-1,5
 163 588 163 588 243 634.5 c 128,-1,6
 323 681 323 681 417 681 c 256,7,8
 511 681 511 681 591 634.5 c 128,-1,9
 671 588 671 588 717.5 508 c 128,-1,10
 764 428 764 428 764 334 c 256,11,12
 764 240 764 240 717.5 160 c 128,-1,13
 671 80 671 80 591 33.5 c 128,-1,14
 511 -13 511 -13 417 -13 c 256,15,0
 323 -13 323 -13 243 33.5 c 128,-1,1
285 195 m 128,-1,17
 237 247 237 247 237 335 c 0,18,19
 237 422 237 422 287 474 c 128,-1,20
 337 526 337 526 419 526 c 0,21,22
 471 526 471 526 514 503.5 c 128,-1,23
 557 481 557 481 580 434 c 1,24,-1
 491 401 l 1,25,26
 474 445 474 445 424 445 c 0,27,28
 389 445 389 445 366.5 418 c 128,-1,29
 344 391 344 391 344 335 c 0,30,31
 344 278 344 278 367 251 c 128,-1,32
 390 224 390 224 424 224 c 0,33,34
 473 224 473 224 493 260 c 1,35,-1
 579 228 l 1,36,37
 554 185 554 185 511 164 c 128,-1,38
 468 143 468 143 419 143 c 0,39,16
 333 143 333 143 285 195 c 128,-1,17
556.5 92.5 m 128,-1,41
 620 130 620 130 657.5 194 c 128,-1,42
 695 258 695 258 695 334 c 256,43,44
 695 410 695 410 657.5 474 c 128,-1,45
 620 538 620 538 556.5 575.5 c 128,-1,46
 493 613 493 613 417 613 c 256,47,48
 341 613 341 613 277.5 575.5 c 128,-1,49
 214 538 214 538 176.5 474 c 128,-1,50
 139 410 139 410 139 334 c 256,51,52
 139 258 139 258 176.5 194 c 128,-1,53
 214 130 214 130 277.5 92.5 c 128,-1,54
 341 55 341 55 417 55 c 256,55,40
 493 55 493 55 556.5 92.5 c 128,-1,41
EndSplineSet
EndChar
StartChar: ordfeminine
Encoding: 170 170 223
Width: 391
GlyphClass: 1
Flags: W
LayerCount: 2
Fore
SplineSet
131.5 416.5 m 128,-1,1
 104 439 104 439 104 474 c 0,2,3
 104 527 104 527 152 553 c 128,-1,4
 200 579 200 579 310 578 c 1,5,-1
 312 593 l 2,6,7
 312 623 312 623 274 623 c 0,8,9
 258 623 258 623 245.5 616.5 c 128,-1,10
 233 610 233 610 229 599 c 1,11,-1
 147 629 l 1,12,13
 179 688 179 688 273 688 c 0,14,15
 404 688 404 688 404 597 c 0,16,17
 404 579 404 579 400 563 c 2,18,-1
 390 516 l 2,19,20
 384 487 384 487 378 456 c 128,-1,21
 372 425 372 425 371 400 c 1,22,-1
 291 400 l 1,23,-1
 289 435 l 1,24,25
 259 394 259 394 201 394 c 0,26,0
 159 394 159 394 131.5 416.5 c 128,-1,1
275 472.5 m 128,-1,28
 292 485 292 485 296 506 c 2,29,-1
 299 521 l 1,30,-1
 277 522 l 2,31,32
 203 522 203 522 203 484 c 0,33,34
 203 474 203 474 211 467 c 128,-1,35
 219 460 219 460 234 460 c 0,36,27
 258 460 258 460 275 472.5 c 128,-1,28
EndSplineSet
EndChar
StartChar: guillemotleft
Encoding: 171 171 289
Width: 652
GlyphClass: 1
Flags: W
LayerCount: 2
Fore
SplineSet
289 242 m 1,0,-1
 478 460 l 1,1,-1
 643 460 l 1,2,-1
 447 235 l 1,3,-1
 554 40 l 1,4,-1
 402 40 l 1,5,-1
 289 242 l 1,0,-1
53 250 m 1,6,-1
 242 460 l 1,7,-1
 407 460 l 1,8,-1
 211 242 l 1,9,-1
 318 40 l 1,10,-1
 166 40 l 1,11,-1
 53 250 l 1,6,-1
EndSplineSet
EndChar
StartChar: logicalnot
Encoding: 172 172 332
Width: 616
GlyphClass: 1
Flags: W
LayerCount: 2
Fore
SplineSet
453 297 m 1,0,-1
 64 297 l 1,1,-1
 89 418 l 1,2,-1
 599 418 l 1,3,-1
 522 61 l 1,4,-1
 402 61 l 1,5,-1
 453 297 l 1,0,-1
EndSplineSet
EndChar
StartChar: registered
Encoding: 174 174 302
Width: 798
GlyphClass: 1
Flags: W
LayerCount: 2
Fore
SplineSet
243 33.5 m 128,-1,1
 163 80 163 80 116.5 160 c 128,-1,2
 70 240 70 240 70 334 c 256,3,4
 70 428 70 428 116.5 508 c 128,-1,5
 163 588 163 588 243 634.5 c 128,-1,6
 323 681 323 681 417 681 c 256,7,8
 511 681 511 681 591 634.5 c 128,-1,9
 671 588 671 588 717.5 508 c 128,-1,10
 764 428 764 428 764 334 c 256,11,12
 764 240 764 240 717.5 160 c 128,-1,13
 671 80 671 80 591 33.5 c 128,-1,14
 511 -13 511 -13 417 -13 c 256,15,0
 323 -13 323 -13 243 33.5 c 128,-1,1
556.5 92.5 m 128,-1,17
 620 130 620 130 657.5 194 c 128,-1,18
 695 258 695 258 695 334 c 256,19,20
 695 410 695 410 657.5 474 c 128,-1,21
 620 538 620 538 556.5 575.5 c 128,-1,22
 493 613 493 613 417 613 c 256,23,24
 341 613 341 613 277.5 575.5 c 128,-1,25
 214 538 214 538 176.5 474 c 128,-1,26
 139 410 139 410 139 334 c 256,27,28
 139 258 139 258 176.5 194 c 128,-1,29
 214 130 214 130 277.5 92.5 c 128,-1,30
 341 55 341 55 417 55 c 256,31,16
 493 55 493 55 556.5 92.5 c 128,-1,17
263 529 m 1,32,-1
 414 529 l 2,33,34
 492 529 492 529 534 504 c 128,-1,35
 576 479 576 479 576 415 c 0,36,37
 576 378 576 378 555.5 350 c 128,-1,38
 535 322 535 322 489 310 c 1,39,-1
 596 162 l 1,40,-1
 492 162 l 1,41,-1
 391 300 l 1,42,-1
 357 300 l 1,43,-1
 357 162 l 1,44,-1
 263 162 l 1,45,-1
 263 529 l 1,32,-1
462 381.5 m 128,-1,47
 480 391 480 391 480 414 c 0,48,49
 480 438 480 438 462 446.5 c 128,-1,50
 444 455 444 455 409 455 c 2,51,-1
 357 455 l 1,52,-1
 357 372 l 1,53,-1
 410 372 l 2,54,46
 444 372 444 372 462 381.5 c 128,-1,47
EndSplineSet
EndChar
StartChar: degree
Encoding: 176 176 304
Width: 396
GlyphClass: 1
Flags: W
LayerCount: 2
Fore
SplineSet
177 384.5 m 128,-1,1
 141 406 141 406 119.5 442.5 c 128,-1,2
 98 479 98 479 98 522 c 256,3,4
 98 565 98 565 119.5 601 c 128,-1,5
 141 637 141 637 177 658.5 c 128,-1,6
 213 680 213 680 256 680 c 256,7,8
 299 680 299 680 335.5 658.5 c 128,-1,9
 372 637 372 637 393 601 c 128,-1,10
 414 565 414 565 414 522 c 256,11,12
 414 479 414 479 393 442.5 c 128,-1,13
 372 406 372 406 335.5 384.5 c 128,-1,14
 299 363 299 363 256 363 c 256,15,0
 213 363 213 363 177 384.5 c 128,-1,1
308 470.5 m 128,-1,17
 329 492 329 492 329 522 c 256,18,19
 329 552 329 552 308 573.5 c 128,-1,20
 287 595 287 595 256 595 c 0,21,22
 226 595 226 595 204.5 573.5 c 128,-1,23
 183 552 183 552 183 522 c 256,24,25
 183 492 183 492 204.5 470.5 c 128,-1,26
 226 449 226 449 256 449 c 0,27,16
 287 449 287 449 308 470.5 c 128,-1,17
EndSplineSet
EndChar
StartChar: plusminus
Encoding: 177 177 330
Width: 612
GlyphClass: 1
Flags: W
LayerCount: 2
Fore
SplineSet
252 281 m 1,0,-1
 60 281 l 1,1,-1
 82 385 l 1,2,-1
 275 385 l 1,3,-1
 299 496 l 1,4,-1
 419 496 l 1,5,-1
 395 385 l 1,6,-1
 588 385 l 1,7,-1
 566 281 l 1,8,-1
 373 281 l 1,9,-1
 350 171 l 1,10,-1
 230 171 l 1,11,-1
 252 281 l 1,0,-1
25 121 m 1,12,-1
 531 121 l 1,13,-1
 506 0 l 1,14,-1
 0 0 l 1,15,-1
 25 121 l 1,12,-1
EndSplineSet
EndChar
StartChar: uni00B2
Encoding: 178 178 254
Width: 403
GlyphClass: 1
Flags: W
LayerCount: 2
Fore
SplineSet
274 587.5 m 128,-1,1
 340 639 340 639 340 678 c 0,2,3
 340 695 340 695 328.5 704.5 c 128,-1,4
 317 714 317 714 298 714 c 0,5,6
 278 714 278 714 262.5 702 c 128,-1,7
 247 690 247 690 240 668 c 1,8,-1
 155 703 l 1,9,10
 174 743 174 743 212.5 764.5 c 128,-1,11
 251 786 251 786 301 786 c 0,12,13
 359 786 359 786 399 761 c 128,-1,14
 439 736 439 736 439 685 c 0,15,16
 439 582 439 582 259 485 c 1,17,-1
 400 485 l 1,18,-1
 382 403 l 1,19,-1
 86 403 l 1,20,-1
 103 481 l 1,21,0
 208 536 208 536 274 587.5 c 128,-1,1
EndSplineSet
EndChar
StartChar: uni00B3
Encoding: 179 179 255
Width: 408
GlyphClass: 1
Flags: W
LayerCount: 2
Fore
SplineSet
160.5 419 m 128,-1,1
 122 442 122 442 110 483 c 1,2,-1
 195 511 l 1,3,4
 200 491 200 491 215 480 c 128,-1,5
 230 469 230 469 255 469 c 0,6,7
 279 469 279 469 296.5 481.5 c 128,-1,8
 314 494 314 494 314 515 c 0,9,10
 314 556 314 556 230 556 c 1,11,-1
 246 635 l 1,12,13
 253 634 253 634 267 634 c 0,14,15
 300 634 300 634 319 646 c 128,-1,16
 338 658 338 658 338 680 c 0,17,18
 338 695 338 695 326 704.5 c 128,-1,19
 314 714 314 714 294 714 c 0,20,21
 271 714 271 714 255.5 704.5 c 128,-1,22
 240 695 240 695 233 677 c 1,23,-1
 150 709 l 1,24,25
 169 747 169 747 206 766.5 c 128,-1,26
 243 786 243 786 294 786 c 0,27,28
 358 786 358 786 398 760.5 c 128,-1,29
 438 735 438 735 438 687 c 0,30,31
 438 657 438 657 418 629.5 c 128,-1,32
 398 602 398 602 369 591 c 1,33,34
 389 580 389 580 400.5 561.5 c 128,-1,35
 412 543 412 543 412 519 c 0,36,37
 412 464 412 464 366.5 430 c 128,-1,38
 321 396 321 396 254 396 c 0,39,0
 199 396 199 396 160.5 419 c 128,-1,1
EndSplineSet
EndChar
StartChar: paragraph
Encoding: 182 182 299
Width: 522
GlyphClass: 1
Flags: W
LayerCount: 2
Fore
SplineSet
107 364 m 128,-1,1
 79 408 79 408 79 460 c 0,2,3
 79 482 79 482 83 499 c 0,4,5
 94 549 94 549 125.5 587.5 c 128,-1,6
 157 626 157 626 201 647 c 128,-1,7
 245 668 245 668 291 668 c 2,8,-1
 585 668 l 1,9,-1
 571 601 l 1,10,-1
 525 601 l 1,11,-1
 363 -162 l 1,12,-1
 272 -162 l 1,13,-1
 434 601 l 1,14,-1
 340 601 l 1,15,-1
 179 -162 l 1,16,-1
 88 -162 l 1,17,-1
 186 301 l 1,18,0
 135 320 135 320 107 364 c 128,-1,1
EndSplineSet
EndChar
StartChar: uni00B9
Encoding: 185 185 253
Width: 286
GlyphClass: 1
Flags: W
LayerCount: 2
Fore
SplineSet
222 652 m 1,0,-1
 139 652 l 1,1,-1
 157 733 l 1,2,3
 203 732 203 732 230 743 c 128,-1,4
 257 754 257 754 270 779 c 1,5,-1
 345 779 l 1,6,-1
 265 403 l 1,7,-1
 170 403 l 1,8,-1
 222 652 l 1,0,-1
EndSplineSet
EndChar
StartChar: ordmasculine
Encoding: 186 186 224
Width: 404
GlyphClass: 1
Flags: W
LayerCount: 2
Fore
SplineSet
153.5 425.5 m 128,-1,1
 114 457 114 457 114 518 c 0,2,3
 114 563 114 563 132.5 601.5 c 128,-1,4
 151 640 151 640 187.5 664 c 128,-1,5
 224 688 224 688 276 688 c 0,6,7
 336 688 336 688 375.5 656.5 c 128,-1,8
 415 625 415 625 415 564 c 0,9,10
 415 520 415 520 396.5 481 c 128,-1,11
 378 442 378 442 341 418 c 128,-1,12
 304 394 304 394 253 394 c 0,13,0
 193 394 193 394 153.5 425.5 c 128,-1,1
301.5 497.5 m 128,-1,15
 318 528 318 528 318 560 c 0,16,17
 318 586 318 586 307 600.5 c 128,-1,18
 296 615 296 615 274 615 c 0,19,20
 243 615 243 615 227 584.5 c 128,-1,21
 211 554 211 554 211 522 c 0,22,23
 211 496 211 496 222 481.5 c 128,-1,24
 233 467 233 467 254 467 c 0,25,14
 285 467 285 467 301.5 497.5 c 128,-1,15
EndSplineSet
EndChar
StartChar: guillemotright
Encoding: 187 187 290
Width: 652
GlyphClass: 1
Flags: W
LayerCount: 2
Fore
SplineSet
441 258 m 1,0,-1
 334 460 l 1,1,-1
 487 460 l 1,2,-1
 599 250 l 1,3,-1
 411 40 l 1,4,-1
 245 40 l 1,5,-1
 441 258 l 1,0,-1
205 265 m 1,6,-1
 98 460 l 1,7,-1
 251 460 l 1,8,-1
 363 258 l 1,9,-1
 175 40 l 1,10,-1
 9 40 l 1,11,-1
 205 265 l 1,6,-1
EndSplineSet
EndChar
StartChar: onehalf
Encoding: 189 189 250
Width: 877
GlyphClass: 3
Flags: W
LayerCount: 2
Fore
SplineSet
666 668 m 1,0,-1
 793 668 l 1,1,-1
 190 0 l 1,2,-1
 62 0 l 1,3,-1
 666 668 l 1,0,-1
199 541 m 1,4,-1
 115 541 l 1,5,-1
 133 623 l 1,6,7
 179 623 179 623 205 631.5 c 128,-1,8
 231 640 231 640 246 668 c 1,9,-1
 322 668 l 1,10,-1
 242 293 l 1,11,-1
 147 293 l 1,12,-1
 199 541 l 1,4,-1
525 100 m 0,14,15
 614 151 614 151 670.5 193.5 c 128,-1,16
 727 236 727 236 727 273 c 0,17,18
 727 291 727 291 715.5 301 c 128,-1,19
 704 311 704 311 685 311 c 0,20,21
 664 311 664 311 649 298 c 128,-1,22
 634 285 634 285 625 263 c 1,23,-1
 540 297 l 1,24,25
 561 338 561 338 598.5 360 c 128,-1,26
 636 382 636 382 687 382 c 0,27,28
 746 382 746 382 786.5 356 c 128,-1,29
 827 330 827 330 827 281 c 0,30,31
 827 237 827 237 799 201.5 c 128,-1,32
 771 166 771 166 732.5 140.5 c 128,-1,33
 694 115 694 115 635 82 c 1,34,-1
 785 82 l 1,35,-1
 767 0 l 1,36,-1
 471 0 l 1,37,-1
 487 77 l 1,38,13
 506 89 506 89 525 100 c 0,14,15
EndSplineSet
Ligature2: "'frac' Diagonal Fractions in Latin lookup 7 subtable" one slash two
EndChar
StartChar: threequarters
Encoding: 190 190 252
Width: 944
GlyphClass: 3
Flags: W
LayerCount: 2
Fore
SplineSet
753 668 m 1,0,-1
 880 668 l 1,1,-1
 277 0 l 1,2,-1
 149 0 l 1,3,-1
 753 668 l 1,0,-1
142.5 312 m 128,-1,5
 104 334 104 334 90 378 c 1,6,-1
 175 405 l 1,7,8
 179 385 179 385 195.5 373.5 c 128,-1,9
 212 362 212 362 234 362 c 0,10,11
 259 362 259 362 275 375.5 c 128,-1,12
 291 389 291 389 291 409 c 0,13,14
 291 451 291 451 209 450 c 1,15,-1
 226 527 l 1,16,17
 271 525 271 525 294.5 536.5 c 128,-1,18
 318 548 318 548 318 572 c 0,19,20
 318 588 318 588 304.5 597.5 c 128,-1,21
 291 607 291 607 272 607 c 0,22,23
 251 607 251 607 235 598 c 128,-1,24
 219 589 219 589 211 570 c 1,25,-1
 128 602 l 1,26,27
 147 640 147 640 184.5 659.5 c 128,-1,28
 222 679 222 679 273 679 c 0,29,30
 331 679 331 679 373 654.5 c 128,-1,31
 415 630 415 630 415 582 c 0,32,33
 415 552 415 552 396.5 524 c 128,-1,34
 378 496 378 496 348 485 c 1,35,36
 368 474 368 474 379 455 c 128,-1,37
 390 436 390 436 390 411 c 0,38,39
 390 355 390 355 344.5 322.5 c 128,-1,40
 299 290 299 290 232 290 c 0,41,4
 181 290 181 290 142.5 312 c 128,-1,5
700 76 m 1,42,-1
 518 76 l 1,43,-1
 534 149 l 1,44,-1
 763 375 l 1,45,-1
 859 375 l 1,46,-1
 813 158 l 1,47,-1
 872 158 l 1,48,-1
 855 76 l 1,49,-1
 795 76 l 1,50,-1
 779 0 l 1,51,-1
 683 0 l 1,52,-1
 700 76 l 1,42,-1
717 158 m 1,53,-1
 738 255 l 1,54,-1
 639 158 l 1,55,-1
 717 158 l 1,53,-1
EndSplineSet
Ligature2: "'frac' Diagonal Fractions in Latin lookup 7 subtable" three slash four
EndChar
StartChar: questiondown
Encoding: 191 191 266
Width: 540
GlyphClass: 1
Flags: W
LayerCount: 2
Fore
SplineSet
97 -162.5 m 128,-1,1
 40 -143 40 -143 4.5 -105 c 128,-1,2
 -31 -67 -31 -67 -31 -15 c 0,3,4
 -31 54 -31 54 10 96.5 c 128,-1,5
 51 139 51 139 134 171 c 0,6,7
 193 193 193 193 214.5 211 c 128,-1,8
 236 229 236 229 242 254 c 2,9,-1
 246 272 l 1,10,-1
 390 272 l 1,11,-1
 385 254 l 2,12,13
 368 184 368 184 336 144 c 128,-1,14
 304 104 304 104 230 82 c 0,15,16
 171 64 171 64 143.5 44 c 128,-1,17
 116 24 116 24 116 -5 c 0,18,19
 116 -33 116 -33 146 -51 c 128,-1,20
 176 -69 176 -69 219 -69 c 0,21,22
 263 -69 263 -69 298 -49 c 128,-1,23
 333 -29 333 -29 354 11 c 1,24,-1
 479 -37 l 1,25,26
 454 -108 454 -108 380 -145 c 128,-1,27
 306 -182 306 -182 217 -182 c 0,28,0
 154 -182 154 -182 97 -162.5 c 128,-1,1
283 352 m 128,-1,30
 256 379 256 379 256 417 c 256,31,32
 256 455 256 455 283 482.5 c 128,-1,33
 310 510 310 510 348 510 c 256,34,35
 386 510 386 510 413.5 482.5 c 128,-1,36
 441 455 441 455 441 417 c 256,37,38
 441 379 441 379 413.5 352 c 128,-1,39
 386 325 386 325 348 325 c 256,40,29
 310 325 310 325 283 352 c 128,-1,30
EndSplineSet
EndChar
StartChar: Aring
Encoding: 197 197 10
Width: 680
GlyphClass: 2
Flags: W
AnchorPoint: "Anchor-2" 623 10 basechar 0
AnchorPoint: "Anchor-1" 435 857 basechar 0
AnchorPoint: "Anchor-0" 287 0 basechar 0
LayerCount: 2
Fore
SplineSet
303 729 m 0,1,2
 303 782 303 782 340.5 819.5 c 128,-1,3
 378 857 378 857 431 857 c 0,4,5
 466 857 466 857 495.5 840 c 128,-1,6
 525 823 525 823 542.5 793.5 c 128,-1,7
 560 764 560 764 560 729 c 0,8,9
 560 701 560 701 548.5 675.5 c 128,-1,10
 537 650 537 650 516 633 c 1,11,-1
 621 0 l 1,12,-1
 464 0 l 1,13,-1
 448 123 l 1,14,-1
 184 123 l 1,15,-1
 117 0 l 1,16,-1
 -47 0 l 1,17,-1
 334 645 l 1,18,0
 303 681 303 681 303 729 c 0,1,2
433 244 m 1,19,-1
 399 512 l 1,20,-1
 251 244 l 1,21,-1
 433 244 l 1,19,-1
465 695 m 128,-1,23
 479 709 479 709 479 729 c 256,24,25
 479 749 479 749 465 763 c 128,-1,26
 451 777 451 777 431 777 c 0,27,28
 412 777 412 777 397.5 763 c 128,-1,29
 383 749 383 749 383 729 c 0,30,31
 383 710 383 710 397.5 695.5 c 128,-1,32
 412 681 412 681 431 681 c 0,33,22
 451 681 451 681 465 695 c 128,-1,23
EndSplineSet
EndChar
StartChar: Ccedilla
Encoding: 199 199 17
Width: 660
GlyphClass: 2
Flags: W
AnchorPoint: "Anchor-1" 444 668 basechar 0
LayerCount: 2
Fore
SplineSet
218 -164 m 1,1,-1
 242 -118 l 1,2,3
 253 -126 253 -126 271 -132 c 128,-1,4
 289 -138 289 -138 305 -138 c 0,5,6
 324 -138 324 -138 336 -130 c 128,-1,7
 348 -122 348 -122 348 -108 c 0,8,9
 348 -97 348 -97 338.5 -90 c 128,-1,10
 329 -83 329 -83 315 -83 c 0,11,12
 303 -83 303 -83 291 -85 c 0,13,14
 280 -87 280 -87 273.5 -83 c 128,-1,15
 267 -79 267 -79 267 -71 c 0,16,17
 267 -61 267 -61 274 -53 c 2,18,-1
 309 -10 l 1,19,20
 188 0 188 0 118 76 c 128,-1,21
 48 152 48 152 48 272 c 0,22,23
 48 380 48 380 94 473.5 c 128,-1,24
 140 567 140 567 224.5 623.5 c 128,-1,25
 309 680 309 680 420 680 c 0,26,27
 512 680 512 680 581.5 640 c 128,-1,28
 651 600 651 600 682 521 c 1,29,-1
 552 476 l 1,30,31
 535 514 535 514 499 536 c 128,-1,32
 463 558 463 558 417 558 c 0,33,34
 348 558 348 558 299.5 514 c 128,-1,35
 251 470 251 470 227.5 405.5 c 128,-1,36
 204 341 204 341 204 281 c 0,37,38
 204 205 204 205 244 157.5 c 128,-1,39
 284 110 284 110 360 110 c 0,40,41
 455 110 455 110 503 188 c 1,42,-1
 633 137 l 1,43,44
 585 65 585 65 515.5 28.5 c 128,-1,45
 446 -8 446 -8 364 -12 c 1,46,-1
 335 -46 l 1,47,48
 340 -45 340 -45 351 -45 c 0,49,50
 389 -45 389 -45 413 -61.5 c 128,-1,51
 437 -78 437 -78 437 -106 c 0,52,53
 437 -146 437 -146 404.5 -166 c 128,-1,54
 372 -186 372 -186 322 -186 c 0,55,0
 264 -186 264 -186 218 -164 c 1,1,-1
EndSplineSet
EndChar
StartChar: multiply
Encoding: 215 215 322
Width: 536
GlyphClass: 1
Flags: W
LayerCount: 2
Fore
SplineSet
15 115 m 1,0,-1
 185 255 l 1,1,-1
 73 395 l 1,2,-1
 167 474 l 1,3,-1
 279 330 l 1,4,-1
 451 474 l 1,5,-1
 524 381 l 1,6,-1
 351 241 l 1,7,-1
 463 101 l 1,8,-1
 366 24 l 1,9,-1
 258 164 l 1,10,-1
 89 24 l 1,11,-1
 15 115 l 1,0,-1
EndSplineSet
EndChar
StartChar: Oslash
Encoding: 216 216 68
Width: 746
GlyphClass: 2
Flags: W
AnchorPoint: "Anchor-3" 819 668 basechar 0
AnchorPoint: "Anchor-1" 451 668 basechar 0
AnchorPoint: "Anchor-0" 320 0 basechar 0
LayerCount: 2
Fore
SplineSet
241.5 5.5 m 128,-1,1
 188 23 188 23 147 56 c 1,2,-1
 75 -11 l 1,3,-1
 26 40 l 1,4,-1
 99 108 l 1,5,6
 49 181 49 181 49 281 c 0,7,8
 49 386 49 386 96 477.5 c 128,-1,9
 143 569 143 569 228.5 624.5 c 128,-1,10
 314 680 314 680 426 680 c 0,11,12
 488 680 488 680 542 662 c 128,-1,13
 596 644 596 644 636 611 c 1,14,-1
 708 678 l 1,15,-1
 756 627 l 1,16,-1
 684 559 l 1,17,18
 733 487 733 487 733 387 c 0,19,20
 733 282 733 282 686.5 190.5 c 128,-1,21
 640 99 640 99 554 43.5 c 128,-1,22
 468 -12 468 -12 357 -12 c 0,23,0
 295 -12 295 -12 241.5 5.5 c 128,-1,1
481 153.5 m 128,-1,25
 529 197 529 197 552.5 260.5 c 128,-1,26
 576 324 576 324 576 384 c 0,27,28
 576 420 576 420 567 450 c 1,29,-1
 250 154 l 1,30,31
 292 110 292 110 362 110 c 0,32,24
 433 110 433 110 481 153.5 c 128,-1,25
215 217 m 1,34,-1
 532 514 l 1,35,36
 491 558 491 558 420 558 c 256,37,38
 349 558 349 558 301 514.5 c 128,-1,39
 253 471 253 471 229.5 407.5 c 128,-1,40
 206 344 206 344 206 284 c 0,41,33
 206 247 206 247 215 217 c 1,34,-1
EndSplineSet
EndChar
StartChar: Thorn
Encoding: 222 222 72
Width: 630
GlyphClass: 2
Flags: W
AnchorPoint: "Anchor-1" 407 668 basechar 0
AnchorPoint: "Anchor-0" 265 0 basechar 0
LayerCount: 2
Fore
SplineSet
148 668 m 1,0,-1
 296 668 l 1,1,-1
 273 557 l 1,2,-1
 383 557 l 2,3,4
 494 557 494 557 561.5 506.5 c 128,-1,5
 629 456 629 456 629 368 c 0,6,7
 629 294 629 294 595.5 239 c 128,-1,8
 562 184 562 184 502 154.5 c 128,-1,9
 442 125 442 125 363 125 c 2,10,-1
 181 125 l 1,11,-1
 154 0 l 1,12,-1
 6 0 l 1,13,-1
 148 668 l 1,0,-1
441 277 m 128,-1,15
 473 304 473 304 473 354 c 0,16,17
 473 391 473 391 446 411 c 128,-1,18
 419 431 419 431 374 431 c 2,19,-1
 247 431 l 1,20,-1
 207 250 l 1,21,-1
 352 250 l 2,22,14
 409 250 409 250 441 277 c 128,-1,15
EndSplineSet
EndChar
StartChar: germandbls
Encoding: 223 223 193
Width: 622
GlyphClass: 1
Flags: W
LayerCount: 2
Fore
SplineSet
314 106 m 0,1,2
 372 106 372 106 408.5 136.5 c 128,-1,3
 445 167 445 167 445 221 c 0,4,5
 445 272 445 272 404.5 303.5 c 128,-1,6
 364 335 364 335 298 335 c 2,7,-1
 294 335 l 1,8,-1
 317 446 l 1,9,10
 368 444 368 444 404.5 460 c 128,-1,11
 441 476 441 476 441 515 c 0,12,13
 441 544 441 544 417 560 c 128,-1,14
 393 576 393 576 358 576 c 0,15,16
 312 576 312 576 286 549.5 c 128,-1,17
 260 523 260 523 248 466 c 2,18,-1
 148 0 l 1,19,-1
 7 0 l 1,20,-1
 110 487 l 2,21,22
 131 588 131 588 189.5 634 c 128,-1,23
 248 680 248 680 343 680 c 0,24,25
 436 680 436 680 498 642 c 128,-1,26
 560 604 560 604 560 525 c 0,27,28
 560 485 560 485 537.5 448.5 c 128,-1,29
 515 412 515 412 478 389 c 1,30,31
 529 370 529 370 558.5 325.5 c 128,-1,32
 588 281 588 281 588 224 c 0,33,34
 588 151 588 151 554 97.5 c 128,-1,35
 520 44 520 44 460.5 16 c 128,-1,36
 401 -12 401 -12 328 -12 c 0,37,38
 290 -12 290 -12 238 -2 c 1,39,-1
 227 125 l 1,40,0
 268 106 268 106 314 106 c 0,1,2
EndSplineSet
EndChar
StartChar: ae
Encoding: 230 230 122
Width: 871
GlyphClass: 2
Flags: W
AnchorPoint: "Anchor-1" 489 496 basechar 0
AnchorPoint: "Anchor-0" 383 0 basechar 0
LayerCount: 2
Fore
SplineSet
46.5 22.5 m 128,-1,1
 -1 57 -1 57 -1 119 c 0,2,3
 -1 214 -1 214 85 257 c 128,-1,4
 171 300 171 300 338 300 c 2,5,-1
 369 300 l 1,6,-1
 372 315 l 2,7,8
 375 330 375 330 375 342 c 0,9,10
 375 377 375 377 352.5 394.5 c 128,-1,11
 330 412 330 412 291 412 c 0,12,13
 256 412 256 412 229.5 397 c 128,-1,14
 203 382 203 382 193 353 c 1,15,-1
 72 395 l 1,16,17
 104 454 104 454 164.5 481.5 c 128,-1,18
 225 509 225 509 294 509 c 0,19,20
 411 509 411 509 460 445 c 1,21,22
 532 509 532 509 632 509 c 0,23,24
 698 509 698 509 747.5 481 c 128,-1,25
 797 453 797 453 824 402.5 c 128,-1,26
 851 352 851 352 851 286 c 0,27,28
 851 247 851 247 843 212 c 1,29,-1
 476 212 l 1,30,31
 476 158 476 158 505.5 128.5 c 128,-1,32
 535 99 535 99 588 99 c 0,33,34
 659 99 659 99 688 138 c 1,35,-1
 802 91 l 1,36,37
 760 40 760 40 701.5 14 c 128,-1,38
 643 -12 643 -12 579 -12 c 0,39,40
 513 -12 513 -12 462.5 14.5 c 128,-1,41
 412 41 412 41 386 89 c 1,42,43
 312 -12 312 -12 170 -12 c 0,44,0
 94 -12 94 -12 46.5 22.5 c 128,-1,1
299.5 115.5 m 128,-1,46
 334 144 334 144 348 207 c 2,47,-1
 350 214 l 1,48,49
 247 216 247 216 198 198 c 128,-1,50
 149 180 149 180 149 140 c 0,51,52
 149 115 149 115 168.5 101 c 128,-1,53
 188 87 188 87 218 87 c 0,54,45
 265 87 265 87 299.5 115.5 c 128,-1,46
701 375 m 128,-1,56
 672 402 672 402 623 402 c 256,57,58
 574 402 574 402 541.5 373 c 128,-1,59
 509 344 509 344 492 299 c 1,60,-1
 728 299 l 1,61,55
 730 348 730 348 701 375 c 128,-1,56
EndSplineSet
EndChar
StartChar: ccedilla
Encoding: 231 231 127
Width: 511
GlyphClass: 2
Flags: W
AnchorPoint: "Anchor-1" 327 496 basechar 0
LayerCount: 2
Fore
SplineSet
110 -164 m 1,1,-1
 134 -118 l 1,2,3
 145 -126 145 -126 163 -132 c 128,-1,4
 181 -138 181 -138 197 -138 c 0,5,6
 216 -138 216 -138 228 -130 c 128,-1,7
 240 -122 240 -122 240 -108 c 0,8,9
 240 -97 240 -97 230.5 -90 c 128,-1,10
 221 -83 221 -83 207 -83 c 0,11,12
 195 -83 195 -83 183 -85 c 0,13,14
 172 -87 172 -87 165.5 -83 c 128,-1,15
 159 -79 159 -79 159 -71 c 0,16,17
 159 -61 159 -61 166 -53 c 2,18,-1
 203 -8 l 1,19,20
 119 5 119 5 73 60 c 128,-1,21
 27 115 27 115 27 201 c 0,22,23
 27 284 27 284 62 354.5 c 128,-1,24
 97 425 97 425 160.5 467 c 128,-1,25
 224 509 224 509 308 509 c 0,26,27
 383 509 383 509 438.5 475.5 c 128,-1,28
 494 442 494 442 517 379 c 1,29,-1
 397 338 l 1,30,31
 388 368 388 368 365.5 383 c 128,-1,32
 343 398 343 398 310 398 c 0,33,34
 262 398 262 398 230.5 367 c 128,-1,35
 199 336 199 336 184.5 292 c 128,-1,36
 170 248 170 248 170 208 c 0,37,38
 170 157 170 157 194.5 128 c 128,-1,39
 219 99 219 99 268 99 c 0,40,41
 333 99 333 99 363 149 c 1,42,-1
 478 101 l 1,43,44
 437 41 437 41 382 15 c 128,-1,45
 327 -11 327 -11 255 -12 c 1,46,-1
 227 -46 l 1,47,48
 232 -45 232 -45 242 -45 c 0,49,50
 280 -45 280 -45 304.5 -61.5 c 128,-1,51
 329 -78 329 -78 329 -106 c 0,52,53
 329 -146 329 -146 296.5 -166 c 128,-1,54
 264 -186 264 -186 214 -186 c 0,55,0
 156 -186 156 -186 110 -164 c 1,1,-1
EndSplineSet
EndChar
StartChar: eth
Encoding: 240 240 132
Width: 589
GlyphClass: 2
Flags: W
AnchorPoint: "Anchor-1" 410 796 basechar 0
AnchorPoint: "Anchor-0" 241 0 basechar 0
LayerCount: 2
Fore
SplineSet
138 13 m 128,-1,1
 84 38 84 38 54 84.5 c 128,-1,2
 24 131 24 131 24 193 c 0,3,4
 24 266 24 266 58.5 325 c 128,-1,5
 93 384 93 384 151.5 417.5 c 128,-1,6
 210 451 210 451 280 451 c 0,7,8
 328 451 328 451 367.5 432.5 c 128,-1,9
 407 414 407 414 433 378 c 1,10,11
 438 410 438 410 438 436 c 0,12,13
 438 507 438 507 404 549 c 1,14,-1
 325 491 l 1,15,-1
 285 542 l 1,16,-1
 354 592 l 1,17,18
 314 616 314 616 246 626 c 1,19,-1
 269 738 l 1,20,21
 388 725 388 725 458 670 c 1,22,-1
 534 727 l 1,23,-1
 575 676 l 1,24,-1
 506 626 l 1,25,26
 534 594 534 594 552.5 535 c 128,-1,27
 571 476 571 476 571 404 c 0,28,29
 571 306 571 306 538.5 210.5 c 128,-1,30
 506 115 506 115 436 51.5 c 128,-1,31
 366 -12 366 -12 261 -12 c 0,32,0
 192 -12 192 -12 138 13 c 128,-1,1
336 115.5 m 128,-1,34
 366 137 366 137 382 171.5 c 128,-1,35
 398 206 398 206 398 243 c 0,36,37
 398 290 398 290 369 316.5 c 128,-1,38
 340 343 340 343 296 343 c 0,39,40
 254 343 254 343 224.5 320 c 128,-1,41
 195 297 195 297 180.5 262 c 128,-1,42
 166 227 166 227 166 193 c 0,43,44
 166 147 166 147 193.5 120.5 c 128,-1,45
 221 94 221 94 266 94 c 0,46,33
 306 94 306 94 336 115.5 c 128,-1,34
EndSplineSet
EndChar
StartChar: divide
Encoding: 247 247 323
Width: 594
GlyphClass: 1
Flags: W
LayerCount: 2
Fore
SplineSet
56 308 m 1,0,-1
 565 308 l 1,1,-1
 539 188 l 1,2,-1
 29 188 l 1,3,-1
 56 308 l 1,0,-1
205.5 15 m 128,-1,5
 183 38 183 38 183 70 c 0,6,7
 183 101 183 101 205.5 123.5 c 128,-1,8
 228 146 228 146 259 146 c 0,9,10
 291 146 291 146 313.5 123.5 c 128,-1,11
 336 101 336 101 336 70 c 0,12,13
 336 38 336 38 313.5 15 c 128,-1,14
 291 -8 291 -8 259 -8 c 0,15,4
 228 -8 228 -8 205.5 15 c 128,-1,5
281.5 372.5 m 128,-1,17
 259 395 259 395 259 427 c 256,18,19
 259 459 259 459 281.5 481.5 c 128,-1,20
 304 504 304 504 335 504 c 0,21,22
 367 504 367 504 389.5 481.5 c 128,-1,23
 412 459 412 459 412 427 c 256,24,25
 412 395 412 395 389.5 372.5 c 128,-1,26
 367 350 367 350 335 350 c 0,27,16
 304 350 304 350 281.5 372.5 c 128,-1,17
EndSplineSet
EndChar
StartChar: oslash
Encoding: 248 248 179
Width: 576
GlyphClass: 2
Flags: W
AnchorPoint: "Anchor-3" 605 496 basechar 0
AnchorPoint: "Anchor-1" 335 496 basechar 0
AnchorPoint: "Anchor-0" 235 0 basechar 0
LayerCount: 2
Fore
SplineSet
110 34 m 1,1,-1
 48 -24 l 1,2,-1
 -1 25 l 1,3,-1
 63 84 l 1,4,5
 29 137 29 137 29 209 c 0,6,7
 29 290 29 290 64.5 358.5 c 128,-1,8
 100 427 100 427 165.5 468 c 128,-1,9
 231 509 231 509 316 509 c 0,10,11
 406 509 406 509 467 463 c 1,12,-1
 528 520 l 1,13,-1
 576 471 l 1,14,-1
 514 413 l 1,15,16
 548 360 548 360 548 288 c 0,17,18
 548 207 548 207 512.5 138.5 c 128,-1,19
 477 70 477 70 411.5 29 c 128,-1,20
 346 -12 346 -12 260 -12 c 0,21,0
 170 -12 170 -12 110 34 c 1,1,-1
344 129.5 m 128,-1,23
 375 160 375 160 389.5 203.5 c 128,-1,24
 404 247 404 247 404 287 c 0,25,26
 404 301 404 301 402 308 c 1,27,-1
 203 121 l 1,28,29
 227 99 227 99 265 99 c 0,30,22
 313 99 313 99 344 129.5 c 128,-1,23
174 189 m 1,32,-1
 374 376 l 1,33,34
 350 398 350 398 311 398 c 0,35,36
 263 398 263 398 232 367.5 c 128,-1,37
 201 337 201 337 186.5 293.5 c 128,-1,38
 172 250 172 250 172 210 c 0,39,31
 172 203 172 203 174 189 c 1,32,-1
EndSplineSet
EndChar
StartChar: thorn
Encoding: 254 254 183
Width: 598
GlyphClass: 2
Flags: W
AnchorPoint: "Anchor-1" 352 496 basechar 0
AnchorPoint: "Anchor-0" 246 0 basechar 0
LayerCount: 2
Fore
SplineSet
154 708 m 1,0,-1
 295 708 l 1,1,-1
 238 435 l 1,2,3
 264 470 264 470 306.5 489.5 c 128,-1,4
 349 509 349 509 395 509 c 0,5,6
 440 509 440 509 481 486.5 c 128,-1,7
 522 464 522 464 547.5 417.5 c 128,-1,8
 573 371 573 371 573 304 c 0,9,10
 573 233 573 233 543 159.5 c 128,-1,11
 513 86 513 86 453.5 37 c 128,-1,12
 394 -12 394 -12 311 -12 c 0,13,14
 260 -12 260 -12 218 12.5 c 128,-1,15
 176 37 176 37 162 77 c 1,16,-1
 111 -162 l 1,17,-1
 -30 -162 l 1,18,-1
 154 708 l 1,0,-1
359.5 130.5 m 128,-1,20
 392 162 392 162 408 206 c 128,-1,21
 424 250 424 250 424 287 c 0,22,23
 424 339 424 339 399.5 368.5 c 128,-1,24
 375 398 375 398 330 398 c 0,25,26
 284 398 284 398 252 366 c 128,-1,27
 220 334 220 334 204.5 289 c 128,-1,28
 189 244 189 244 189 207 c 0,29,30
 189 156 189 156 214 127.5 c 128,-1,31
 239 99 239 99 280 99 c 0,32,19
 327 99 327 99 359.5 130.5 c 128,-1,20
EndSplineSet
EndChar
StartChar: Aogonek
Encoding: 260 260 9
Width: 680
GlyphClass: 2
Flags: W
AnchorPoint: "Anchor-1" 429 668 basechar 0
AnchorPoint: "Anchor-0" 287 0 basechar 0
LayerCount: 2
Fore
SplineSet
436.5 -153 m 128,-1,1
 391 -132 391 -132 391 -90 c 0,2,3
 391 -63 391 -63 414.5 -38 c 128,-1,4
 438 -13 438 -13 464 1 c 1,5,-1
 448 123 l 1,6,-1
 184 123 l 1,7,-1
 117 0 l 1,8,-1
 -47 0 l 1,9,-1
 348 668 l 1,10,-1
 510 668 l 1,11,-1
 621 0 l 1,12,13
 586 -4 586 -4 550 -25.5 c 128,-1,14
 514 -47 514 -47 514 -72 c 0,15,16
 514 -86 514 -86 527 -93.5 c 128,-1,17
 540 -101 540 -101 559 -101 c 0,18,19
 584 -101 584 -101 602 -96 c 1,20,-1
 586 -171 l 1,21,22
 573 -174 573 -174 544 -174 c 0,23,0
 482 -174 482 -174 436.5 -153 c 128,-1,1
433 244 m 1,24,-1
 399 512 l 1,25,-1
 251 244 l 1,26,-1
 433 244 l 1,24,-1
EndSplineSet
EndChar
StartChar: aogonek
Encoding: 261 261 119
Width: 553
GlyphClass: 2
Flags: W
AnchorPoint: "Anchor-1" 315 496 basechar 0
AnchorPoint: "Anchor-0" 221 0 basechar 0
LayerCount: 2
Fore
SplineSet
272 -153.5 m 128,-1,1
 227 -133 227 -133 227 -92 c 0,2,3
 227 -31 227 -31 326 10 c 1,4,-1
 323 60 l 1,5,6
 258 -12 258 -12 154 -12 c 0,7,8
 89 -12 89 -12 44 23 c 128,-1,9
 -1 58 -1 58 -1 119 c 0,10,11
 -1 215 -1 215 90 261.5 c 128,-1,12
 181 308 181 308 372 307 c 1,13,-1
 375 320 l 2,14,15
 378 334 378 334 378 344 c 0,16,17
 378 377 378 377 354.5 394.5 c 128,-1,18
 331 412 331 412 291 412 c 0,19,20
 256 412 256 412 229.5 397 c 128,-1,21
 203 382 203 382 193 353 c 1,22,-1
 72 395 l 1,23,24
 104 454 104 454 165 481.5 c 128,-1,25
 226 509 226 509 297 509 c 0,26,27
 396 509 396 509 452 467 c 128,-1,28
 508 425 508 425 508 344 c 0,29,30
 508 319 508 319 502 289 c 2,31,-1
 481 187 l 2,32,33
 469 133 469 133 463 82.5 c 128,-1,34
 457 32 457 32 458 0 c 1,35,36
 413 -8 413 -8 380.5 -27.5 c 128,-1,37
 348 -47 348 -47 348 -69 c 0,38,39
 348 -85 348 -85 361.5 -93 c 128,-1,40
 375 -101 375 -101 395 -101 c 0,41,42
 417 -101 417 -101 437 -97 c 1,43,-1
 422 -171 l 1,44,45
 406 -174 406 -174 378 -174 c 0,46,0
 317 -174 317 -174 272 -153.5 c 128,-1,1
301 115 m 128,-1,48
 336 144 336 144 350 207 c 2,49,-1
 353 221 l 1,50,51
 248 221 248 221 198.5 201.5 c 128,-1,52
 149 182 149 182 149 141 c 0,53,54
 149 115 149 115 169 100.5 c 128,-1,55
 189 86 189 86 218 86 c 0,56,47
 266 86 266 86 301 115 c 128,-1,48
EndSplineSet
EndChar
StartChar: Dcroat
Encoding: 272 272 21
Width: 709
GlyphClass: 1
Flags: W
LayerCount: 2
Fore
SplineSet
87 285 m 1,0,-1
 21 285 l 1,1,-1
 47 406 l 1,2,-1
 113 406 l 1,3,-1
 168 668 l 1,4,-1
 327 668 l 2,5,6
 500 668 500 668 598 598.5 c 128,-1,7
 696 529 696 529 696 394 c 0,8,9
 696 300 696 300 661.5 210.5 c 128,-1,10
 627 121 627 121 543 60.5 c 128,-1,11
 459 0 459 0 321 0 c 2,12,-1
 26 0 l 1,13,-1
 87 285 l 1,0,-1
449 160 m 128,-1,15
 496 195 496 195 520 252 c 128,-1,16
 544 309 544 309 544 375 c 0,17,18
 544 545 544 545 329 545 c 2,19,-1
 290 545 l 1,20,-1
 261 406 l 1,21,-1
 407 406 l 1,22,-1
 381 285 l 1,23,-1
 235 285 l 1,24,-1
 201 125 l 1,25,-1
 334 125 l 2,26,14
 402 125 402 125 449 160 c 128,-1,15
EndSplineSet
EndChar
StartChar: dcroat
Encoding: 273 273 131
Width: 597
GlyphClass: 1
Flags: W
LayerCount: 2
Fore
SplineSet
117 10.5 m 128,-1,1
 76 33 76 33 50.5 79.5 c 128,-1,2
 25 126 25 126 25 193 c 0,3,4
 25 264 25 264 55 337.5 c 128,-1,5
 85 411 85 411 144.5 460 c 128,-1,6
 204 509 204 509 287 509 c 0,7,8
 338 509 338 509 379 485.5 c 128,-1,9
 420 462 420 462 435 422 c 1,10,-1
 462 545 l 1,11,-1
 326 545 l 1,12,-1
 342 622 l 1,13,-1
 479 622 l 1,14,-1
 497 708 l 1,15,-1
 638 708 l 1,16,-1
 620 622 l 1,17,-1
 704 622 l 1,18,-1
 689 545 l 1,19,-1
 604 545 l 1,20,-1
 529 195 l 2,21,22
 506 83 506 83 504 0 c 1,23,-1
 370 0 l 1,24,-1
 365 63 l 1,25,26
 335 27 335 27 291.5 7.5 c 128,-1,27
 248 -12 248 -12 204 -12 c 0,28,0
 158 -12 158 -12 117 10.5 c 128,-1,1
345 130.5 m 128,-1,30
 377 162 377 162 393 207 c 128,-1,31
 409 252 409 252 409 290 c 0,32,33
 409 342 409 342 384.5 370 c 128,-1,34
 360 398 360 398 318 398 c 0,35,36
 271 398 271 398 238.5 367 c 128,-1,37
 206 336 206 336 190 292 c 128,-1,38
 174 248 174 248 174 210 c 0,39,40
 174 159 174 159 199 129 c 128,-1,41
 224 99 224 99 267 99 c 0,42,29
 313 99 313 99 345 130.5 c 128,-1,30
EndSplineSet
EndChar
StartChar: Eogonek
Encoding: 280 280 31
Width: 599
GlyphClass: 2
Flags: W
AnchorPoint: "Anchor-1" 290 668 basechar 0
AnchorPoint: "Anchor-0" 247 0 basechar 0
LayerCount: 2
Fore
SplineSet
148 668 m 1,0,-1
 649 668 l 1,1,-1
 621 538 l 1,2,-1
 268 538 l 1,3,-1
 242 408 l 1,4,-1
 466 408 l 1,5,-1
 438 279 l 1,6,-1
 213 279 l 1,7,-1
 182 130 l 1,8,-1
 539 130 l 1,9,-1
 511 0 l 1,10,11
 476 -4 476 -4 440 -25.5 c 128,-1,12
 404 -47 404 -47 404 -72 c 0,13,14
 404 -86 404 -86 417 -93.5 c 128,-1,15
 430 -101 430 -101 449 -101 c 0,16,17
 473 -101 473 -101 491 -96 c 1,18,-1
 476 -171 l 1,19,20
 461 -174 461 -174 434 -174 c 0,21,22
 371 -174 371 -174 326 -153 c 128,-1,23
 281 -132 281 -132 281 -90 c 0,24,25
 281 -62 281 -62 304 -38.5 c 128,-1,26
 327 -15 327 -15 362 0 c 1,27,-1
 6 0 l 1,28,-1
 148 668 l 1,0,-1
EndSplineSet
EndChar
StartChar: eogonek
Encoding: 281 281 141
Width: 564
GlyphClass: 2
Flags: W
AnchorPoint: "Anchor-1" 338 496 basechar 0
AnchorPoint: "Anchor-0" 233 0 basechar 0
LayerCount: 2
Fore
SplineSet
256.5 -152.5 m 128,-1,1
 212 -131 212 -131 212 -86 c 0,2,3
 212 -47 212 -47 257 -12 c 1,4,5
 153 -8 153 -8 91 52.5 c 128,-1,6
 29 113 29 113 29 211 c 0,7,8
 29 292 29 292 66.5 360.5 c 128,-1,9
 104 429 104 429 170.5 469 c 128,-1,10
 237 509 237 509 319 509 c 0,11,12
 386 509 386 509 437 480.5 c 128,-1,13
 488 452 488 452 516 401.5 c 128,-1,14
 544 351 544 351 544 286 c 0,15,16
 544 250 544 250 535 211 c 1,17,-1
 163 211 l 1,18,19
 165 157 165 157 196.5 128 c 128,-1,20
 228 99 228 99 281 99 c 0,21,22
 351 99 351 99 381 138 c 1,23,-1
 495 91 l 1,24,25
 478 70 478 70 456.5 53.5 c 128,-1,26
 435 37 435 37 404 19 c 0,27,28
 374 2 374 2 353.5 -20.5 c 128,-1,29
 333 -43 333 -43 333 -65 c 0,30,31
 333 -83 333 -83 346 -92 c 128,-1,32
 359 -101 359 -101 381 -101 c 0,33,34
 408 -101 408 -101 421 -96 c 1,35,-1
 404 -172 l 1,36,37
 393 -174 393 -174 367 -174 c 0,38,0
 301 -174 301 -174 256.5 -152.5 c 128,-1,1
393.5 375 m 128,-1,40
 364 402 364 402 315 402 c 0,41,42
 262 402 262 402 228 373 c 128,-1,43
 194 344 194 344 177 299 c 1,44,-1
 421 299 l 1,45,39
 423 348 423 348 393.5 375 c 128,-1,40
EndSplineSet
EndChar
StartChar: hbar
Encoding: 295 295 148
Width: 572
GlyphClass: 1
Flags: W
LayerCount: 2
Fore
SplineSet
118 545 m 1,0,-1
 33 545 l 1,1,-1
 49 622 l 1,2,-1
 135 622 l 1,3,-1
 153 708 l 1,4,-1
 294 708 l 1,5,-1
 276 622 l 1,6,-1
 412 622 l 1,7,-1
 396 545 l 1,8,-1
 260 545 l 1,9,-1
 236 429 l 1,10,11
 259 463 259 463 301 486 c 128,-1,12
 343 509 343 509 395 509 c 0,13,14
 462 509 462 509 499.5 472.5 c 128,-1,15
 537 436 537 436 537 368 c 0,16,17
 537 340 537 340 529 302 c 2,18,-1
 465 0 l 1,19,-1
 323 0 l 1,20,-1
 384 281 l 2,21,22
 389 301 389 301 389 325 c 0,23,24
 389 398 389 398 323 398 c 0,25,26
 274 398 274 398 243.5 362.5 c 128,-1,27
 213 327 213 327 199 256 c 2,28,-1
 144 0 l 1,29,-1
 3 0 l 1,30,-1
 118 545 l 1,0,-1
EndSplineSet
EndChar
StartChar: Iogonek
Encoding: 302 302 47
Width: 427
GlyphClass: 2
Flags: W
AnchorPoint: "Anchor-1" 303 668 basechar 0
AnchorPoint: "Anchor-0" 161 0 basechar 0
LayerCount: 2
Fore
SplineSet
17 109 m 1,0,-1
 110 109 l 1,1,-1
 205 559 l 1,2,-1
 112 559 l 1,3,-1
 136 668 l 1,4,-1
 470 668 l 1,5,-1
 446 559 l 1,6,-1
 353 559 l 1,7,-1
 258 109 l 1,8,-1
 351 109 l 1,9,-1
 328 0 l 1,10,11
 293 -4 293 -4 257 -25.5 c 128,-1,12
 221 -47 221 -47 221 -72 c 0,13,14
 221 -86 221 -86 234 -93.5 c 128,-1,15
 247 -101 247 -101 266 -101 c 0,16,17
 290 -101 290 -101 308 -96 c 1,18,-1
 293 -171 l 1,19,20
 278 -174 278 -174 250 -174 c 0,21,22
 188 -174 188 -174 143 -153 c 128,-1,23
 98 -132 98 -132 98 -90 c 0,24,25
 98 -62 98 -62 121 -38.5 c 128,-1,26
 144 -15 144 -15 179 0 c 1,27,-1
 -6 0 l 1,28,-1
 17 109 l 1,0,-1
EndSplineSet
EndChar
StartChar: iogonek
Encoding: 303 303 156
Width: 301
GlyphClass: 2
Flags: W
AnchorPoint: "Anchor-1" 269 751 basechar 0
AnchorPoint: "Anchor-0" 79 0 basechar 0
LayerCount: 2
Fore
SplineSet
190 605 m 128,-1,1
 165 630 165 630 165 666 c 0,2,3
 165 701 165 701 190 726 c 128,-1,4
 215 751 215 751 251 751 c 0,5,6
 286 751 286 751 311 726 c 128,-1,7
 336 701 336 701 336 666 c 0,8,9
 336 630 336 630 311 605 c 128,-1,10
 286 580 286 580 251 580 c 0,11,0
 215 580 215 580 190 605 c 128,-1,1
3.5 -153.5 m 128,-1,13
 -42 -133 -42 -133 -42 -92 c 0,14,15
 -42 -35 -42 -35 50 7 c 1,16,-1
 131 389 l 1,17,-1
 50 389 l 1,18,-1
 74 496 l 1,19,-1
 296 496 l 1,20,-1
 190 0 l 1,21,22
 145 -8 145 -8 112.5 -27.5 c 128,-1,23
 80 -47 80 -47 80 -69 c 0,24,25
 80 -85 80 -85 93.5 -93 c 128,-1,26
 107 -101 107 -101 127 -101 c 0,27,28
 149 -101 149 -101 169 -97 c 1,29,-1
 153 -171 l 1,30,31
 138 -174 138 -174 110 -174 c 0,32,12
 49 -174 49 -174 3.5 -153.5 c 128,-1,13
EndSplineSet
EndChar
StartChar: dotlessi
Encoding: 305 305 150
Width: 301
GlyphClass: 2
Flags: W
AnchorPoint: "Anchor-2" 192 10 basechar 0
AnchorPoint: "Anchor-1" 215 496 basechar 0
AnchorPoint: "Anchor-0" 79 0 basechar 0
LayerCount: 2
Fore
SplineSet
131 389 m 1,0,-1
 50 389 l 1,1,-1
 74 496 l 1,2,-1
 296 496 l 1,3,-1
 190 0 l 1,4,-1
 49 0 l 1,5,-1
 131 389 l 1,0,-1
EndSplineSet
EndChar
StartChar: Lslash
Encoding: 321 321 55
Width: 582
GlyphClass: 1
Flags: W
LayerCount: 2
Fore
SplineSet
85 228 m 1,0,-1
 -3 182 l 1,1,-1
 22 301 l 1,2,-1
 110 347 l 1,3,-1
 178 668 l 1,4,-1
 326 668 l 1,5,-1
 276 434 l 1,6,-1
 458 528 l 1,7,-1
 433 410 l 1,8,-1
 252 315 l 1,9,-1
 212 130 l 1,10,-1
 539 130 l 1,11,-1
 511 0 l 1,12,-1
 36 0 l 1,13,-1
 85 228 l 1,0,-1
EndSplineSet
EndChar
StartChar: lslash
Encoding: 322 322 166
Width: 351
GlyphClass: 1
Flags: W
LayerCount: 2
Fore
SplineSet
82.5 21.5 m 128,-1,1
 45 43 45 43 45 94 c 0,2,3
 45 113 45 113 52 150 c 2,4,-1
 74 255 l 1,5,-1
 22 229 l 1,6,-1
 47 343 l 1,7,-1
 99 368 l 1,8,-1
 171 708 l 1,9,-1
 312 708 l 1,10,-1
 255 443 l 1,11,-1
 365 496 l 1,12,-1
 340 382 l 1,13,-1
 231 330 l 1,14,-1
 198 179 l 2,15,16
 195 164 195 164 195 153 c 0,17,18
 195 131 195 131 209 123.5 c 128,-1,19
 223 116 223 116 257 116 c 2,20,-1
 292 116 l 1,21,-1
 268 0 l 1,22,-1
 210 0 l 2,23,0
 120 0 120 0 82.5 21.5 c 128,-1,1
EndSplineSet
EndChar
StartChar: OE
Encoding: 338 338 70
Width: 1025
GlyphClass: 2
Flags: W
AnchorPoint: "Anchor-1" 608 668 basechar 0
AnchorPoint: "Anchor-0" 466 0 basechar 0
LayerCount: 2
Fore
SplineSet
174 24 m 128,-1,1
 113 60 113 60 80.5 124.5 c 128,-1,2
 48 189 48 189 48 272 c 0,3,4
 48 377 48 377 93.5 471 c 128,-1,5
 139 565 139 565 223 622.5 c 128,-1,6
 307 680 307 680 418 680 c 0,7,8
 538 680 538 680 599 611 c 1,9,-1
 611 668 l 1,10,-1
 1076 668 l 1,11,-1
 1048 538 l 1,12,-1
 721 538 l 1,13,-1
 694 408 l 1,14,-1
 893 408 l 1,15,-1
 865 279 l 1,16,-1
 666 279 l 1,17,-1
 635 130 l 1,18,-1
 966 130 l 1,19,-1
 938 0 l 1,20,-1
 469 0 l 1,21,-1
 476 33 l 1,22,23
 404 -12 404 -12 317 -12 c 0,24,0
 235 -12 235 -12 174 24 c 128,-1,1
458 158.5 m 128,-1,26
 503 207 503 207 525 275.5 c 128,-1,27
 547 344 547 344 547 402 c 0,28,29
 547 475 547 475 512.5 516.5 c 128,-1,30
 478 558 478 558 409 558 c 0,31,32
 338 558 338 558 292 512 c 128,-1,33
 246 466 246 466 224.5 399.5 c 128,-1,34
 203 333 203 333 203 272 c 0,35,36
 203 196 203 196 240.5 153 c 128,-1,37
 278 110 278 110 347 110 c 0,38,25
 413 110 413 110 458 158.5 c 128,-1,26
EndSplineSet
EndChar
StartChar: oe
Encoding: 339 339 181
Width: 935
GlyphClass: 2
Flags: W
AnchorPoint: "Anchor-1" 609 496 basechar 0
AnchorPoint: "Anchor-0" 504 0 basechar 0
LayerCount: 2
Fore
SplineSet
528.5 9.5 m 128,-1,1
 480 31 480 31 450 69 c 1,2,3
 413 30 413 30 363.5 9 c 128,-1,4
 314 -12 314 -12 255 -12 c 0,5,6
 190 -12 190 -12 138.5 14.5 c 128,-1,7
 87 41 87 41 57.5 91 c 128,-1,8
 28 141 28 141 28 208 c 0,9,10
 28 286 28 286 62 355 c 128,-1,11
 96 424 96 424 159.5 466.5 c 128,-1,12
 223 509 223 509 308 509 c 0,13,14
 366 509 366 509 413 488 c 128,-1,15
 460 467 460 467 490 428 c 1,16,17
 528 467 528 467 579.5 488 c 128,-1,18
 631 509 631 509 690 509 c 0,19,20
 758 509 758 509 809 481 c 128,-1,21
 860 453 860 453 887.5 402.5 c 128,-1,22
 915 352 915 352 915 286 c 0,23,24
 915 250 915 250 906 211 c 1,25,-1
 534 211 l 1,26,27
 536 160 536 160 566 129.5 c 128,-1,28
 596 99 596 99 651 99 c 0,29,30
 722 99 722 99 751 138 c 1,31,-1
 866 91 l 1,32,33
 824 40 824 40 765 14 c 128,-1,34
 706 -12 706 -12 640 -12 c 0,35,0
 577 -12 577 -12 528.5 9.5 c 128,-1,1
344 129 m 128,-1,37
 376 160 376 160 391 204.5 c 128,-1,38
 406 249 406 249 406 288 c 0,39,40
 406 337 406 337 382.5 367.5 c 128,-1,41
 359 398 359 398 312 398 c 0,42,43
 264 398 264 398 232.5 367.5 c 128,-1,44
 201 337 201 337 186 293.5 c 128,-1,45
 171 250 171 250 171 210 c 0,46,47
 171 160 171 160 194.5 129 c 128,-1,48
 218 98 218 98 265 98 c 256,49,36
 312 98 312 98 344 129 c 128,-1,37
764 375 m 128,-1,51
 735 402 735 402 685 402 c 0,52,53
 633 402 633 402 599 373.5 c 128,-1,54
 565 345 565 345 548 299 c 1,55,-1
 791 299 l 1,56,50
 793 348 793 348 764 375 c 128,-1,51
EndSplineSet
EndChar
StartChar: Scedilla
Encoding: 350 350 80
Width: 611
GlyphClass: 2
Flags: W
AnchorPoint: "Anchor-1" 393 668 basechar 0
LayerCount: 2
Fore
SplineSet
160 -164 m 1,1,-1
 185 -118 l 1,2,3
 196 -126 196 -126 214 -132 c 128,-1,4
 232 -138 232 -138 248 -138 c 0,5,6
 267 -138 267 -138 279 -130 c 128,-1,7
 291 -122 291 -122 291 -108 c 0,8,9
 291 -97 291 -97 281.5 -90 c 128,-1,10
 272 -83 272 -83 258 -83 c 0,11,12
 245 -83 245 -83 233 -85 c 0,13,14
 222 -87 222 -87 216 -82.5 c 128,-1,15
 210 -78 210 -78 210 -70 c 256,16,17
 210 -62 210 -62 216 -53 c 2,18,-1
 251 -10 l 1,19,20
 164 -3 164 -3 100.5 40.5 c 128,-1,21
 37 84 37 84 16 160 c 1,22,-1
 153 204 l 1,23,24
 162 158 162 158 205.5 133 c 128,-1,25
 249 108 249 108 307 108 c 0,26,27
 358 108 358 108 392.5 129 c 128,-1,28
 427 150 427 150 427 192 c 0,29,30
 427 218 427 218 403 236 c 128,-1,31
 379 254 379 254 324 272 c 2,32,-1
 247 298 l 2,33,34
 176 322 176 322 132.5 364 c 128,-1,35
 89 406 89 406 89 467 c 0,36,37
 89 532 89 532 128 580.5 c 128,-1,38
 167 629 167 629 231 654.5 c 128,-1,39
 295 680 295 680 369 680 c 0,40,41
 457 680 457 680 524.5 642.5 c 128,-1,42
 592 605 592 605 615 534 c 1,43,-1
 482 487 l 1,44,45
 469 524 469 524 431.5 542.5 c 128,-1,46
 394 561 394 561 346 561 c 0,47,48
 300 561 300 561 268.5 542.5 c 128,-1,49
 237 524 237 524 237 488 c 0,50,51
 237 444 237 444 306 421 c 2,52,-1
 391 393 l 2,53,54
 475 364 475 364 525.5 324 c 128,-1,55
 576 284 576 284 576 216 c 0,56,57
 576 151 576 151 539.5 100 c 128,-1,58
 503 49 503 49 441.5 20.5 c 128,-1,59
 380 -8 380 -8 306 -12 c 1,60,-1
 277 -46 l 1,61,-1
 293 -45 l 2,62,63
 331 -45 331 -45 355.5 -61.5 c 128,-1,64
 380 -78 380 -78 380 -106 c 0,65,66
 380 -146 380 -146 347.5 -166 c 128,-1,67
 315 -186 315 -186 265 -186 c 0,68,0
 206 -186 206 -186 160 -164 c 1,1,-1
EndSplineSet
Substitution2: "'locl' Localized Forms in Latin lookup 4 subtable" uni0218
AlternateSubs2: "'aalt' Access All Alternates in Latin lookup 0 subtable" uni0218
EndChar
StartChar: scedilla
Encoding: 351 351 191
Width: 510
GlyphClass: 2
Flags: W
AnchorPoint: "Anchor-1" 301 496 basechar 0
LayerCount: 2
Fore
SplineSet
98 -164 m 1,1,-1
 123 -118 l 1,2,3
 134 -126 134 -126 151.5 -132 c 128,-1,4
 169 -138 169 -138 185 -138 c 0,5,6
 205 -138 205 -138 217 -130 c 128,-1,7
 229 -122 229 -122 229 -108 c 0,8,9
 229 -97 229 -97 219.5 -90 c 128,-1,10
 210 -83 210 -83 196 -83 c 0,11,12
 183 -83 183 -83 171 -85 c 0,13,14
 160 -87 160 -87 153.5 -83 c 128,-1,15
 147 -79 147 -79 147 -71 c 0,16,17
 147 -61 147 -61 154 -53 c 2,18,-1
 190 -10 l 1,19,20
 123 1 123 1 72 32.5 c 128,-1,21
 21 64 21 64 1 118 c 1,22,-1
 122 159 l 1,23,24
 130 126 130 126 165 108.5 c 128,-1,25
 200 91 200 91 244 91 c 0,26,27
 279 91 279 91 306.5 103.5 c 128,-1,28
 334 116 334 116 334 142 c 0,29,30
 334 158 334 158 317.5 170 c 128,-1,31
 301 182 301 182 264 194 c 2,32,-1
 188 216 l 2,33,34
 59 257 59 257 59 349 c 0,35,36
 59 426 59 426 124 467.5 c 128,-1,37
 189 509 189 509 282 509 c 0,38,39
 357 509 357 509 416 480 c 128,-1,40
 475 451 475 451 496 393 c 1,41,-1
 376 351 l 1,42,43
 359 406 359 406 273 406 c 0,44,45
 241 406 241 406 218 396 c 128,-1,46
 195 386 195 386 195 362 c 0,47,48
 195 347 195 347 208 336 c 128,-1,49
 221 325 221 325 250 315 c 2,50,-1
 326 293 l 2,51,52
 402 269 402 269 436.5 238.5 c 128,-1,53
 471 208 471 208 471 161 c 0,54,55
 471 80 471 80 406.5 34 c 128,-1,56
 342 -12 342 -12 243 -13 c 1,57,-1
 215 -46 l 1,58,-1
 231 -45 l 2,59,60
 269 -45 269 -45 293 -61.5 c 128,-1,61
 317 -78 317 -78 317 -106 c 0,62,63
 317 -146 317 -146 284.5 -166 c 128,-1,64
 252 -186 252 -186 202 -186 c 0,65,0
 144 -186 144 -186 98 -164 c 1,1,-1
EndSplineSet
Substitution2: "'locl' Localized Forms in Latin lookup 4 subtable" uni0219
AlternateSubs2: "'aalt' Access All Alternates in Latin lookup 0 subtable" uni0219
EndChar
StartChar: uni0162
Encoding: 354 354 85
Width: 609
GlyphClass: 2
Flags: W
AnchorPoint: "Anchor-1" 394 668 basechar 0
LayerCount: 2
Fore
SplineSet
292 538 m 1,0,-1
 76 538 l 1,1,-1
 104 668 l 1,2,-1
 684 668 l 1,3,-1
 656 538 l 1,4,-1
 440 538 l 1,5,-1
 326 0 l 1,6,-1
 281 0 l 1,7,-1
 243 -46 l 1,8,9
 248 -45 248 -45 258 -45 c 0,10,11
 296 -45 296 -45 320.5 -61.5 c 128,-1,12
 345 -78 345 -78 345 -106 c 0,13,14
 345 -146 345 -146 312.5 -166 c 128,-1,15
 280 -186 280 -186 230 -186 c 0,16,17
 172 -186 172 -186 126 -164 c 1,18,-1
 150 -118 l 1,19,20
 161 -126 161 -126 179 -132 c 128,-1,21
 197 -138 197 -138 213 -138 c 0,22,23
 232 -138 232 -138 244 -130 c 128,-1,24
 256 -122 256 -122 256 -108 c 0,25,26
 256 -97 256 -97 246.5 -90 c 128,-1,27
 237 -83 237 -83 223 -83 c 0,28,29
 211 -83 211 -83 199 -85 c 0,30,31
 188 -87 188 -87 181.5 -83 c 128,-1,32
 175 -79 175 -79 175 -71 c 0,33,34
 175 -61 175 -61 182 -53 c 2,35,-1
 225 0 l 1,36,-1
 178 0 l 1,37,-1
 292 538 l 1,0,-1
EndSplineSet
Substitution2: "'locl' Localized Forms in Latin lookup 4 subtable" uni021A
AlternateSubs2: "'aalt' Access All Alternates in Latin lookup 0 subtable" uni021A
EndChar
StartChar: uni0163
Encoding: 355 355 196
Width: 377
GlyphClass: 2
Flags: W
AnchorPoint: "Anchor-3" 322 552 basechar 0
AnchorPoint: "Anchor-1" 236 496 basechar 0
LayerCount: 2
Fore
SplineSet
41 -164 m 1,1,-1
 65 -118 l 1,2,3
 76 -126 76 -126 94 -132 c 128,-1,4
 112 -138 112 -138 128 -138 c 0,5,6
 147 -138 147 -138 159 -130 c 128,-1,7
 171 -122 171 -122 171 -108 c 0,8,9
 171 -97 171 -97 161.5 -90 c 128,-1,10
 152 -83 152 -83 138 -83 c 0,11,12
 126 -83 126 -83 114 -85 c 0,13,14
 103 -87 103 -87 96.5 -83 c 128,-1,15
 90 -79 90 -79 90 -71 c 0,16,17
 90 -61 90 -61 97 -53 c 2,18,-1
 147 8 l 1,19,20
 104 17 104 17 85 38 c 128,-1,21
 66 59 66 59 66 96 c 0,22,23
 66 116 66 116 73 153 c 2,24,-1
 123 388 l 1,25,-1
 41 388 l 1,26,-1
 65 496 l 1,27,-1
 147 496 l 1,28,-1
 173 620 l 1,29,-1
 314 620 l 1,30,-1
 288 496 l 1,31,-1
 395 496 l 1,32,-1
 372 388 l 1,33,-1
 265 388 l 1,34,-1
 220 179 l 2,35,36
 217 166 217 166 217 155 c 0,37,38
 217 134 217 134 232 125 c 128,-1,39
 247 116 247 116 284 116 c 2,40,-1
 314 116 l 1,41,-1
 289 0 l 1,42,-1
 245 0 l 2,43,44
 210 0 210 0 198 1 c 1,45,-1
 158 -46 l 1,46,47
 163 -45 163 -45 173 -45 c 0,48,49
 211 -45 211 -45 235.5 -61.5 c 128,-1,50
 260 -78 260 -78 260 -106 c 0,51,52
 260 -146 260 -146 227.5 -166 c 128,-1,53
 195 -186 195 -186 145 -186 c 0,54,0
 87 -186 87 -186 41 -164 c 1,1,-1
EndSplineSet
Substitution2: "'locl' Localized Forms in Latin lookup 4 subtable" uni021B
AlternateSubs2: "'aalt' Access All Alternates in Latin lookup 0 subtable" uni021B
EndChar
StartChar: Uring
Encoding: 366 366 95
Width: 686
GlyphClass: 2
Flags: W
AnchorPoint: "Anchor-3" 744 668 basechar 0
AnchorPoint: "Anchor-2" 519 10 basechar 0
AnchorPoint: "Anchor-1" 483 910 basechar 0
AnchorPoint: "Anchor-0" 290 0 basechar 0
LayerCount: 2
Fore
SplineSet
133.5 36.5 m 128,-1,1
 58 85 58 85 58 206 c 0,2,3
 58 254 58 254 71 310 c 2,4,-1
 147 668 l 1,5,-1
 295 668 l 1,6,-1
 214 279 l 2,7,8
 207 247 207 247 207 217 c 0,9,10
 207 162 207 162 239 136 c 128,-1,11
 271 110 271 110 338 110 c 0,12,13
 401 110 401 110 433.5 148 c 128,-1,14
 466 186 466 186 483 264 c 2,15,-1
 569 668 l 1,16,-1
 717 668 l 1,17,-1
 630 260 l 2,18,19
 600 120 600 120 530.5 54 c 128,-1,20
 461 -12 461 -12 332 -12 c 0,21,0
 209 -12 209 -12 133.5 36.5 c 128,-1,1
369.5 674 m 128,-1,23
 340 691 340 691 322.5 720.5 c 128,-1,24
 305 750 305 750 305 785 c 256,25,26
 305 820 305 820 322.5 849.5 c 128,-1,27
 340 879 340 879 369.5 896 c 128,-1,28
 399 913 399 913 433 913 c 0,29,30
 468 913 468 913 497.5 896 c 128,-1,31
 527 879 527 879 544.5 849.5 c 128,-1,32
 562 820 562 820 562 785 c 256,33,34
 562 750 562 750 544.5 720.5 c 128,-1,35
 527 691 527 691 497.5 674 c 128,-1,36
 468 657 468 657 433 657 c 0,37,22
 399 657 399 657 369.5 674 c 128,-1,23
467 751 m 128,-1,39
 481 765 481 765 481 785 c 256,40,41
 481 805 481 805 467 819 c 128,-1,42
 453 833 453 833 433 833 c 0,43,44
 414 833 414 833 400 819 c 128,-1,45
 386 805 386 805 386 785 c 256,46,47
 386 765 386 765 400 751 c 128,-1,48
 414 737 414 737 433 737 c 0,49,38
 453 737 453 737 467 751 c 128,-1,39
EndSplineSet
EndChar
StartChar: Uogonek
Encoding: 370 370 94
Width: 686
GlyphClass: 2
Flags: W
AnchorPoint: "Anchor-3" 744 668 basechar 0
AnchorPoint: "Anchor-1" 431 668 basechar 0
AnchorPoint: "Anchor-0" 290 0 basechar 0
LayerCount: 2
Fore
SplineSet
333.5 -152.5 m 128,-1,1
 289 -131 289 -131 289 -86 c 0,2,3
 289 -46 289 -46 334 -12 c 1,4,5
 202 -14 202 -14 130.5 40 c 128,-1,6
 59 94 59 94 59 210 c 0,7,8
 59 255 59 255 71 310 c 2,9,-1
 147 668 l 1,10,-1
 295 668 l 1,11,-1
 214 279 l 2,12,13
 207 247 207 247 207 217 c 0,14,15
 207 162 207 162 239 136 c 128,-1,16
 271 110 271 110 338 110 c 0,17,18
 401 110 401 110 433.5 148 c 128,-1,19
 466 186 466 186 483 264 c 2,20,-1
 569 668 l 1,21,-1
 717 668 l 1,22,-1
 630 260 l 2,23,24
 610 168 610 168 575 110.5 c 128,-1,25
 540 53 540 53 483 20 c 0,26,27
 452 2 452 2 431 -20.5 c 128,-1,28
 410 -43 410 -43 410 -65 c 0,29,30
 410 -83 410 -83 423 -92 c 128,-1,31
 436 -101 436 -101 458 -101 c 0,32,33
 485 -101 485 -101 498 -96 c 1,34,-1
 481 -172 l 1,35,36
 470 -174 470 -174 444 -174 c 0,37,0
 378 -174 378 -174 333.5 -152.5 c 128,-1,1
EndSplineSet
EndChar
StartChar: uogonek
Encoding: 371 371 205
Width: 568
GlyphClass: 2
Flags: W
AnchorPoint: "Anchor-3" 594 496 basechar 0
AnchorPoint: "Anchor-1" 335 496 basechar 0
AnchorPoint: "Anchor-0" 229 0 basechar 0
LayerCount: 2
Fore
SplineSet
72.5 24.5 m 128,-1,1
 36 61 36 61 36 129 c 0,2,3
 36 158 36 158 44 196 c 2,4,-1
 107 496 l 1,5,-1
 248 496 l 1,6,-1
 190 217 l 2,7,8
 184 192 184 192 184 170 c 0,9,10
 184 99 184 99 249 99 c 0,11,12
 296 99 296 99 325 135 c 128,-1,13
 354 171 354 171 369 242 c 2,14,-1
 423 496 l 1,15,-1
 564 496 l 1,16,-1
 459 0 l 1,17,18
 414 -8 414 -8 381.5 -27.5 c 128,-1,19
 349 -47 349 -47 349 -69 c 0,20,21
 349 -85 349 -85 362.5 -93 c 128,-1,22
 376 -101 376 -101 396 -101 c 0,23,24
 418 -101 418 -101 438 -97 c 1,25,-1
 422 -171 l 1,26,27
 407 -174 407 -174 379 -174 c 0,28,29
 318 -174 318 -174 272.5 -153.5 c 128,-1,30
 227 -133 227 -133 227 -92 c 0,31,32
 227 -57 227 -57 259 -30 c 128,-1,33
 291 -3 291 -3 336 14 c 1,34,-1
 332 67 l 1,35,36
 309 32 309 32 268.5 10 c 128,-1,37
 228 -12 228 -12 176 -12 c 0,38,0
 109 -12 109 -12 72.5 24.5 c 128,-1,1
EndSplineSet
EndChar
StartChar: florin
Encoding: 402 402 295
Width: 377
GlyphClass: 1
Flags: W
LayerCount: 2
Fore
SplineSet
-65 -165 m 1,1,-1
 -39 -39 l 1,2,3
 -15 -42 -15 -42 -12 -42 c 0,4,5
 22 -42 22 -42 36 -26.5 c 128,-1,6
 50 -11 50 -11 58 29 c 2,7,-1
 135 389 l 1,8,-1
 52 389 l 1,9,-1
 76 496 l 1,10,-1
 158 496 l 1,11,-1
 175 576 l 2,12,13
 187 634 187 634 212 666 c 128,-1,14
 237 698 237 698 278.5 711.5 c 128,-1,15
 320 725 320 725 387 725 c 2,16,-1
 453 725 l 1,17,-1
 430 612 l 1,18,-1
 386 612 l 2,19,20
 347 612 347 612 332.5 603 c 128,-1,21
 318 594 318 594 313 565 c 2,22,-1
 298 496 l 1,23,-1
 405 496 l 1,24,-1
 382 389 l 1,25,-1
 274 389 l 1,26,-1
 187 -21 l 2,27,28
 170 -102 170 -102 125 -137.5 c 128,-1,29
 80 -173 80 -173 6 -173 c 0,30,0
 -38 -173 -38 -173 -65 -165 c 1,1,-1
EndSplineSet
EndChar
StartChar: uni0237
Encoding: 567 567 159
Width: 259
GlyphClass: 2
Flags: W
AnchorPoint: "Anchor-1" 183 496 basechar 0
AnchorPoint: "Anchor-0" 22 -251 basechar 0
LayerCount: 2
Fore
SplineSet
-129 -49 m 1,0,-1
 -64 -49 l 2,1,2
 -26 -49 -26 -49 -12.5 -39 c 128,-1,3
 1 -29 1 -29 8 6 c 2,4,-1
 112 496 l 1,5,-1
 254 496 l 1,6,-1
 142 -32 l 2,7,8
 130 -86 130 -86 104 -114.5 c 128,-1,9
 78 -143 78 -143 42.5 -152.5 c 128,-1,10
 7 -162 7 -162 -43 -162 c 2,11,-1
 -154 -162 l 1,12,-1
 -129 -49 l 1,0,-1
EndSplineSet
EndChar
StartChar: gravecomb
Encoding: 768 768 349
Width: 0
GlyphClass: 4
Flags: W
AnchorPoint: "Anchor-5" 290 724 basemark 0
AnchorPoint: "Anchor-5" 242 496 mark 0
AnchorPoint: "Anchor-1" 242 496 mark 0
LayerCount: 2
Fore
SplineSet
132 663 m 0,1,2
 132 686 132 686 149 704.5 c 128,-1,3
 166 723 166 723 190 723 c 0,4,5
 203 723 203 723 213.5 715 c 128,-1,6
 224 707 224 707 234 690 c 2,7,-1
 304 574 l 1,8,-1
 207 574 l 1,9,-1
 158 616 l 2,10,0
 132 641 132 641 132 663 c 0,1,2
EndSplineSet
Substitution2: "Single Substitution lookup 13 subtable" gravecomb.case
Substitution2: "'case' Case-Sensitive Forms in Latin lookup 11 subtable" gravecomb.case
AlternateSubs2: "'aalt' Access All Alternates in Latin lookup 0 subtable" gravecomb.case
EndChar
StartChar: acutecomb
Encoding: 769 769 351
Width: 0
GlyphClass: 4
Flags: W
AnchorPoint: "Anchor-5" 199 724 basemark 0
AnchorPoint: "Anchor-5" 150 496 mark 0
AnchorPoint: "Anchor-1" 150 496 mark 0
LayerCount: 2
Fore
SplineSet
264 715.5 m 128,-1,1
 278 723 278 723 297 723 c 0,2,3
 320 723 320 723 332.5 712 c 128,-1,4
 345 701 345 701 345 684 c 0,5,6
 345 663 345 663 331.5 647.5 c 128,-1,7
 318 632 318 632 293 616 c 2,8,-1
 227 574 l 1,9,-1
 111 574 l 1,10,-1
 231 690 l 2,11,0
 250 708 250 708 264 715.5 c 128,-1,1
EndSplineSet
Substitution2: "Single Substitution lookup 13 subtable" acutecomb.case
Substitution2: "'case' Case-Sensitive Forms in Latin lookup 11 subtable" acutecomb.case
AlternateSubs2: "'aalt' Access All Alternates in Latin lookup 0 subtable" acutecomb.case
EndChar
StartChar: tildecomb
Encoding: 771 771 364
Width: 0
GlyphClass: 4
Flags: W
AnchorPoint: "Anchor-5" 318 688 basemark 0
AnchorPoint: "Anchor-5" 276 496 mark 0
AnchorPoint: "Anchor-1" 276 496 mark 0
LayerCount: 2
Fore
SplineSet
325.5 576 m 128,-1,1
 308 582 308 582 288 594 c 0,2,3
 274 602 274 602 265.5 605.5 c 128,-1,4
 257 609 257 609 246 609 c 0,5,6
 229 609 229 609 216 600 c 128,-1,7
 203 591 203 591 196 574 c 1,8,-1
 111 574 l 1,9,10
 132 629 132 629 168.5 658.5 c 128,-1,11
 205 688 205 688 253 688 c 0,12,13
 276 688 276 688 292 682 c 128,-1,14
 308 676 308 676 327 664 c 0,15,16
 341 655 341 655 351 650.5 c 128,-1,17
 361 646 361 646 374 646 c 0,18,19
 395 646 395 646 419 668 c 0,20,21
 442 688 442 688 459 688 c 0,22,23
 474 688 474 688 483 679 c 128,-1,24
 492 670 492 670 492 657 c 0,25,26
 492 636 492 636 472.5 616 c 128,-1,27
 453 596 453 596 424 583 c 128,-1,28
 395 570 395 570 370 570 c 0,29,0
 343 570 343 570 325.5 576 c 128,-1,1
EndSplineSet
Substitution2: "Single Substitution lookup 13 subtable" tildecomb.case
Substitution2: "'case' Case-Sensitive Forms in Latin lookup 11 subtable" tildecomb.case
AlternateSubs2: "'aalt' Access All Alternates in Latin lookup 0 subtable" tildecomb.case
EndChar
StartChar: uni0304
Encoding: 772 772 366
Width: 0
GlyphClass: 4
Flags: W
AnchorPoint: "Anchor-5" 279 668 basemark 0
AnchorPoint: "Anchor-5" 243 496 mark 0
AnchorPoint: "Anchor-1" 243 496 mark 0
LayerCount: 2
Fore
SplineSet
131 668 m 1,0,-1
 426 668 l 1,1,-1
 407 575 l 1,2,-1
 111 575 l 1,3,-1
 131 668 l 1,0,-1
EndSplineSet
Substitution2: "Single Substitution lookup 13 subtable" uni0304.case
Substitution2: "'case' Case-Sensitive Forms in Latin lookup 11 subtable" uni0304.case
AlternateSubs2: "'aalt' Access All Alternates in Latin lookup 0 subtable" uni0304.case
EndChar
StartChar: uni0306
Encoding: 774 774 360
Width: 0
GlyphClass: 4
Flags: W
AnchorPoint: "Anchor-5" 282 689 basemark 0
AnchorPoint: "Anchor-5" 241 496 mark 0
AnchorPoint: "Anchor-1" 241 496 mark 0
LayerCount: 2
Fore
SplineSet
173.5 597.5 m 128,-1,1
 139 631 139 631 136 689 c 1,2,-1
 216 689 l 1,3,4
 220 668 220 668 236.5 656 c 128,-1,5
 253 644 253 644 277 644 c 0,6,7
 304 644 304 644 324 657.5 c 128,-1,8
 344 671 344 671 347 689 c 1,9,-1
 430 689 l 1,10,11
 413 632 413 632 370 598 c 128,-1,12
 327 564 327 564 266 564 c 0,13,0
 208 564 208 564 173.5 597.5 c 128,-1,1
EndSplineSet
Substitution2: "Single Substitution lookup 13 subtable" uni0306.case
Substitution2: "'case' Case-Sensitive Forms in Latin lookup 11 subtable" uni0306.case
AlternateSubs2: "'aalt' Access All Alternates in Latin lookup 0 subtable" uni0306.case
EndChar
StartChar: uni0307
Encoding: 775 775 346
Width: 0
GlyphClass: 4
Flags: W
AnchorPoint: "Anchor-5" 215 718 basemark 0
AnchorPoint: "Anchor-5" 168 496 mark 0
AnchorPoint: "Anchor-1" 168 496 mark 0
LayerCount: 2
Fore
SplineSet
149 596 m 128,-1,1
 128 617 128 617 128 647 c 0,2,3
 128 676 128 676 149 697 c 128,-1,4
 170 718 170 718 200 718 c 0,5,6
 229 718 229 718 250 697 c 128,-1,7
 271 676 271 676 271 647 c 0,8,9
 271 617 271 617 250 596 c 128,-1,10
 229 575 229 575 200 575 c 0,11,0
 170 575 170 575 149 596 c 128,-1,1
EndSplineSet
Substitution2: "Single Substitution lookup 13 subtable" uni0307.case
Substitution2: "'case' Case-Sensitive Forms in Latin lookup 11 subtable" uni0307.case
AlternateSubs2: "'aalt' Access All Alternates in Latin lookup 0 subtable" uni0307.case
EndChar
StartChar: uni0308
Encoding: 776 776 344
Width: 0
GlyphClass: 4
Flags: W
AnchorPoint: "Anchor-5" 317 718 basemark 0
AnchorPoint: "Anchor-5" 269 496 mark 0
AnchorPoint: "Anchor-1" 269 496 mark 0
LayerCount: 2
Fore
SplineSet
352 596 m 128,-1,1
 331 617 331 617 331 647 c 0,2,3
 331 676 331 676 352 697 c 128,-1,4
 373 718 373 718 402 718 c 0,5,6
 432 718 432 718 453 697 c 128,-1,7
 474 676 474 676 474 647 c 0,8,9
 474 617 474 617 453 596 c 128,-1,10
 432 575 432 575 402 575 c 0,11,0
 373 575 373 575 352 596 c 128,-1,1
149 596 m 128,-1,13
 128 617 128 617 128 647 c 0,14,15
 128 676 128 676 149 697 c 128,-1,16
 170 718 170 718 200 718 c 0,17,18
 229 718 229 718 250 697 c 128,-1,19
 271 676 271 676 271 647 c 0,20,21
 271 617 271 617 250 596 c 128,-1,22
 229 575 229 575 200 575 c 0,23,12
 170 575 170 575 149 596 c 128,-1,13
EndSplineSet
Substitution2: "Single Substitution lookup 13 subtable" uni0308.case
Substitution2: "'case' Case-Sensitive Forms in Latin lookup 11 subtable" uni0308.case
AlternateSubs2: "'aalt' Access All Alternates in Latin lookup 0 subtable" uni0308.case
EndChar
StartChar: uni030A
Encoding: 778 778 362
Width: 0
GlyphClass: 4
Flags: W
AnchorPoint: "Anchor-5" 300 796 basemark 0
AnchorPoint: "Anchor-5" 237 496 mark 0
AnchorPoint: "Anchor-1" 237 496 mark 0
LayerCount: 2
Fore
SplineSet
198.5 557 m 128,-1,1
 169 574 169 574 151.5 603.5 c 128,-1,2
 134 633 134 633 134 668 c 256,3,4
 134 703 134 703 151.5 732.5 c 128,-1,5
 169 762 169 762 198.5 779 c 128,-1,6
 228 796 228 796 262 796 c 0,7,8
 297 796 297 796 326.5 779 c 128,-1,9
 356 762 356 762 373.5 732.5 c 128,-1,10
 391 703 391 703 391 668 c 256,11,12
 391 633 391 633 373.5 603.5 c 128,-1,13
 356 574 356 574 326.5 557 c 128,-1,14
 297 540 297 540 262 540 c 0,15,0
 228 540 228 540 198.5 557 c 128,-1,1
296 633.5 m 128,-1,17
 310 648 310 648 310 668 c 256,18,19
 310 688 310 688 296 702.5 c 128,-1,20
 282 717 282 717 262 717 c 0,21,22
 243 717 243 717 229 702.5 c 128,-1,23
 215 688 215 688 215 668 c 256,24,25
 215 648 215 648 229 633.5 c 128,-1,26
 243 619 243 619 262 619 c 0,27,16
 282 619 282 619 296 633.5 c 128,-1,17
EndSplineSet
Substitution2: "Single Substitution lookup 13 subtable" uni030A.case
Substitution2: "'case' Case-Sensitive Forms in Latin lookup 11 subtable" uni030A.case
AlternateSubs2: "'aalt' Access All Alternates in Latin lookup 0 subtable" uni030A.case
EndChar
StartChar: uni030B
Encoding: 779 779 353
Width: 0
GlyphClass: 4
Flags: W
AnchorPoint: "Anchor-5" 396 723 basemark 0
AnchorPoint: "Anchor-5" 255 496 mark 0
AnchorPoint: "Anchor-1" 255 496 mark 0
LayerCount: 2
Fore
SplineSet
263 715 m 128,-1,1
 278 723 278 723 296 723 c 0,2,3
 318 723 318 723 330.5 712 c 128,-1,4
 343 701 343 701 343 684 c 0,5,6
 343 664 343 664 329 648.5 c 128,-1,7
 315 633 315 633 289 616 c 2,8,-1
 223 574 l 1,9,-1
 111 574 l 1,10,-1
 229 690 l 2,11,0
 248 707 248 707 263 715 c 128,-1,1
462.5 715 m 128,-1,13
 478 723 478 723 496 723 c 0,14,15
 518 723 518 723 530 712 c 128,-1,16
 542 701 542 701 542 684 c 0,17,18
 542 663 542 663 528 647.5 c 128,-1,19
 514 632 514 632 488 616 c 2,20,-1
 423 574 l 1,21,-1
 311 574 l 1,22,-1
 429 690 l 2,23,12
 447 707 447 707 462.5 715 c 128,-1,13
EndSplineSet
Substitution2: "Single Substitution lookup 13 subtable" uni030B.case
Substitution2: "'case' Case-Sensitive Forms in Latin lookup 11 subtable" uni030B.case
AlternateSubs2: "'aalt' Access All Alternates in Latin lookup 0 subtable" uni030B.case
EndChar
StartChar: uni0312
Encoding: 786 786 368
Width: 0
GlyphClass: 4
Flags: W
AnchorPoint: "Anchor-5" 259 774 basemark 0
AnchorPoint: "Anchor-5" 198 496 mark 0
AnchorPoint: "Anchor-1" 198 496 mark 0
LayerCount: 2
Fore
SplineSet
131 657 m 0,1,2
 131 699 131 699 159 726.5 c 128,-1,3
 187 754 187 754 229.5 765.5 c 128,-1,4
 272 777 272 777 315 773 c 1,5,-1
 355 724 l 1,6,7
 349 725 349 725 337 725 c 0,8,9
 297 725 297 725 268.5 709 c 128,-1,10
 240 693 240 693 240 660 c 0,11,12
 240 642 240 642 252 626.5 c 128,-1,13
 264 611 264 611 284 602 c 1,14,-1
 193 570 l 1,15,0
 131 603 131 603 131 657 c 0,1,2
EndSplineSet
EndChar
StartChar: uni0326
Encoding: 806 806 369
Width: 0
GlyphClass: 4
Flags: W
AnchorPoint: "Anchor-4" 45 -251 basemark 0
AnchorPoint: "Anchor-4" 97 0 mark 0
AnchorPoint: "Anchor-0" 97 0 mark 0
LayerCount: 2
Fore
SplineSet
-37 -203 m 2,0,1
 3 -203 3 -203 32.5 -186.5 c 128,-1,2
 62 -170 62 -170 62 -136 c 0,3,4
 62 -118 62 -118 50 -103 c 128,-1,5
 38 -88 38 -88 18 -79 c 1,6,-1
 109 -47 l 1,7,8
 171 -79 171 -79 171 -134 c 0,9,10
 171 -191 171 -191 122.5 -221 c 128,-1,11
 74 -251 74 -251 10 -251 c 0,12,13
 -6 -251 -6 -251 -13 -250 c 1,14,-1
 -53 -202 l 1,15,-1
 -37 -203 l 2,0,1
EndSplineSet
EndChar
StartChar: uni0327
Encoding: 807 807 370
Width: 0
GlyphClass: 4
Flags: W
AnchorPoint: "Anchor-4" 44 -186 basemark 0
AnchorPoint: "Anchor-4" 83 0 mark 0
AnchorPoint: "Anchor-0" 83 0 mark 0
LayerCount: 2
Fore
SplineSet
-45 -164 m 1,1,-1
 -21 -118 l 1,2,3
 -10 -126 -10 -126 8 -132 c 128,-1,4
 26 -138 26 -138 42 -138 c 0,5,6
 61 -138 61 -138 73 -130 c 128,-1,7
 85 -122 85 -122 85 -108 c 0,8,9
 85 -97 85 -97 75.5 -90 c 128,-1,10
 66 -83 66 -83 52 -83 c 0,11,12
 39 -83 39 -83 27 -85 c 0,13,14
 16 -87 16 -87 10 -82.5 c 128,-1,15
 4 -78 4 -78 4 -70 c 256,16,17
 4 -62 4 -62 10 -53 c 2,18,-1
 77 28 l 1,19,-1
 113 3 l 1,20,-1
 72 -46 l 1,21,22
 77 -45 77 -45 87 -45 c 0,23,24
 125 -45 125 -45 149.5 -61.5 c 128,-1,25
 174 -78 174 -78 174 -106 c 0,26,27
 174 -146 174 -146 141.5 -166 c 128,-1,28
 109 -186 109 -186 59 -186 c 0,29,0
 1 -186 1 -186 -45 -164 c 1,1,-1
EndSplineSet
EndChar
StartChar: uni0328
Encoding: 808 808 371
Width: 0
GlyphClass: 4
Flags: W
AnchorPoint: "Anchor-2" 205 10 mark 0
LayerCount: 2
Fore
SplineSet
16.5 -153.5 m 128,-1,1
 -29 -133 -29 -133 -29 -92 c 0,2,3
 -29 -55 -29 -55 5 -28 c 128,-1,4
 39 -1 39 -1 88 17 c 1,5,-1
 203 0 l 1,6,7
 158 -8 158 -8 125.5 -27.5 c 128,-1,8
 93 -47 93 -47 93 -69 c 0,9,10
 93 -85 93 -85 106.5 -93 c 128,-1,11
 120 -101 120 -101 139 -101 c 0,12,13
 161 -101 161 -101 181 -97 c 1,14,-1
 166 -171 l 1,15,16
 151 -174 151 -174 123 -174 c 0,17,0
 62 -174 62 -174 16.5 -153.5 c 128,-1,1
EndSplineSet
Substitution2: "Single Substitution lookup 13 subtable" uni0328.case
Substitution2: "'case' Case-Sensitive Forms in Latin lookup 11 subtable" uni0328.case
AlternateSubs2: "'aalt' Access All Alternates in Latin lookup 0 subtable" uni0328.case
EndChar
StartChar: uni03A9
Encoding: 937 937 226
Width: 656
GlyphClass: 1
Flags: W
LayerCount: 2
Fore
SplineSet
5 110 m 1,0,-1
 147 110 l 1,1,-1
 153 140 l 1,2,3
 110 168 110 168 86 225.5 c 128,-1,4
 62 283 62 283 62 350 c 0,5,6
 62 438 62 438 103 513.5 c 128,-1,7
 144 589 144 589 218 634.5 c 128,-1,8
 292 680 292 680 387 680 c 0,9,10
 465 680 465 680 526 644.5 c 128,-1,11
 587 609 587 609 620.5 550 c 128,-1,12
 654 491 654 491 654 423 c 0,13,14
 654 332 654 332 600.5 258 c 128,-1,15
 547 184 547 184 457 136 c 1,16,-1
 451 110 l 1,17,-1
 591 110 l 1,18,-1
 569 0 l 1,19,-1
 305 0 l 1,20,-1
 351 216 l 1,21,22
 404 224 404 224 447 253 c 128,-1,23
 490 282 490 282 514.5 325 c 128,-1,24
 539 368 539 368 539 415 c 0,25,26
 539 457 539 457 519 493 c 128,-1,27
 499 529 499 529 462 550 c 128,-1,28
 425 571 425 571 376 571 c 0,29,30
 317 571 317 571 272 542 c 128,-1,31
 227 513 227 513 203 466.5 c 128,-1,32
 179 420 179 420 179 369 c 0,33,34
 179 312 179 312 209.5 268.5 c 128,-1,35
 240 225 240 225 291 216 c 1,36,-1
 246 0 l 1,37,-1
 -18 0 l 1,38,-1
 5 110 l 1,0,-1
EndSplineSet
EndChar
StartChar: uni03BC
Encoding: 956 956 227
Width: 609
GlyphClass: 1
Flags: W
LayerCount: 2
Fore
SplineSet
109 496 m 1,0,-1
 250 496 l 1,1,-1
 191 218 l 2,2,3
 186 197 186 197 186 172 c 0,4,5
 186 138 186 138 202 118.5 c 128,-1,6
 218 99 218 99 251 99 c 0,7,8
 299 99 299 99 329 135 c 128,-1,9
 359 171 359 171 374 242 c 2,10,-1
 427 496 l 1,11,-1
 569 497 l 1,12,-1
 502 179 l 2,13,14
 498 162 498 162 498 146 c 0,15,16
 498 128 498 128 508 122 c 128,-1,17
 518 116 518 116 544 116 c 2,18,-1
 562 116 l 1,19,-1
 537 0 l 1,20,-1
 461 0 l 2,21,22
 400 0 400 0 375.5 16 c 128,-1,23
 351 32 351 32 346 64 c 1,24,25
 324 30 324 30 286 9 c 128,-1,26
 248 -12 248 -12 200 -12 c 0,27,28
 170 -12 170 -12 145 2 c 1,29,-1
 110 -162 l 1,30,-1
 -31 -162 l 1,31,-1
 109 496 l 1,0,-1
EndSplineSet
EndChar
StartChar: pi
Encoding: 960 960 228
Width: 619
GlyphClass: 1
Flags: W
LayerCount: 2
Fore
SplineSet
128 385 m 1,0,-1
 42 385 l 1,1,-1
 65 496 l 1,2,-1
 636 496 l 1,3,-1
 613 385 l 1,4,-1
 525 385 l 1,5,-1
 476 154 l 2,6,7
 473 142 473 142 473 133 c 0,8,9
 473 115 473 115 485.5 107.5 c 128,-1,10
 498 100 498 100 527 100 c 2,11,-1
 552 100 l 1,12,-1
 530 0 l 1,13,-1
 485 0 l 2,14,15
 410 0 410 0 378.5 18 c 128,-1,16
 347 36 347 36 347 81 c 0,17,18
 347 103 347 103 353 130 c 2,19,-1
 407 385 l 1,20,-1
 247 385 l 1,21,-1
 165 0 l 1,22,-1
 46 0 l 1,23,-1
 128 385 l 1,0,-1
EndSplineSet
EndChar
StartChar: uni1E9E
Encoding: 7838 7838 82
Width: 683
GlyphClass: 1
Flags: W
LayerCount: 2
Fore
SplineSet
296 20 m 128,-1,1
 247 52 247 52 231 111 c 1,2,-1
 348 150 l 1,3,4
 361 104 361 104 415 104 c 0,5,6
 457 104 457 104 480.5 136 c 128,-1,7
 504 168 504 168 504 209 c 0,8,9
 504 242 504 242 484.5 260.5 c 128,-1,10
 465 279 465 279 431 279 c 0,11,12
 413 279 413 279 397 275 c 1,13,-1
 367 363 l 1,14,-1
 542 552 l 1,15,16
 476 566 476 566 409 566 c 0,17,18
 338 566 338 566 298.5 530.5 c 128,-1,19
 259 495 259 495 244 428 c 2,20,-1
 153 0 l 1,21,-1
 5 0 l 1,22,-1
 106 475 l 2,23,24
 127 576 127 576 192 628 c 128,-1,25
 257 680 257 680 384 680 c 0,26,27
 449 680 449 680 518.5 671 c 128,-1,28
 588 662 588 662 687 636 c 1,29,-1
 663 522 l 1,30,-1
 520 365 l 1,31,32
 577 352 577 352 612 312.5 c 128,-1,33
 647 273 647 273 647 210 c 0,34,35
 647 150 647 150 615.5 99 c 128,-1,36
 584 48 584 48 531 18 c 128,-1,37
 478 -12 478 -12 416 -12 c 0,38,0
 345 -12 345 -12 296 20 c 128,-1,1
EndSplineSet
EndChar
StartChar: emdash
Encoding: 8212 8212 275
Width: 832
GlyphClass: 1
Flags: W
LayerCount: 2
Fore
SplineSet
54 309 m 1,0,-1
 807 309 l 1,1,-1
 780 189 l 1,2,-1
 27 189 l 1,3,-1
 54 309 l 1,0,-1
EndSplineSet
EndChar
StartChar: quoteleft
Encoding: 8216 8216 287
Width: 270
GlyphClass: 1
Flags: W
LayerCount: 2
Fore
SplineSet
111.5 377.5 m 128,-1,1
 85 404 85 404 85 440 c 0,2,3
 85 471 85 471 107 505 c 2,4,-1
 211 668 l 1,5,-1
 296 668 l 1,6,-1
 211 531 l 1,7,8
 235 520 235 520 252 497 c 128,-1,9
 269 474 269 474 269 444 c 0,10,11
 269 405 269 405 242 378 c 128,-1,12
 215 351 215 351 177 351 c 0,13,0
 138 351 138 351 111.5 377.5 c 128,-1,1
EndSplineSet
EndChar
StartChar: quoteright
Encoding: 8217 8217 288
Width: 271
GlyphClass: 1
Flags: W
LayerCount: 2
Fore
SplineSet
132 533 m 128,-1,1
 115 556 115 556 115 587 c 0,2,3
 115 625 115 625 142 652 c 128,-1,4
 169 679 169 679 207 679 c 0,5,6
 246 679 246 679 272.5 653 c 128,-1,7
 299 627 299 627 299 591 c 0,8,9
 299 561 299 561 277 525 c 2,10,-1
 173 362 l 1,11,-1
 88 362 l 1,12,-1
 173 500 l 1,13,0
 149 510 149 510 132 533 c 128,-1,1
EndSplineSet
EndChar
StartChar: quotesinglbase
Encoding: 8218 8218 283
Width: 271
GlyphClass: 1
Flags: W
LayerCount: 2
Fore
SplineSet
24.5 26.5 m 128,-1,1
 8 50 8 50 8 81 c 0,2,3
 8 119 8 119 35 146 c 128,-1,4
 62 173 62 173 99 173 c 0,5,6
 138 173 138 173 165 147 c 128,-1,7
 192 121 192 121 192 85 c 0,8,9
 192 69 192 69 187 54 c 128,-1,10
 182 39 182 39 170 19 c 2,11,-1
 66 -144 l 1,12,-1
 -19 -144 l 1,13,-1
 66 -7 l 1,14,0
 41 3 41 3 24.5 26.5 c 128,-1,1
EndSplineSet
EndChar
StartChar: quotedblleft
Encoding: 8220 8220 285
Width: 482
GlyphClass: 1
Flags: W
LayerCount: 2
Fore
SplineSet
323.5 377.5 m 128,-1,1
 297 404 297 404 297 440 c 0,2,3
 297 471 297 471 319 505 c 2,4,-1
 423 668 l 1,5,-1
 508 668 l 1,6,-1
 423 531 l 1,7,8
 447 520 447 520 464 497 c 128,-1,9
 481 474 481 474 481 444 c 0,10,11
 481 405 481 405 454 378 c 128,-1,12
 427 351 427 351 389 351 c 0,13,0
 350 351 350 351 323.5 377.5 c 128,-1,1
111.5 377.5 m 128,-1,15
 85 404 85 404 85 440 c 0,16,17
 85 471 85 471 107 505 c 2,18,-1
 211 668 l 1,19,-1
 296 668 l 1,20,-1
 211 531 l 1,21,22
 235 520 235 520 252 497 c 128,-1,23
 269 474 269 474 269 444 c 0,24,25
 269 405 269 405 242 378 c 128,-1,26
 215 351 215 351 177 351 c 0,27,14
 138 351 138 351 111.5 377.5 c 128,-1,15
EndSplineSet
EndChar
StartChar: quotedblright
Encoding: 8221 8221 286
Width: 482
GlyphClass: 1
Flags: W
LayerCount: 2
Fore
SplineSet
344 534 m 128,-1,1
 327 557 327 557 327 588 c 0,2,3
 327 626 327 626 354 653 c 128,-1,4
 381 680 381 680 419 680 c 0,5,6
 458 680 458 680 484.5 654 c 128,-1,7
 511 628 511 628 511 592 c 0,8,9
 511 562 511 562 489 526 c 2,10,-1
 385 363 l 1,11,-1
 300 363 l 1,12,-1
 385 501 l 1,13,0
 361 511 361 511 344 534 c 128,-1,1
132 534 m 128,-1,15
 115 557 115 557 115 588 c 0,16,17
 115 626 115 626 142 653 c 128,-1,18
 169 680 169 680 207 680 c 0,19,20
 246 680 246 680 272.5 654 c 128,-1,21
 299 628 299 628 299 592 c 0,22,23
 299 562 299 562 277 526 c 2,24,-1
 173 363 l 1,25,-1
 88 363 l 1,26,-1
 173 501 l 1,27,14
 149 511 149 511 132 534 c 128,-1,15
EndSplineSet
EndChar
StartChar: quotedblbase
Encoding: 8222 8222 284
Width: 483
GlyphClass: 1
Flags: W
LayerCount: 2
Fore
SplineSet
236.5 26.5 m 128,-1,1
 220 50 220 50 220 81 c 0,2,3
 220 119 220 119 247 146 c 128,-1,4
 274 173 274 173 311 173 c 0,5,6
 350 173 350 173 377 147 c 128,-1,7
 404 121 404 121 404 85 c 0,8,9
 404 69 404 69 399 54 c 128,-1,10
 394 39 394 39 382 19 c 2,11,-1
 278 -144 l 1,12,-1
 193 -144 l 1,13,-1
 278 -7 l 1,14,0
 253 3 253 3 236.5 26.5 c 128,-1,1
24.5 26.5 m 128,-1,16
 8 50 8 50 8 81 c 0,17,18
 8 119 8 119 35 146 c 128,-1,19
 62 173 62 173 99 173 c 0,20,21
 138 173 138 173 165 147 c 128,-1,22
 192 121 192 121 192 85 c 0,23,24
 192 69 192 69 187 54 c 128,-1,25
 182 39 182 39 170 19 c 2,26,-1
 66 -144 l 1,27,-1
 -19 -144 l 1,28,-1
 66 -7 l 1,29,15
 41 3 41 3 24.5 26.5 c 128,-1,16
EndSplineSet
EndChar
StartChar: dagger
Encoding: 8224 8224 307
Width: 585
GlyphClass: 1
Flags: W
LayerCount: 2
Fore
SplineSet
255 386 m 1,0,-1
 70 386 l 1,1,-1
 93 496 l 1,2,-1
 278 496 l 1,3,-1
 315 668 l 1,4,-1
 449 668 l 1,5,-1
 412 496 l 1,6,-1
 597 496 l 1,7,-1
 574 386 l 1,8,-1
 389 386 l 1,9,-1
 307 0 l 1,10,-1
 173 0 l 1,11,-1
 255 386 l 1,0,-1
EndSplineSet
EndChar
StartChar: daggerdbl
Encoding: 8225 8225 309
Width: 586
GlyphClass: 1
Flags: W
LayerCount: 2
Fore
SplineSet
211 173 m 1,0,-1
 26 173 l 1,1,-1
 49 282 l 1,2,-1
 234 282 l 1,3,-1
 256 386 l 1,4,-1
 71 386 l 1,5,-1
 94 496 l 1,6,-1
 279 496 l 1,7,-1
 316 668 l 1,8,-1
 450 668 l 1,9,-1
 413 496 l 1,10,-1
 598 496 l 1,11,-1
 575 386 l 1,12,-1
 390 386 l 1,13,-1
 368 282 l 1,14,-1
 553 282 l 1,15,-1
 530 173 l 1,16,-1
 345 173 l 1,17,-1
 308 0 l 1,18,-1
 174 0 l 1,19,-1
 211 173 l 1,0,-1
EndSplineSet
EndChar
StartChar: perthousand
Encoding: 8240 8240 342
Width: 1447
GlyphClass: 1
Flags: W
LayerCount: 2
Fore
SplineSet
766 668 m 1,0,-1
 895 668 l 1,1,-1
 292 0 l 1,2,-1
 164 0 l 1,3,-1
 766 668 l 1,0,-1
180.5 315.5 m 128,-1,5
 136 342 136 342 110 387 c 128,-1,6
 84 432 84 432 84 485 c 256,7,8
 84 538 84 538 110 582.5 c 128,-1,9
 136 627 136 627 180.5 653.5 c 128,-1,10
 225 680 225 680 278 680 c 0,11,12
 330 680 330 680 374.5 653.5 c 128,-1,13
 419 627 419 627 445 582.5 c 128,-1,14
 471 538 471 538 471 485 c 256,15,16
 471 432 471 432 445 387 c 128,-1,17
 419 342 419 342 374.5 315.5 c 128,-1,18
 330 289 330 289 278 289 c 0,19,4
 225 289 225 289 180.5 315.5 c 128,-1,5
335 425.5 m 128,-1,21
 359 450 359 450 359 485 c 0,22,23
 359 519 359 519 335 543.5 c 128,-1,24
 311 568 311 568 278 568 c 0,25,26
 244 568 244 568 220 543.5 c 128,-1,27
 196 519 196 519 196 485 c 0,28,29
 196 450 196 450 220 425.5 c 128,-1,30
 244 401 244 401 278 401 c 0,31,20
 311 401 311 401 335 425.5 c 128,-1,21
685 14.5 m 128,-1,33
 641 41 641 41 615 86 c 128,-1,34
 589 131 589 131 589 184 c 256,35,36
 589 237 589 237 615 281.5 c 128,-1,37
 641 326 641 326 685 352.5 c 128,-1,38
 729 379 729 379 782 379 c 256,39,40
 835 379 835 379 879.5 352.5 c 128,-1,41
 924 326 924 326 950 281.5 c 128,-1,42
 976 237 976 237 976 184 c 256,43,44
 976 131 976 131 950 86 c 128,-1,45
 924 41 924 41 879.5 14.5 c 128,-1,46
 835 -12 835 -12 782 -12 c 256,47,32
 729 -12 729 -12 685 14.5 c 128,-1,33
840 124.5 m 128,-1,49
 864 149 864 149 864 184 c 0,50,51
 864 218 864 218 840 242.5 c 128,-1,52
 816 267 816 267 782 267 c 0,53,54
 749 267 749 267 725 242.5 c 128,-1,55
 701 218 701 218 701 184 c 0,56,57
 701 149 701 149 725 124.5 c 128,-1,58
 749 100 749 100 782 100 c 0,59,48
 816 100 816 100 840 124.5 c 128,-1,49
1108.5 14.5 m 128,-1,61
 1064 41 1064 41 1038 86 c 128,-1,62
 1012 131 1012 131 1012 184 c 256,63,64
 1012 237 1012 237 1038 281.5 c 128,-1,65
 1064 326 1064 326 1108.5 352.5 c 128,-1,66
 1153 379 1153 379 1206 379 c 256,67,68
 1259 379 1259 379 1303 352.5 c 128,-1,69
 1347 326 1347 326 1373 281.5 c 128,-1,70
 1399 237 1399 237 1399 184 c 256,71,72
 1399 131 1399 131 1373 86 c 128,-1,73
 1347 41 1347 41 1303 14.5 c 128,-1,74
 1259 -12 1259 -12 1206 -12 c 256,75,60
 1153 -12 1153 -12 1108.5 14.5 c 128,-1,61
1263 124.5 m 128,-1,77
 1287 149 1287 149 1287 184 c 0,78,79
 1287 218 1287 218 1263 242.5 c 128,-1,80
 1239 267 1239 267 1206 267 c 0,81,82
 1172 267 1172 267 1148 242.5 c 128,-1,83
 1124 218 1124 218 1124 184 c 0,84,85
 1124 149 1124 149 1148 124.5 c 128,-1,86
 1172 100 1172 100 1206 100 c 0,87,76
 1239 100 1239 100 1263 124.5 c 128,-1,77
EndSplineSet
EndChar
StartChar: Euro
Encoding: 8364 8364 314
Width: 678
GlyphClass: 1
Flags: W
LayerCount: 2
Fore
SplineSet
235 20.5 m 128,-1,1
 179 53 179 53 147.5 108 c 128,-1,2
 116 163 116 163 110 232 c 1,3,-1
 4 232 l 1,4,-1
 57 303 l 1,5,-1
 110 303 l 1,6,7
 111 327 111 327 120 368 c 1,8,-1
 32 368 l 1,9,-1
 85 438 l 1,10,-1
 142 438 l 1,11,12
 182 544 182 544 263.5 612 c 128,-1,13
 345 680 345 680 461 680 c 0,14,15
 544 680 544 680 603.5 638.5 c 128,-1,16
 663 597 663 597 689 522 c 1,17,-1
 569 480 l 1,18,19
 554 519 554 519 521.5 538.5 c 128,-1,20
 489 558 489 558 444 558 c 0,21,22
 390 558 390 558 350.5 525 c 128,-1,23
 311 492 311 492 286 438 c 1,24,-1
 510 438 l 1,25,-1
 457 368 l 1,26,-1
 262 368 l 1,27,28
 255 340 255 340 251 303 c 1,29,-1
 410 303 l 1,30,-1
 357 232 l 1,31,-1
 253 232 l 1,32,33
 261 176 261 176 293.5 143 c 128,-1,34
 326 110 326 110 383 110 c 0,35,36
 478 110 478 110 518 183 c 1,37,-1
 639 136 l 1,38,39
 589 58 589 58 518.5 23 c 128,-1,40
 448 -12 448 -12 370 -12 c 0,41,0
 291 -12 291 -12 235 20.5 c 128,-1,1
EndSplineSet
EndChar
StartChar: uni20B9
Encoding: 8377 8377 315
Width: 625
GlyphClass: 1
Flags: W
LayerCount: 2
Fore
SplineSet
87 289 m 1,0,-1
 100 352 l 1,1,-1
 266 352 l 2,2,3
 344 352 344 352 370 417 c 1,4,-1
 115 417 l 1,5,-1
 129 487 l 1,6,-1
 380 487 l 1,7,8
 376 518 376 518 351.5 535 c 128,-1,9
 327 552 327 552 284 552 c 2,10,-1
 143 552 l 1,11,-1
 168 668 l 1,12,-1
 661 668 l 1,13,-1
 646 598 l 1,14,-1
 478 598 l 1,15,16
 523 553 523 553 526 487 c 1,17,-1
 622 487 l 1,18,-1
 608 417 l 1,19,-1
 518 417 l 1,20,21
 500 342 500 342 441 294 c 128,-1,22
 382 246 382 246 295 239 c 1,23,-1
 486 0 l 1,24,-1
 313 0 l 1,25,-1
 87 289 l 1,0,-1
EndSplineSet
EndChar
StartChar: uni2113
Encoding: 8467 8467 308
Width: 496
GlyphClass: 1
Flags: W
LayerCount: 2
Fore
SplineSet
129.5 23 m 128,-1,1
 87 58 87 58 87 124 c 0,2,3
 87 133 87 133 89 153 c 2,4,-1
 90 162 l 1,5,-1
 16 116 l 1,6,-1
 36 216 l 1,7,-1
 112 263 l 1,8,-1
 158 478 l 2,9,10
 180 587 180 587 232 633.5 c 128,-1,11
 284 680 284 680 355 680 c 0,12,13
 431 680 431 680 470 646.5 c 128,-1,14
 509 613 509 613 509 555 c 0,15,16
 509 492 509 492 471.5 439 c 128,-1,17
 434 386 434 386 381 346.5 c 128,-1,18
 328 307 328 307 251 261 c 1,19,-1
 235 188 l 2,20,21
 231 164 231 164 231 154 c 0,22,23
 231 102 231 102 288 102 c 0,24,25
 326 102 326 102 366 125 c 1,26,-1
 400 35 l 1,27,28
 374 15 374 15 333.5 1.5 c 128,-1,29
 293 -12 293 -12 249 -12 c 0,30,0
 172 -12 172 -12 129.5 23 c 128,-1,1
358 445.5 m 128,-1,32
 394 494 394 494 394 538 c 0,33,34
 394 558 394 558 384 568.5 c 128,-1,35
 374 579 374 579 357 579 c 0,36,37
 337 579 337 579 324 561.5 c 128,-1,38
 311 544 311 544 302 505 c 2,39,-1
 272 365 l 1,40,31
 322 397 322 397 358 445.5 c 128,-1,32
EndSplineSet
EndChar
StartChar: trademark
Encoding: 8482 8482 303
Width: 946
GlyphClass: 1
Flags: W
LayerCount: 2
Fore
SplineSet
508 668 m 1,0,-1
 668 668 l 1,1,-1
 687 427 l 1,2,-1
 810 668 l 1,3,-1
 975 668 l 1,4,-1
 897 303 l 1,5,-1
 797 303 l 1,6,-1
 852 562 l 1,7,-1
 711 303 l 1,8,-1
 617 303 l 1,9,-1
 586 562 l 1,10,-1
 531 303 l 1,11,-1
 430 303 l 1,12,-1
 508 668 l 1,0,-1
223 580 m 1,13,-1
 103 580 l 1,14,-1
 122 668 l 1,15,-1
 464 668 l 1,16,-1
 445 580 l 1,17,-1
 325 580 l 1,18,-1
 266 303 l 1,19,-1
 164 303 l 1,20,-1
 223 580 l 1,13,-1
EndSplineSet
EndChar
StartChar: estimated
Encoding: 8494 8494 310
Width: 607
GlyphClass: 1
Flags: W
LayerCount: 2
Fore
SplineSet
177 22.5 m 128,-1,1
 117 57 117 57 81.5 117 c 128,-1,2
 46 177 46 177 46 250 c 0,3,4
 46 319 46 319 81 378.5 c 128,-1,5
 116 438 116 438 176 473.5 c 128,-1,6
 236 509 236 509 307 509 c 0,7,8
 377 509 377 509 437 474 c 128,-1,9
 497 439 497 439 532 379 c 128,-1,10
 567 319 567 319 567 249 c 1,11,-1
 178 249 l 1,12,-1
 178 100 l 1,13,14
 204 77 204 77 237.5 64.5 c 128,-1,15
 271 52 271 52 307 52 c 0,16,17
 351 52 351 52 390.5 71 c 128,-1,18
 430 90 430 90 458 123 c 1,19,-1
 520 101 l 1,20,21
 484 49 484 49 428 18.5 c 128,-1,22
 372 -12 372 -12 307 -12 c 0,23,0
 237 -12 237 -12 177 22.5 c 128,-1,1
435 309 m 1,24,-1
 435 397 l 1,25,26
 409 420 409 420 376 432.5 c 128,-1,27
 343 445 343 445 307 445 c 256,28,29
 271 445 271 445 237.5 432.5 c 128,-1,30
 204 420 204 420 178 397 c 1,31,-1
 178 309 l 1,32,-1
 435 309 l 1,24,-1
EndSplineSet
EndChar
StartChar: partialdiff
Encoding: 8706 8706 340
Width: 597
GlyphClass: 1
Flags: W
LayerCount: 2
Fore
SplineSet
101.5 42.5 m 128,-1,1
 38 97 38 97 38 191 c 0,2,3
 38 262 38 262 70.5 324 c 128,-1,4
 103 386 103 386 161 423 c 128,-1,5
 219 460 219 460 292 460 c 0,6,7
 352 460 352 460 397 433 c 128,-1,8
 442 406 442 406 456 352 c 1,9,-1
 457 369 l 1,10,11
 457 465 457 465 382 514.5 c 128,-1,12
 307 564 307 564 190 568 c 1,13,-1
 213 680 l 1,14,15
 374 665 374 665 472 597.5 c 128,-1,16
 570 530 570 530 570 385 c 0,17,18
 570 299 570 299 540.5 207.5 c 128,-1,19
 511 116 511 116 443 52 c 128,-1,20
 375 -12 375 -12 268 -12 c 0,21,0
 165 -12 165 -12 101.5 42.5 c 128,-1,1
344.5 123.5 m 128,-1,23
 373 147 373 147 387 182 c 128,-1,24
 401 217 401 217 401 249 c 0,25,26
 401 293 401 293 375 320 c 128,-1,27
 349 347 349 347 306 347 c 0,28,29
 267 347 267 347 238 325.5 c 128,-1,30
 209 304 209 304 194.5 271 c 128,-1,31
 180 238 180 238 180 203 c 0,32,33
 180 158 180 158 205 129 c 128,-1,34
 230 100 230 100 275 100 c 0,35,22
 316 100 316 100 344.5 123.5 c 128,-1,23
EndSplineSet
EndChar
StartChar: product
Encoding: 8719 8719 337
Width: 609
GlyphClass: 1
Flags: W
LayerCount: 2
Fore
SplineSet
132 668 m 1,0,-1
 656 668 l 1,1,-1
 480 -162 l 1,2,-1
 359 -162 l 1,3,-1
 511 557 l 1,4,-1
 230 557 l 1,5,-1
 77 -162 l 1,6,-1
 -44 -162 l 1,7,-1
 132 668 l 1,0,-1
EndSplineSet
EndChar
StartChar: summation
Encoding: 8721 8721 338
Width: 612
GlyphClass: 1
Flags: W
LayerCount: 2
Fore
SplineSet
-19 -41 m 1,0,-1
 286 265 l 1,1,-1
 106 547 l 1,2,-1
 132 668 l 1,3,-1
 658 668 l 1,4,-1
 633 547 l 1,5,-1
 254 547 l 1,6,-1
 444 254 l 1,7,-1
 150 -41 l 1,8,-1
 508 -41 l 1,9,-1
 482 -162 l 1,10,-1
 -44 -162 l 1,11,-1
 -19 -41 l 1,0,-1
EndSplineSet
EndChar
StartChar: minus
Encoding: 8722 8722 321
Width: 594
GlyphClass: 1
Flags: W
LayerCount: 2
Fore
SplineSet
56 308 m 1,0,-1
 565 308 l 1,1,-1
 539 188 l 1,2,-1
 29 188 l 1,3,-1
 56 308 l 1,0,-1
EndSplineSet
EndChar
StartChar: radical
Encoding: 8730 8730 339
Width: 690
GlyphClass: 1
Flags: W
LayerCount: 2
Fore
SplineSet
148 101 m 1,0,-1
 12 101 l 1,1,-1
 38 225 l 1,2,-1
 256 225 l 1,3,-1
 297 19 l 1,4,-1
 597 668 l 1,5,-1
 736 668 l 1,6,-1
 351 -162 l 1,7,-1
 204 -162 l 1,8,-1
 148 101 l 1,0,-1
EndSplineSet
EndChar
StartChar: infinity
Encoding: 8734 8734 335
Width: 754
GlyphClass: 1
Flags: W
LayerCount: 2
Fore
SplineSet
120 117 m 128,-1,1
 85 136 85 136 65 169 c 128,-1,2
 45 202 45 202 45 242 c 0,3,4
 45 287 45 287 69.5 327 c 128,-1,5
 94 367 94 367 137.5 390.5 c 128,-1,6
 181 414 181 414 234 414 c 0,7,8
 330 414 330 414 389 330 c 1,9,10
 435 373 435 373 476.5 393.5 c 128,-1,11
 518 414 518 414 560 414 c 256,12,13
 602 414 602 414 637 395 c 128,-1,14
 672 376 672 376 692 343 c 128,-1,15
 712 310 712 310 712 270 c 0,16,17
 712 225 712 225 687.5 185 c 128,-1,18
 663 145 663 145 619.5 121.5 c 128,-1,19
 576 98 576 98 523 98 c 0,20,21
 427 98 427 98 368 182 c 1,22,23
 322 139 322 139 280.5 118.5 c 128,-1,24
 239 98 239 98 197 98 c 256,25,0
 155 98 155 98 120 117 c 128,-1,1
265 215.5 m 128,-1,27
 289 231 289 231 316 261 c 1,28,29
 284 312 284 312 232 312 c 0,30,31
 198 312 198 312 179 294 c 128,-1,32
 160 276 160 276 160 249 c 0,33,34
 160 227 160 227 176 213.5 c 128,-1,35
 192 200 192 200 214 200 c 0,36,26
 241 200 241 200 265 215.5 c 128,-1,27
578 218 m 128,-1,38
 597 236 597 236 597 263 c 0,39,40
 597 286 597 286 581 299 c 128,-1,41
 565 312 565 312 543 312 c 0,42,43
 516 312 516 312 492 296.5 c 128,-1,44
 468 281 468 281 440 251 c 1,45,46
 456 226 456 226 476.5 213 c 128,-1,47
 497 200 497 200 525 200 c 0,48,37
 559 200 559 200 578 218 c 128,-1,38
EndSplineSet
EndChar
StartChar: integral
Encoding: 8747 8747 336
Width: 482
GlyphClass: 1
Flags: W
LayerCount: 2
Fore
SplineSet
-3.5 -154 m 128,-1,1
 -34 -134 -34 -134 -34 -98 c 0,2,3
 -34 -74 -34 -74 -16.5 -54.5 c 128,-1,4
 1 -35 1 -35 30 -35 c 0,5,6
 53 -35 53 -35 67.5 -47.5 c 128,-1,7
 82 -60 82 -60 82 -80 c 0,8,9
 82 -95 82 -95 75 -111 c 1,10,11
 89 -103 89 -103 99 -83 c 128,-1,12
 109 -63 109 -63 117 -23 c 2,13,-1
 224 449 l 2,14,15
 276 680 276 680 418 680 c 0,16,17
 457 680 457 680 488 660.5 c 128,-1,18
 519 641 519 641 519 605 c 0,19,20
 519 581 519 581 501 561 c 128,-1,21
 483 541 483 541 455 541 c 0,22,23
 431 541 431 541 416.5 553.5 c 128,-1,24
 402 566 402 566 402 587 c 0,25,26
 402 601 402 601 410 619 c 1,27,28
 395 612 395 612 386 592.5 c 128,-1,29
 377 573 377 573 367 530 c 2,30,-1
 261 57 l 2,31,32
 233 -67 233 -67 182.5 -120.5 c 128,-1,33
 132 -174 132 -174 67 -174 c 0,34,0
 27 -174 27 -174 -3.5 -154 c 128,-1,1
EndSplineSet
EndChar
StartChar: approxequal
Encoding: 8776 8776 331
Width: 533
GlyphClass: 1
Flags: W
LayerCount: 2
Fore
SplineSet
64 200 m 128,-1,1
 101 238 101 238 160 238 c 0,2,3
 187 238 187 238 207.5 229.5 c 128,-1,4
 228 221 228 221 256 205 c 0,5,6
 279 191 279 191 295 184 c 128,-1,7
 311 177 311 177 330 177 c 0,8,9
 355 177 355 177 371 192 c 128,-1,10
 387 207 387 207 395 242 c 1,11,-1
 486 206 l 1,12,13
 464 135 464 135 427 97 c 128,-1,14
 390 59 390 59 332 59 c 0,15,16
 304 59 304 59 283.5 67.5 c 128,-1,17
 263 76 263 76 235 92 c 0,18,19
 212 106 212 106 196 113 c 128,-1,20
 180 120 180 120 161 120 c 0,21,22
 137 120 137 120 121 105 c 128,-1,23
 105 90 105 90 96 55 c 1,24,-1
 6 91 l 1,25,0
 27 162 27 162 64 200 c 128,-1,1
108 404 m 128,-1,27
 145 442 145 442 203 442 c 0,28,29
 231 442 231 442 251.5 433.5 c 128,-1,30
 272 425 272 425 300 409 c 0,31,32
 323 395 323 395 339 388 c 128,-1,33
 355 381 355 381 374 381 c 0,34,35
 424 381 424 381 439 446 c 1,36,-1
 529 410 l 1,37,38
 508 339 508 339 471 301 c 128,-1,39
 434 263 434 263 376 263 c 0,40,41
 348 263 348 263 327.5 271.5 c 128,-1,42
 307 280 307 280 279 296 c 0,43,44
 256 310 256 310 240 317 c 128,-1,45
 224 324 224 324 205 324 c 0,46,47
 155 324 155 324 140 259 c 1,48,-1
 49 294 l 1,49,26
 71 366 71 366 108 404 c 128,-1,27
EndSplineSet
EndChar
StartChar: notequal
Encoding: 8800 8800 325
Width: 611
GlyphClass: 1
Flags: W
LayerCount: 2
Fore
SplineSet
97 100 m 1,0,-1
 20 100 l 1,1,-1
 45 220 l 1,2,-1
 205 220 l 1,3,-1
 264 286 l 1,4,-1
 59 286 l 1,5,-1
 84 406 l 1,6,-1
 372 406 l 1,7,-1
 452 496 l 1,8,-1
 604 496 l 1,9,-1
 524 406 l 1,10,-1
 594 406 l 1,11,-1
 568 286 l 1,12,-1
 417 286 l 1,13,-1
 358 220 l 1,14,-1
 555 220 l 1,15,-1
 529 100 l 1,16,-1
 249 100 l 1,17,-1
 160 0 l 1,18,-1
 7 0 l 1,19,-1
 97 100 l 1,0,-1
EndSplineSet
EndChar
StartChar: lessequal
Encoding: 8804 8804 329
Width: 592
GlyphClass: 1
Flags: W
LayerCount: 2
Fore
SplineSet
46 261 m 1,0,-1
 71 379 l 1,1,-1
 604 507 l 1,2,-1
 577 381 l 1,3,-1
 224 317 l 1,4,-1
 550 251 l 1,5,-1
 525 133 l 1,6,-1
 46 261 l 1,0,-1
16 121 m 1,7,-1
 522 121 l 1,8,-1
 497 0 l 1,9,-1
 -9 0 l 1,10,-1
 16 121 l 1,7,-1
EndSplineSet
EndChar
StartChar: greaterequal
Encoding: 8805 8805 328
Width: 592
GlyphClass: 1
Flags: W
LayerCount: 2
Fore
SplineSet
45 259 m 1,0,-1
 399 325 l 1,1,-1
 73 389 l 1,2,-1
 97 507 l 1,3,-1
 576 379 l 1,4,-1
 551 261 l 1,5,-1
 18 133 l 1,6,-1
 45 259 l 1,0,-1
15 121 m 1,7,-1
 521 121 l 1,8,-1
 496 0 l 1,9,-1
 -10 0 l 1,10,-1
 15 121 l 1,7,-1
EndSplineSet
EndChar
StartChar: lozenge
Encoding: 9674 9674 343
Width: 600
GlyphClass: 1
Flags: W
LayerCount: 2
Fore
SplineSet
57 313 m 1,0,-1
 399 715 l 1,1,-1
 571 313 l 1,2,-1
 229 -88 l 1,3,-1
 57 313 l 1,0,-1
443 324 m 1,4,-1
 362 511 l 1,5,-1
 185 304 l 1,6,-1
 266 117 l 1,7,-1
 443 324 l 1,4,-1
EndSplineSet
EndChar
StartChar: musicalnote
Encoding: 9834 9834 296
Width: 632
GlyphClass: 1
Flags: W
LayerCount: 2
Fore
SplineSet
111.5 23.5 m 128,-1,1
 78 58 78 58 78 108 c 0,2,3
 78 157 78 157 112.5 191.5 c 128,-1,4
 147 226 147 226 197 226 c 0,5,6
 229 226 229 226 258 210 c 1,7,-1
 258 668 l 1,8,-1
 315 668 l 1,9,10
 318 638 318 638 332 614.5 c 128,-1,11
 346 591 346 591 367.5 571.5 c 128,-1,12
 389 552 389 552 434 516 c 0,13,14
 489 472 489 472 522 426 c 128,-1,15
 555 380 555 380 555 327 c 0,16,17
 555 272 555 272 495 202 c 1,18,-1
 490 204 l 1,19,20
 474 281 474 281 428.5 333 c 128,-1,21
 383 385 383 385 315 413 c 1,22,-1
 315 128 l 2,23,24
 315 62 315 62 281 25.5 c 128,-1,25
 247 -11 247 -11 194 -11 c 0,26,0
 145 -11 145 -11 111.5 23.5 c 128,-1,1
EndSplineSet
EndChar
StartChar: .notdef
Encoding: 65536 -1 0
Width: 527
GlyphClass: 1
Flags: W
LayerCount: 2
Fore
SplineSet
145 700 m 1,0,-1
 572 700 l 1,1,-1
 424 0 l 1,2,-1
 -3 0 l 1,3,-1
 145 700 l 1,0,-1
400 21 m 1,4,-1
 281 329 l 1,5,-1
 30 21 l 1,6,-1
 400 21 l 1,4,-1
272 350 m 1,7,-1
 156 650 l 1,8,-1
 28 49 l 1,9,-1
 272 350 l 1,7,-1
542 652 m 1,10,-1
 297 350 l 1,11,-1
 414 47 l 1,12,-1
 542 652 l 1,10,-1
540 680 m 1,13,-1
 169 680 l 1,14,-1
 288 371 l 1,15,-1
 540 680 l 1,13,-1
EndSplineSet
EndChar
StartChar: acutecomb.case
Encoding: 65553 -1 352
Width: 0
GlyphClass: 4
Flags: W
AnchorPoint: "Anchor-5" 232 882 basemark 0
AnchorPoint: "Anchor-5" 187 668 mark 0
AnchorPoint: "Anchor-1" 187 668 mark 0
LayerCount: 2
Fore
SplineSet
307.5 872 m 128,-1,1
 323 880 323 880 341 880 c 0,2,3
 363 880 363 880 375.5 868.5 c 128,-1,4
 388 857 388 857 388 840 c 0,5,6
 388 819 388 819 375 803.5 c 128,-1,7
 362 788 362 788 337 774 c 2,8,-1
 269 733 l 1,9,-1
 145 733 l 1,10,-1
 270 844 l 2,11,0
 292 864 292 864 307.5 872 c 128,-1,1
EndSplineSet
EndChar
StartChar: gravecomb.case
Encoding: 65552 -1 350
Width: 0
GlyphClass: 4
Flags: W
AnchorPoint: "Anchor-5" 334 882 basemark 0
AnchorPoint: "Anchor-5" 289 668 mark 0
AnchorPoint: "Anchor-1" 289 668 mark 0
LayerCount: 2
Fore
SplineSet
171.5 797.5 m 128,-1,1
 165 809 165 809 165 823 c 0,2,3
 165 846 165 846 182.5 863 c 128,-1,4
 200 880 200 880 224 880 c 0,5,6
 237 880 237 880 248.5 871.5 c 128,-1,7
 260 863 260 863 273 843 c 2,8,-1
 349 733 l 1,9,-1
 244 733 l 1,10,-1
 193 774 l 2,11,0
 178 786 178 786 171.5 797.5 c 128,-1,1
EndSplineSet
EndChar
StartChar: one.tf
Encoding: 65540 -1 240
Width: 632
GlyphClass: 1
Flags: W
LayerCount: 2
Fore
SplineSet
75 117 m 1,0,-1
 231 117 l 1,1,-1
 303 457 l 1,2,-1
 147 457 l 1,3,-1
 171 571 l 1,4,5
 243 571 243 571 276.5 576.5 c 128,-1,6
 310 582 310 582 332 601.5 c 128,-1,7
 354 621 354 621 383 668 c 1,8,-1
 489 668 l 1,9,-1
 371 117 l 1,10,-1
 504 117 l 1,11,-1
 480 0 l 1,12,-1
 50 0 l 1,13,-1
 75 117 l 1,0,-1
EndSplineSet
Substitution2: "'pnum' Proportional Numbers in Latin lookup 9 subtable" one
AlternateSubs2: "'aalt' Access All Alternates in Latin lookup 0 subtable" one
EndChar
StartChar: uni0307.case
Encoding: 65550 -1 347
Width: 0
GlyphClass: 4
Flags: W
AnchorPoint: "Anchor-5" 247 867 basemark 0
AnchorPoint: "Anchor-5" 205 668 mark 0
AnchorPoint: "Anchor-1" 205 668 mark 0
LayerCount: 2
Fore
SplineSet
181 744.5 m 128,-1,1
 160 766 160 766 160 795 c 256,2,3
 160 824 160 824 181 845.5 c 128,-1,4
 202 867 202 867 232 867 c 0,5,6
 261 867 261 867 282 845.5 c 128,-1,7
 303 824 303 824 303 795 c 256,8,9
 303 766 303 766 282 744.5 c 128,-1,10
 261 723 261 723 232 723 c 0,11,0
 202 723 202 723 181 744.5 c 128,-1,1
EndSplineSet
EndChar
StartChar: uni0307.large
Encoding: 65551 -1 348
Width: 0
GlyphClass: 4
Flags: W
AnchorPoint: "Anchor-5" 236 751 basemark 0
AnchorPoint: "Anchor-5" 183 496 mark 0
AnchorPoint: "Anchor-1" 183 496 mark 0
LayerCount: 2
Fore
SplineSet
157.5 605 m 128,-1,1
 132 630 132 630 132 666 c 0,2,3
 132 701 132 701 157.5 726 c 128,-1,4
 183 751 183 751 218 751 c 0,5,6
 254 751 254 751 279 726 c 128,-1,7
 304 701 304 701 304 666 c 0,8,9
 304 630 304 630 279 605 c 128,-1,10
 254 580 254 580 218 580 c 0,11,0
 183 580 183 580 157.5 605 c 128,-1,1
EndSplineSet
EndChar
StartChar: uni030A.case
Encoding: 65559 -1 363
Width: 0
GlyphClass: 4
Flags: W
AnchorPoint: "Anchor-5" 279 857 basemark 0
AnchorPoint: "Anchor-5" 273 668 mark 0
AnchorPoint: "Anchor-1" 273 668 mark 0
LayerCount: 2
Fore
SplineSet
184.5 638.5 m 128,-1,1
 147 676 147 676 147 729 c 256,2,3
 147 782 147 782 184.5 819.5 c 128,-1,4
 222 857 222 857 275 857 c 0,5,6
 329 857 329 857 366.5 819.5 c 128,-1,7
 404 782 404 782 404 729 c 256,8,9
 404 676 404 676 366.5 638.5 c 128,-1,10
 329 601 329 601 275 601 c 0,11,0
 222 601 222 601 184.5 638.5 c 128,-1,1
309 695 m 128,-1,13
 323 709 323 709 323 729 c 256,14,15
 323 749 323 749 309 763 c 128,-1,16
 295 777 295 777 275 777 c 0,17,18
 256 777 256 777 242 763 c 128,-1,19
 228 749 228 749 228 729 c 256,20,21
 228 709 228 709 242 695 c 128,-1,22
 256 681 256 681 275 681 c 0,23,12
 295 681 295 681 309 695 c 128,-1,13
EndSplineSet
EndChar
StartChar: uni030C.alt
Encoding: 65555 -1 355
Width: 0
GlyphClass: 4
Flags: W
AnchorPoint: "Anchor-3" 79 496 mark 0
LayerCount: 2
Fore
SplineSet
222 718 m 0,1,2
 244 718 244 718 257 706 c 128,-1,3
 270 694 270 694 270 677 c 0,4,5
 270 664 270 664 262.5 649 c 128,-1,6
 255 634 255 634 240 613 c 2,7,-1
 185 527 l 1,8,-1
 101 527 l 1,9,-1
 155 667 l 2,10,0
 175 718 175 718 222 718 c 0,1,2
EndSplineSet
EndChar
StartChar: uni0328.alt
Encoding: 65562 -1 372
Width: 0
GlyphClass: 4
Flags: W
AnchorPoint: "Anchor-2" 203 10 mark 0
LayerCount: 2
Fore
SplineSet
17.5 -152.5 m 128,-1,1
 -27 -131 -27 -131 -27 -86 c 0,2,3
 -27 -47 -27 -47 19.5 -11 c 128,-1,4
 66 25 66 25 128 38 c 1,5,-1
 194 38 l 1,6,7
 150 11 150 11 122 -13.5 c 128,-1,8
 94 -38 94 -38 94 -65 c 0,9,10
 94 -83 94 -83 106.5 -92 c 128,-1,11
 119 -101 119 -101 142 -101 c 0,12,13
 169 -101 169 -101 181 -96 c 1,14,-1
 165 -172 l 1,15,16
 154 -174 154 -174 128 -174 c 0,17,0
 62 -174 62 -174 17.5 -152.5 c 128,-1,1
EndSplineSet
EndChar
StartChar: uni0328.case
Encoding: 65563 -1 373
Width: 0
GlyphClass: 4
Flags: W
AnchorPoint: "Anchor-2" 204 10 mark 0
LayerCount: 2
Fore
SplineSet
17 -153 m 128,-1,1
 -28 -132 -28 -132 -28 -90 c 0,2,3
 -28 -57 -28 -57 2 -31.5 c 128,-1,4
 32 -6 32 -6 75 9 c 1,5,-1
 202 0 l 1,6,7
 167 -4 167 -4 130.5 -25.5 c 128,-1,8
 94 -47 94 -47 94 -72 c 0,9,10
 94 -86 94 -86 107.5 -93.5 c 128,-1,11
 121 -101 121 -101 140 -101 c 0,12,13
 164 -101 164 -101 182 -96 c 1,14,-1
 167 -171 l 1,15,16
 152 -174 152 -174 124 -174 c 0,17,0
 62 -174 62 -174 17 -153 c 128,-1,1
EndSplineSet
EndChar
